STARTFONT 2.1
COMMENT
COMMENT Converted from OpenType font "UbuntuMono-Bold.ttf" by "otf2bdf 3.0".
COMMENT
FONT -FreeType-Ubuntu Mono-Bold-R-Normal--66-480-100-100-P-295-ISO10646-1
SIZE 48 100 100
FONTBOUNDINGBOX 70 66 -26 -11
STARTPROPERTIES 19
FOUNDRY "FreeType"
FAMILY_NAME "Ubuntu Mono"
WEIGHT_NAME "Bold"
SLANT "R"
SETWIDTH_NAME "Normal"
ADD_STYLE_NAME ""
PIXEL_SIZE 66
POINT_SIZE 480
RESOLUTION_X 100
RESOLUTION_Y 100
SPACING "P"
AVERAGE_WIDTH 295
CHARSET_REGISTRY "ISO10646"
CHARSET_ENCODING "1"
FONT_ASCENT 55
FONT_DESCENT 11
COPYRIGHT "Copyright 2011 Canonical Ltd.  Licensed under the Ubuntu Font Licence 1.0"
_OTF_FONTFILE "UbuntuMono-Bold.ttf"
_OTF_PSNAME "UbuntuMono-Bold"
ENDPROPERTIES
CHARS 1224
STARTCHAR 0000
ENCODING 0
SWIDTH 495 0
DWIDTH 33 0
BBX 0 0 0 0
BITMAP
ENDCHAR
STARTCHAR 0008
ENCODING 8
SWIDTH 495 0
DWIDTH 33 0
BBX 0 0 0 0
BITMAP
ENDCHAR
STARTCHAR 0009
ENCODING 9
SWIDTH 495 0
DWIDTH 33 0
BBX 0 0 0 0
BITMAP
ENDCHAR
STARTCHAR 000D
ENCODING 13
SWIDTH 495 0
DWIDTH 33 0
BBX 0 0 0 0
BITMAP
ENDCHAR
STARTCHAR 001D
ENCODING 29
SWIDTH 495 0
DWIDTH 33 0
BBX 0 0 0 0
BITMAP
ENDCHAR
STARTCHAR 0020
ENCODING 32
SWIDTH 495 0
DWIDTH 33 0
BBX 0 0 0 0
BITMAP
ENDCHAR
STARTCHAR 0021
ENCODING 33
SWIDTH 495 0
DWIDTH 33 0
BBX 11 42 11 -1
BITMAP
7FC0
7FC0
7FC0
7FC0
7FC0
7FC0
7FC0
7FC0
7FC0
7FC0
7FC0
7FC0
7FC0
7FC0
7FC0
7FC0
7FC0
7FC0
7FC0
7FC0
3FC0
3FC0
3FC0
3F80
3F80
3F80
0000
0000
0000
0000
0000
1F00
3FC0
7FE0
FFE0
FFE0
FFE0
FFE0
7FE0
7FC0
3F80
0F00
ENDCHAR
STARTCHAR 0022
ENCODING 34
SWIDTH 495 0
DWIDTH 33 0
BBX 22 18 6 27
BITMAP
FF87FC
FF87FC
FF87FC
FF87FC
FF87FC
FF07FC
FF07FC
FF07F8
FF07F8
FF07F8
FF03F8
7F03F8
7F03F8
7E03F8
7E03F0
7E03F0
7E01F0
3E01F0
ENDCHAR
STARTCHAR 0023
ENCODING 35
SWIDTH 495 0
DWIDTH 33 0
BBX 31 41 1 0
BITMAP
003F83F8
003F83F8
003F03F0
007F07F0
007F07F0
007F07F0
007F07F0
007E07F0
00FE07E0
00FE0FE0
FFFFFFFE
FFFFFFFE
FFFFFFFE
FFFFFFFE
FFFFFFFE
FFFFFFFE
FFFFFFFE
01FC1FC0
01F81F80
03F83F80
03F83F80
03F83F80
03F83F80
03F03F00
FFFFFFFE
FFFFFFFE
FFFFFFFE
FFFFFFFE
FFFFFFFE
FFFFFFFE
FFFFFFFE
0FE0FE00
0FE0FE00
0FC0FE00
1FC0FC00
1FC1FC00
1FC1FC00
1FC1FC00
1FC1FC00
1F81F800
3F83F800
ENDCHAR
STARTCHAR 0024
ENCODING 36
SWIDTH 495 0
DWIDTH 33 0
BBX 29 52 2 -6
BITMAP
001FE000
001FE000
001FE000
001FE000
001FE000
001FE000
003FFE00
01FFFFC0
03FFFFF0
07FFFFE0
0FFFFFE0
1FFFFFE0
1FFFFFE0
3FF007C0
3FE00040
3FC00000
3FC00000
3FC00000
3FE00000
3FF00000
3FFC0000
3FFF0000
1FFFE000
0FFFF800
07FFFE00
03FFFF80
00FFFFC0
003FFFE0
000FFFF0
0001FFF0
00003FF8
00001FF8
00000FF8
00000FF8
000007F8
00000FF8
10000FF8
3E001FF8
3FFBFFF0
7FFFFFF0
7FFFFFE0
7FFFFFE0
FFFFFFC0
1FFFFF00
07FFFC00
001FC000
001FC000
001FC000
001FC000
001FC000
001FC000
001FC000
ENDCHAR
STARTCHAR 0025
ENCODING 37
SWIDTH 495 0
DWIDTH 33 0
BBX 33 43 0 -1
BITMAP
07E0000000
0FF8001F80
1FFC003F00
3FFC007E00
3FFE007E00
7E7E00FC00
7C3E01F800
7C3F01F800
7C3F03F000
7C3F07E000
7C3F07E000
7C3F0FC000
7C3F0F8000
7C3E1F8000
7E7E3F0000
7FFE3F0000
3FFC7E0000
3FFCFC0000
1FF8FC0000
0FF1F80000
0003F00000
0003F00000
0007E1E000
000FC7F800
000FCFFC00
001F9FFE00
003F1FFF00
003F3FBF00
007E3F1F00
00FC3E1F00
00FC3E1F80
01F83E1F80
03F03E1F80
03F03E1F80
07E03E1F80
0FC03E1F00
0FC03F1F00
1F803FFF00
3F001FFF00
3F001FFE00
7E000FFC00
FC0007F800
000001E000
ENDCHAR
STARTCHAR 0026
ENCODING 38
SWIDTH 495 0
DWIDTH 33 0
BBX 31 43 1 -1
BITMAP
003FC000
00FFF000
01FFF800
03FFFC00
07FFFE00
0FFFFE00
0FF0FF00
0FE07F00
1FE07F00
1FC07F00
1FC07F00
1FC07F00
1FE0FE00
0FE0FE00
0FF1FE00
0FF3FC00
07FFF800
07FFF000
03FFE000
03FFC180
03FF01FC
07FF81FC
0FFFC1F8
1FFFC1F8
3FFFE3F8
3FDFF3F8
7F8FFBF8
7F07FFF0
7F03FFF0
FE01FFF0
FE00FFE0
FE007FE0
FF003FC0
7F003FE0
7F003FF0
7F80FFF0
3FFFFFF8
3FFFFFF8
1FFFFFFC
0FFFFBFC
07FFE1FE
01FF81FE
00080000
ENDCHAR
STARTCHAR 0027
ENCODING 39
SWIDTH 495 0
DWIDTH 33 0
BBX 9 20 12 25
BITMAP
FF80
FF80
FF80
FF80
FF80
FF80
FF80
7F80
7F80
7F80
7F80
7F80
7F00
7F00
7F00
3F00
3F00
3F00
3E00
3E00
ENDCHAR
STARTCHAR 0028
ENCODING 40
SWIDTH 495 0
DWIDTH 33 0
BBX 22 58 6 -11
BITMAP
000060
0001E0
0003F0
000FF8
001FFC
003FF8
007FE0
00FFC0
01FF80
03FF00
03FE00
07FC00
0FF800
0FF000
1FF000
1FE000
1FE000
3FC000
3FC000
3F8000
7F8000
7F8000
7F8000
7F0000
7F0000
FF0000
FF0000
FF0000
FF0000
FF0000
FF0000
FF0000
FF0000
FF0000
7F0000
7F0000
7F8000
7F8000
7F8000
3FC000
3FC000
3FC000
1FE000
1FF000
0FF000
0FF800
07FC00
07FC00
03FE00
01FF00
00FFC0
007FE0
003FF0
001FF8
000FF8
0007F0
0001E0
0000C0
ENDCHAR
STARTCHAR 0029
ENCODING 41
SWIDTH 495 0
DWIDTH 33 0
BBX 21 58 6 -11
BITMAP
180000
3E0000
7F0000
7F8000
FFC000
7FF000
3FF800
0FF800
07FC00
03FE00
01FF00
00FF00
00FF80
007F80
003FC0
003FC0
001FE0
001FE0
000FF0
000FF0
000FF0
0007F0
0007F8
0007F8
0007F8
0007F8
0007F8
0003F8
0003F8
0003F8
0003F8
0007F8
0007F8
0007F8
0007F8
0007F8
0007F0
0007F0
000FF0
000FF0
001FE0
001FE0
001FE0
003FC0
007FC0
007F80
00FF80
01FF00
03FE00
07FE00
0FFC00
1FF800
7FF000
FFE000
7F8000
3F0000
3E0000
180000
ENDCHAR
STARTCHAR 002A
ENCODING 42
SWIDTH 495 0
DWIDTH 33 0
BBX 27 26 3 15
BITMAP
003FC000
003FC000
003FC000
003FC000
003F8000
303F8080
3C1F83C0
3F1F8FC0
7F9F3FC0
7FEF7FE0
7FFFFFE0
FFFFFFE0
7FFFFFE0
0FFFFF00
003FC000
00FFE000
01FFF000
03FBF800
07F9FC00
0FF9FE00
0FF1FF00
1FF0FF00
07E0FE00
03E07C00
01C07000
00002000
ENDCHAR
STARTCHAR 002B
ENCODING 43
SWIDTH 495 0
DWIDTH 33 0
BBX 28 29 3 3
BITMAP
003F8000
003F8000
003F8000
003F8000
003F8000
003F8000
003F8000
003F8000
003F8000
003F8000
003F8000
FFFFFFF0
FFFFFFF0
FFFFFFF0
FFFFFFF0
FFFFFFF0
FFFFFFF0
FFFFFFF0
003F8000
003F8000
003F8000
003F8000
003F8000
003F8000
003F8000
003F8000
003F8000
003F8000
003F8000
ENDCHAR
STARTCHAR 002C
ENCODING 44
SWIDTH 495 0
DWIDTH 33 0
BBX 14 21 9 -10
BITMAP
07E0
0FF0
1FF8
1FFC
3FFC
3FFC
3FFC
3FFC
1FFC
1FFC
0FFC
03F8
01F8
03F8
07F0
7FE0
FFC0
FF80
FF00
FC00
F000
ENDCHAR
STARTCHAR 002D
ENCODING 45
SWIDTH 495 0
DWIDTH 33 0
BBX 18 8 8 13
BITMAP
FFFFC0
FFFFC0
FFFFC0
FFFFC0
FFFFC0
FFFFC0
FFFFC0
FFFFC0
ENDCHAR
STARTCHAR 002E
ENCODING 46
SWIDTH 495 0
DWIDTH 33 0
BBX 12 12 11 -1
BITMAP
1F00
7FC0
7FE0
FFE0
FFF0
FFF0
FFF0
FFE0
FFE0
7FE0
3FC0
0F00
ENDCHAR
STARTCHAR 002F
ENCODING 47
SWIDTH 495 0
DWIDTH 33 0
BBX 27 58 3 -11
BITMAP
00001FE0
00003FE0
00003FE0
00003FC0
00007FC0
00007FC0
00007F80
0000FF80
0000FF80
0000FF00
0000FF00
0001FF00
0001FE00
0001FE00
0003FE00
0003FC00
0003FC00
0007FC00
0007F800
0007F800
000FF800
000FF000
000FF000
001FF000
001FE000
001FE000
003FE000
003FE000
003FC000
007FC000
007FC000
007F8000
00FF8000
00FF8000
00FF0000
01FF0000
01FF0000
01FE0000
03FE0000
03FE0000
03FC0000
07FC0000
07FC0000
07F80000
0FF80000
0FF80000
0FF00000
0FF00000
1FF00000
1FE00000
1FE00000
3FE00000
3FC00000
3FC00000
7FC00000
7F800000
7F800000
FF800000
ENDCHAR
STARTCHAR 0030
ENCODING 48
SWIDTH 495 0
DWIDTH 33 0
BBX 29 43 2 -1
BITMAP
003FE000
00FFFC00
03FFFE00
07FFFF00
07FFFF80
0FFFFFC0
1FFFFFC0
1FF07FE0
3FE03FE0
3FC01FE0
3FC00FF0
7F800FF0
7F8007F0
7F0007F0
7F0007F8
7F0007F8
7F0707F8
FF0F87F8
FF1FC3F8
FF1FC3F8
FF1FC3F8
FF1FC3F8
FF1FC3F8
FF0FC3F8
FF0707F8
FF0007F8
7F0007F8
7F0007F8
7F0007F8
7F8007F0
7F800FF0
7F800FF0
3FC00FF0
3FC01FE0
3FE03FE0
1FF8FFC0
1FFFFFC0
0FFFFF80
07FFFF80
03FFFF00
01FFFC00
00FFF800
001FC000
ENDCHAR
STARTCHAR 0031
ENCODING 49
SWIDTH 495 0
DWIDTH 33 0
BBX 28 41 3 0
BITMAP
0007E000
000FE000
001FE000
007FE000
00FFE000
03FFE000
0FFFE000
3FFFE000
FFFFE000
7FFFE000
7FFFE000
7FFFE000
3F9FE000
3E1FE000
181FE000
001FE000
001FE000
001FE000
001FE000
001FE000
001FE000
001FE000
001FE000
001FE000
001FE000
001FE000
001FE000
001FE000
001FE000
001FE000
001FE000
001FE000
001FE000
001FE000
1FFFFFF0
1FFFFFF0
1FFFFFF0
1FFFFFF0
1FFFFFF0
1FFFFFF0
1FFFFFF0
ENDCHAR
STARTCHAR 0032
ENCODING 50
SWIDTH 495 0
DWIDTH 33 0
BBX 28 42 3 0
BITMAP
00FFC000
07FFF000
1FFFFC00
3FFFFE00
7FFFFF00
FFFFFF00
7FFFFF80
7F81FF80
3E00FFC0
1C007FC0
10007FC0
00003FC0
00003FC0
00007FC0
00007FC0
00007F80
0000FF80
0001FF00
0003FF00
0007FE00
000FFC00
001FF800
003FF800
007FF000
00FFE000
01FFC000
03FF8000
07FF0000
0FFC0000
0FFC0000
1FF80000
1FF00000
3FE00000
3FE00000
7FC00000
7FFFFFF0
7FFFFFF0
7FFFFFF0
7FFFFFF0
7FFFFFF0
7FFFFFF0
7FFFFFF0
ENDCHAR
STARTCHAR 0033
ENCODING 51
SWIDTH 495 0
DWIDTH 33 0
BBX 27 43 3 -1
BITMAP
01FF8000
0FFFF000
3FFFFC00
FFFFFE00
7FFFFE00
7FFFFF00
3FFFFF80
3F01FF80
1800FF80
00007F80
00007F80
00007F80
00007F80
00007F80
0000FF80
0001FF00
0007FF00
01FFFE00
01FFFC00
01FFF800
01FFFC00
01FFFE00
01FFFF00
01FFFF80
0001FFC0
00007FC0
00003FE0
00003FE0
00001FE0
00001FE0
00001FE0
00003FE0
00003FE0
00007FE0
60007FC0
7E03FFC0
7FFFFF80
FFFFFF80
FFFFFF00
FFFFFE00
FFFFFC00
3FFFE000
01FF0000
ENDCHAR
STARTCHAR 0034
ENCODING 52
SWIDTH 495 0
DWIDTH 33 0
BBX 30 41 2 0
BITMAP
00007F80
0000FF80
0001FF80
0003FF80
0003FF80
0007FF80
000FFF80
001FFF80
003FFF80
003FFF80
007FFF80
00FF7F80
00FE7F80
01FC7F80
03FC7F80
07F87F80
07F07F80
0FF07F80
0FE07F80
1FC07F80
3FC07F80
3F807F80
7F807F80
7F007F80
FF007F80
FFFFFFFC
FFFFFFFC
FFFFFFFC
FFFFFFFC
FFFFFFFC
FFFFFFFC
00007F80
00007F80
00007F80
00007F80
00007F80
00007F80
00007F80
00007F80
00007F80
00007F80
ENDCHAR
STARTCHAR 0035
ENCODING 53
SWIDTH 495 0
DWIDTH 33 0
BBX 28 42 2 -1
BITMAP
07FFFFC0
07FFFFC0
07FFFFC0
07FFFFC0
07FFFFC0
07FFFFC0
07FFFFC0
07F00000
07F00000
07F00000
07F00000
0FF00000
0FF00000
0FF00000
0FE00000
0FFF8000
0FFFF000
0FFFFC00
0FFFFE00
0FFFFF00
0FFFFF80
001FFFC0
0001FFE0
00007FE0
00003FE0
00001FF0
00001FF0
00001FF0
00001FF0
00001FF0
00001FF0
00001FF0
00003FE0
20007FE0
3E01FFE0
7FFFFFC0
7FFFFF80
7FFFFF00
7FFFFE00
FFFFFC00
3FFFF000
01FF0000
ENDCHAR
STARTCHAR 0036
ENCODING 54
SWIDTH 495 0
DWIDTH 33 0
BBX 27 42 3 0
BITMAP
00007F80
0003FF80
001FFF80
003FFF80
00FFFF80
01FFFF80
03FFFF80
07FFC000
07FF0000
0FFC0000
1FF80000
1FF00000
3FE00000
3FC00000
7FC00000
7FFFF000
7FFFFC00
7FFFFE00
FFFFFF00
FFFFFF80
FFFFFFC0
FFF3FFC0
FF007FE0
FF003FE0
FF001FE0
FF001FE0
FF001FE0
FF001FE0
FF001FE0
FF801FE0
7F801FE0
7F801FE0
7FC03FE0
7FE07FC0
3FF0FFC0
3FFFFF80
1FFFFF80
0FFFFF00
07FFFE00
03FFFC00
01FFF000
001FC000
ENDCHAR
STARTCHAR 0037
ENCODING 55
SWIDTH 495 0
DWIDTH 33 0
BBX 27 41 3 0
BITMAP
FFFFFFE0
FFFFFFE0
FFFFFFE0
FFFFFFE0
FFFFFFE0
FFFFFFE0
FFFFFFE0
00007FC0
0000FF80
0000FF80
0001FF00
0001FE00
0003FE00
0003FC00
0007FC00
0007F800
000FF800
000FF000
000FF000
001FF000
001FE000
003FE000
003FC000
003FC000
007FC000
007F8000
007F8000
00FF8000
00FF0000
00FF0000
00FF0000
01FF0000
01FE0000
01FE0000
01FE0000
03FE0000
03FE0000
03FC0000
03FC0000
03FC0000
03FC0000
ENDCHAR
STARTCHAR 0038
ENCODING 56
SWIDTH 495 0
DWIDTH 33 0
BBX 28 43 3 -1
BITMAP
007FE000
03FFFC00
07FFFE00
0FFFFF00
1FFFFF80
3FFFFFC0
3FFFFFC0
7FC07FC0
7F803FE0
7F801FE0
7F001FE0
7F001FE0
7F001FE0
7F801FC0
7F803FC0
7FC03FC0
3FF07F80
3FFCFF80
1FFFFF00
0FFFFE00
07FFF800
07FFFC00
0FFFFE00
1FFFFF80
3FC7FFC0
7F81FFC0
7F007FE0
FF001FE0
FF001FF0
FE000FF0
FE000FF0
FE000FF0
FE000FF0
FF001FF0
FF801FE0
FFE07FE0
7FFFFFE0
7FFFFFC0
3FFFFF80
1FFFFF00
0FFFFE00
03FFF800
007FC000
ENDCHAR
STARTCHAR 0039
ENCODING 57
SWIDTH 495 0
DWIDTH 33 0
BBX 27 42 3 0
BITMAP
00FFE000
03FFF800
07FFFC00
0FFFFE00
1FFFFF00
3FFFFF80
3FFFFF80
7FC0FFC0
7F807FC0
7F803FC0
FF003FE0
FF001FE0
FF001FE0
FF001FE0
FF001FE0
FF001FE0
FF001FE0
FF801FE0
7FC01FE0
7FE03FE0
7FFFFFE0
3FFFFFE0
1FFFFFE0
0FFFFFE0
07FFFFE0
03FFFFE0
003F3FC0
00007FC0
00007FC0
0000FF80
0001FF80
0003FF00
0007FE00
003FFE00
01FFFC00
1FFFF800
1FFFF000
1FFFE000
1FFF8000
1FFE0000
1FF80000
1F800000
ENDCHAR
STARTCHAR 003A
ENCODING 58
SWIDTH 495 0
DWIDTH 33 0
BBX 12 32 11 -1
BITMAP
1F80
7FC0
FFE0
FFE0
FFF0
FFF0
FFF0
FFE0
FFE0
7FC0
3F80
0000
0000
0000
0000
0000
0000
0000
0000
0000
1F00
7FC0
7FE0
FFE0
FFF0
FFF0
FFF0
FFE0
FFE0
7FE0
3FC0
0F00
ENDCHAR
STARTCHAR 003B
ENCODING 59
SWIDTH 495 0
DWIDTH 33 0
BBX 15 41 8 -10
BITMAP
03F0
0FF8
1FFC
1FFC
1FFE
1FFE
1FFE
1FFC
1FFC
0FF8
07F0
0000
0000
0000
0000
0000
0000
0000
0000
0000
03F0
0FF8
0FFC
1FFC
1FFC
1FFE
1FFE
1FFE
1FFE
0FFC
07FC
01FC
00F8
01F8
07F0
3FF0
FFE0
FFC0
FF80
7E00
7000
ENDCHAR
STARTCHAR 003C
ENCODING 60
SWIDTH 495 0
DWIDTH 33 0
BBX 28 29 3 3
BITMAP
00000040
000001C0
000007C0
00003FE0
0000FFE0
0007FFE0
001FFFF0
007FFFF0
03FFFFC0
0FFFFE00
7FFFF000
FFFFC000
FFFE0000
FFF80000
FFC00000
FFE00000
FFF80000
FFFF0000
FFFFE000
3FFFF800
07FFFF00
01FFFFC0
007FFFF0
000FFFE0
0003FFE0
0000FFE0
00001FE0
000007C0
000000C0
ENDCHAR
STARTCHAR 003D
ENCODING 61
SWIDTH 495 0
DWIDTH 33 0
BBX 28 19 3 8
BITMAP
FFFFFFF0
FFFFFFF0
FFFFFFF0
FFFFFFF0
FFFFFFF0
FFFFFFF0
00000000
00000000
00000000
00000000
00000000
00000000
00000000
FFFFFFF0
FFFFFFF0
FFFFFFF0
FFFFFFF0
FFFFFFF0
FFFFFFF0
ENDCHAR
STARTCHAR 003E
ENCODING 62
SWIDTH 495 0
DWIDTH 33 0
BBX 28 28 3 4
BITMAP
38000000
7E000000
7F800000
7FF00000
FFFC0000
FFFF0000
FFFFE000
3FFFF800
0FFFFF00
01FFFFC0
007FFFF0
000FFFF0
0001FFF0
00007FF0
00007FF0
0003FFF0
000FFFF0
007FFFF0
01FFFF80
0FFFFE00
7FFFF800
FFFFC000
FFFF0000
FFFC0000
7FE00000
7F800000
7E000000
30000000
ENDCHAR
STARTCHAR 003F
ENCODING 63
SWIDTH 495 0
DWIDTH 33 0
BBX 24 43 5 -1
BITMAP
07FF80
3FFFE0
FFFFF0
FFFFF8
FFFFFC
7FFFFE
7FFFFE
7C07FF
2001FF
0001FF
0001FF
0001FF
0001FF
0003FE
0007FE
000FFC
001FF8
003FF8
007FF0
00FFE0
00FFC0
01FF80
01FF00
03FE00
03FC00
03FC00
03FC00
000000
000000
000000
000000
000000
00F800
03FC00
07FE00
07FF00
07FF00
07FF00
07FF00
07FE00
03FE00
01FC00
007000
ENDCHAR
STARTCHAR 0040
ENCODING 64
SWIDTH 495 0
DWIDTH 33 0
BBX 30 51 1 -9
BITMAP
000FFC00
003FFF00
00FFFF80
01FFFFC0
03FFFFE0
07FFFFF0
0FF807F8
0FE003F8
1FC003F8
1FC001FC
3F8001FC
3F0001FC
3F0039FC
3F01FFFC
7E03FFFC
7E07FFFC
7E0FFFFC
7E0FFFFC
7E1FFFFC
FE1FF1FC
FC1FC1FC
FC3FC1FC
FC3F81FC
FC3F81FC
FC3F81FC
FC3F81FC
FC3F81FC
FC3F81FC
FC3F81FC
FC3F81FC
FC3FC1FC
FE1FC1FC
7E1FE1FC
7E1FFFFC
7E0FFFFC
7E07FFFC
7F07FFFC
3F03FFFC
3F00FFFC
3F801F80
1FC00000
1FC00000
0FF00000
0FF80000
07FF0010
03FFFFF0
01FFFFF0
00FFFFF8
003FFFF8
000FFFF8
0000FFE0
ENDCHAR
STARTCHAR 0041
ENCODING 65
SWIDTH 495 0
DWIDTH 33 0
BBX 32 41 1 0
BITMAP
001FF800
001FF800
003FF800
003FF800
003FFC00
003FFC00
007FFC00
007FFE00
007EFE00
00FEFE00
00FEFF00
00FE7F00
01FC7F00
01FC7F80
01FC7F80
03FC3F80
03F83F80
03F83FC0
03F83FC0
07F81FC0
07F01FE0
07F01FE0
0FF01FE0
0FF01FE0
0FF00FF0
0FFFFFF0
1FFFFFF0
1FFFFFF0
1FFFFFF8
3FFFFFF8
3FFFFFF8
3FC007F8
3FC007FC
7FC007FC
7F8003FC
7F8003FC
7F8003FE
FF8003FE
FF8003FE
FF0001FE
FF0001FF
ENDCHAR
STARTCHAR 0042
ENCODING 66
SWIDTH 495 0
DWIDTH 33 0
BBX 27 43 4 -1
BITMAP
07FE0000
FFFFE000
FFFFF800
FFFFFC00
FFFFFE00
FFFFFF00
FFFFFF00
FF87FF80
FF00FF80
FF007F80
FF007F80
FF007F80
FF007F80
FF007F80
FF007F80
FF00FF00
FF03FF00
FFFFFE00
FFFFFC00
FFFFF800
FFFFF800
FFFFFE00
FFFFFF80
FFFFFF80
FF00FFC0
FF003FC0
FF003FE0
FF001FE0
FF001FE0
FF001FE0
FF001FE0
FF001FE0
FF001FE0
FF003FE0
FF00FFE0
FFFFFFC0
FFFFFFC0
FFFFFF80
FFFFFF00
FFFFFE00
FFFFF800
FFFFE000
00380000
ENDCHAR
STARTCHAR 0043
ENCODING 67
SWIDTH 495 0
DWIDTH 33 0
BBX 29 43 2 -1
BITMAP
0007FF00
003FFFE0
007FFFF8
01FFFFF8
03FFFFF8
07FFFFF0
0FFFFFF0
1FFE01F0
1FF80020
3FF00000
3FE00000
7FC00000
7FC00000
7F800000
FF800000
FF800000
FF000000
FF000000
FF000000
FF000000
FF000000
FF000000
FF000000
FF000000
FF000000
FF000000
FF800000
FF800000
FF800000
7F800000
7FC00000
7FC00000
3FE00000
3FF00000
1FF80070
1FFF03F0
0FFFFFF0
07FFFFF0
07FFFFF8
01FFFFF8
00FFFFF0
003FFFC0
0007FC00
ENDCHAR
STARTCHAR 0044
ENCODING 68
SWIDTH 495 0
DWIDTH 33 0
BBX 28 43 4 -1
BITMAP
07F80000
FFFF8000
FFFFE000
FFFFF800
FFFFFC00
FFFFFE00
FFFFFF00
FF9FFF00
FF01FF80
FF00FF80
FF007FC0
FF007FC0
FF003FC0
FF003FE0
FF003FE0
FF001FE0
FF001FE0
FF001FE0
FF001FE0
FF001FE0
FF001FF0
FF001FF0
FF001FF0
FF001FE0
FF001FE0
FF001FE0
FF001FE0
FF001FE0
FF003FE0
FF003FE0
FF003FC0
FF007FC0
FF00FFC0
FF01FF80
FF03FF80
FFFFFF00
FFFFFE00
FFFFFC00
FFFFF800
FFFFF000
FFFFC000
FFFF0000
02800000
ENDCHAR
STARTCHAR 0045
ENCODING 69
SWIDTH 495 0
DWIDTH 33 0
BBX 27 41 4 0
BITMAP
FFFFFF80
FFFFFF80
FFFFFF80
FFFFFF80
FFFFFF80
FFFFFF80
FFFFFF80
FF000000
FF000000
FF000000
FF000000
FF000000
FF000000
FF000000
FF000000
FF000000
FFFFFE00
FFFFFE00
FFFFFE00
FFFFFE00
FFFFFE00
FFFFFE00
FFFFFE00
FF000000
FF000000
FF000000
FF000000
FF000000
FF000000
FF000000
FF000000
FF000000
FF000000
FF000000
FFFFFFE0
FFFFFFE0
FFFFFFE0
FFFFFFE0
FFFFFFE0
FFFFFFE0
FFFFFFE0
ENDCHAR
STARTCHAR 0046
ENCODING 70
SWIDTH 495 0
DWIDTH 33 0
BBX 25 41 4 0
BITMAP
FFFFFF80
FFFFFF80
FFFFFF80
FFFFFF80
FFFFFF80
FFFFFF80
FFFFFF80
FF000000
FF000000
FF000000
FF000000
FF000000
FF000000
FF000000
FF000000
FF000000
FF000000
FFFFFE00
FFFFFE00
FFFFFE00
FFFFFE00
FFFFFE00
FFFFFE00
FF000000
FF000000
FF000000
FF000000
FF000000
FF000000
FF000000
FF000000
FF000000
FF000000
FF000000
FF000000
FF000000
FF000000
FF000000
FF000000
FF000000
FF000000
ENDCHAR
STARTCHAR 0047
ENCODING 71
SWIDTH 495 0
DWIDTH 33 0
BBX 29 43 2 -1
BITMAP
0007FF00
003FFFE0
00FFFFF0
01FFFFF8
03FFFFF0
07FFFFF0
0FFFFFF0
1FFE01E0
1FF80060
3FF00000
3FE00000
7FC00000
7FC00000
7F800000
FF800000
FF800000
FF800000
FF000000
FF000000
FF000000
FF0007F8
FF0007F8
FF0007F8
FF0007F8
FF0007F8
FF0007F8
FF0007F8
FF8007F8
FF8007F8
7F8007F8
7FC007F8
7FC007F8
3FE007F8
3FE007F8
3FF807F8
1FFE0FF8
0FFFFFF8
0FFFFFF8
07FFFFF8
03FFFFF8
00FFFFF8
003FFFE0
0007FE00
ENDCHAR
STARTCHAR 0048
ENCODING 72
SWIDTH 495 0
DWIDTH 33 0
BBX 27 41 3 0
BITMAP
FF001FE0
FF001FE0
FF001FE0
FF001FE0
FF001FE0
FF001FE0
FF001FE0
FF001FE0
FF001FE0
FF001FE0
FF001FE0
FF001FE0
FF001FE0
FF001FE0
FF001FE0
FF001FE0
FFFFFFE0
FFFFFFE0
FFFFFFE0
FFFFFFE0
FFFFFFE0
FFFFFFE0
FFFFFFE0
FF001FE0
FF001FE0
FF001FE0
FF001FE0
FF001FE0
FF001FE0
FF001FE0
FF001FE0
FF001FE0
FF001FE0
FF001FE0
FF001FE0
FF001FE0
FF001FE0
FF001FE0
FF001FE0
FF001FE0
FF001FE0
ENDCHAR
STARTCHAR 0049
ENCODING 73
SWIDTH 495 0
DWIDTH 33 0
BBX 26 41 4 0
BITMAP
FFFFFFC0
FFFFFFC0
FFFFFFC0
FFFFFFC0
FFFFFFC0
FFFFFFC0
FFFFFFC0
007F8000
007F8000
007F8000
007F8000
007F8000
007F8000
007F8000
007F8000
007F8000
007F8000
007F8000
007F8000
007F8000
007F8000
007F8000
007F8000
007F8000
007F8000
007F8000
007F8000
007F8000
007F8000
007F8000
007F8000
007F8000
007F8000
007F8000
FFFFFFC0
FFFFFFC0
FFFFFFC0
FFFFFFC0
FFFFFFC0
FFFFFFC0
FFFFFFC0
ENDCHAR
STARTCHAR 004A
ENCODING 74
SWIDTH 495 0
DWIDTH 33 0
BBX 26 42 3 -1
BITMAP
0FFFFFC0
0FFFFFC0
0FFFFFC0
0FFFFFC0
0FFFFFC0
0FFFFFC0
0FFFFFC0
00003FC0
00003FC0
00003FC0
00003FC0
00003FC0
00003FC0
00003FC0
00003FC0
00003FC0
00003FC0
00003FC0
00003FC0
00003FC0
00003FC0
00003FC0
00003FC0
00003FC0
00003FC0
00003FC0
00003FC0
00003FC0
00003FC0
00003FC0
00007FC0
00007FC0
1000FFC0
3C01FF80
3F8FFF80
7FFFFF00
7FFFFF00
FFFFFE00
FFFFFC00
3FFFF800
0FFFE000
01FF0000
ENDCHAR
STARTCHAR 004B
ENCODING 75
SWIDTH 495 0
DWIDTH 33 0
BBX 29 41 3 0
BITMAP
FF001FF0
FF003FE0
FF003FE0
FF007FC0
FF00FFC0
FF00FF80
FF01FF00
FF01FF00
FF03FE00
FF07FC00
FF07FC00
FF0FF800
FF1FF000
FF1FF000
FF3FE000
FF7FC000
FFFF8000
FFFF8000
FFFF0000
FFFF0000
FFFF8000
FFFFC000
FF7FE000
FF3FF000
FF3FF800
FF1FF800
FF0FFC00
FF07FE00
FF03FE00
FF03FF00
FF01FF80
FF00FF80
FF00FFC0
FF007FC0
FF007FE0
FF003FE0
FF003FF0
FF001FF0
FF001FF8
FF000FF8
FF000FF8
ENDCHAR
STARTCHAR 004C
ENCODING 76
SWIDTH 495 0
DWIDTH 33 0
BBX 26 41 5 0
BITMAP
FF000000
FF000000
FF000000
FF000000
FF000000
FF000000
FF000000
FF000000
FF000000
FF000000
FF000000
FF000000
FF000000
FF000000
FF000000
FF000000
FF000000
FF000000
FF000000
FF000000
FF000000
FF000000
FF000000
FF000000
FF000000
FF000000
FF000000
FF000000
FF000000
FF000000
FF000000
FF000000
FF000000
FF000000
FFFFFFC0
FFFFFFC0
FFFFFFC0
FFFFFFC0
FFFFFFC0
FFFFFFC0
FFFFFFC0
ENDCHAR
STARTCHAR 004D
ENCODING 77
SWIDTH 495 0
DWIDTH 33 0
BBX 30 41 2 0
BITMAP
3F800FE0
3F800FE0
3FC00FF0
3FC01FF0
7FC01FF0
7FE01FF0
7FE03FF0
7FE03FF0
7FF03FF0
7FF07FF0
7FF07DF0
7FF07DF0
7EF8FDF0
7EF8F9F0
7EF8F9F8
7E7DF9F8
7E7DF1F8
7E7DF1F8
7E7FF1F8
FE3FF1F8
FE3FE1F8
FE3FE3F8
FE1FE3F8
FE1FC3F8
FE1FC3F8
FE1FC3F8
FE0003F8
FE0003F8
FE0003F8
FE0003F8
FE0003F8
FE0003F8
FE0003FC
FE0003FC
FE0003FC
FE0003FC
FE0003FC
FE0003FC
FE0003FC
FE0003FC
FE0003FC
ENDCHAR
STARTCHAR 004E
ENCODING 78
SWIDTH 495 0
DWIDTH 33 0
BBX 27 41 3 0
BITMAP
FE000FE0
FF000FE0
FF000FE0
FF800FE0
FFC00FE0
FFC00FE0
FFE00FE0
FFE00FE0
FFF00FE0
FFF00FE0
FFF80FE0
FFF80FE0
FFFC0FE0
FFFC0FE0
FEFE0FE0
FEFE0FE0
FE7F0FE0
FE3F0FE0
FE3F8FE0
FE1F8FE0
FE1FCFE0
FE0FCFE0
FE0FEFE0
FE07EFE0
FE07FFE0
FE03FFE0
FE03FFE0
FE01FFE0
FE01FFE0
FE00FFE0
FE00FFE0
FE007FE0
FE007FE0
FE007FE0
FE003FE0
FE003FE0
FE001FE0
FE001FE0
FE000FE0
FE000FE0
FE000FE0
ENDCHAR
STARTCHAR 004F
ENCODING 79
SWIDTH 495 0
DWIDTH 33 0
BBX 30 43 2 -1
BITMAP
003FE000
00FFFC00
03FFFE00
07FFFF00
0FFFFF80
0FFFFFC0
1FFFFFE0
3FF07FE0
3FE03FE0
7FC01FF0
7FC00FF0
7F800FF0
7F800FF8
FF8007F8
FF8007F8
FF0007F8
FF0007F8
FF0007F8
FF0007F8
FF0007F8
FF0007FC
FF0007FC
FF0007FC
FF0007F8
FF0007F8
FF0007F8
FF0007F8
FF0007F8
FF8007F8
FF8007F8
7F800FF8
7F800FF0
7FC00FF0
3FC01FF0
3FE03FE0
3FF8FFE0
1FFFFFC0
0FFFFFC0
0FFFFF80
07FFFF00
01FFFE00
00FFF800
001FC000
ENDCHAR
STARTCHAR 0050
ENCODING 80
SWIDTH 495 0
DWIDTH 33 0
BBX 27 42 4 0
BITMAP
07FE0000
FFFFE000
FFFFFC00
FFFFFE00
FFFFFF00
FFFFFF80
FFFFFFC0
FF87FFC0
FF00FFE0
FF003FE0
FF003FE0
FF001FE0
FF001FE0
FF001FE0
FF001FE0
FF001FE0
FF001FE0
FF003FE0
FF003FE0
FF007FE0
FF01FFC0
FFFFFFC0
FFFFFF80
FFFFFF80
FFFFFE00
FFFFFC00
FFFFF000
FFFF8000
FF000000
FF000000
FF000000
FF000000
FF000000
FF000000
FF000000
FF000000
FF000000
FF000000
FF000000
FF000000
FF000000
FF000000
ENDCHAR
STARTCHAR 0051
ENCODING 81
SWIDTH 495 0
DWIDTH 33 0
BBX 30 53 2 -11
BITMAP
001FE000
00FFF800
01FFFE00
07FFFF00
0FFFFF80
0FFFFFC0
1FFFFFC0
3FF87FE0
3FE03FE0
3FC01FF0
7FC00FF0
7F800FF0
7F800FF8
FF8007F8
FF8007F8
FF0007F8
FF0007F8
FF0007F8
FF0007F8
FF0007F8
FF0007FC
FF0007FC
FF0007FC
FF0007FC
FF0007F8
FF0007F8
FF0007F8
FF0007F8
FF8007F8
FF8007F8
7F800FF8
7F800FF0
7FC00FF0
3FC01FF0
3FE03FE0
3FF07FE0
1FFFFFC0
0FFFFFC0
0FFFFF80
07FFFF00
03FFFE00
00FFF800
001FE000
001FC000
001FE000
000FF800
000FFF80
0007FFF8
0003FFF8
0001FFF8
00007FF0
00001FF0
000001F0
ENDCHAR
STARTCHAR 0052
ENCODING 82
SWIDTH 495 0
DWIDTH 33 0
BBX 28 42 4 0
BITMAP
07FC0000
FFFFC000
FFFFF000
FFFFFC00
FFFFFE00
FFFFFE00
FFFFFF00
FF9FFF80
FF01FF80
FF00FF80
FF007FC0
FF007FC0
FF007FC0
FF003FC0
FF007FC0
FF007FC0
FF007FC0
FF00FF80
FF01FF80
FF07FF80
FFFFFF00
FFFFFF00
FFFFFE00
FFFFFC00
FFFFF000
FFFFF000
FFFFF800
FF0FF800
FF07FC00
FF03FC00
FF03FE00
FF01FF00
FF01FF00
FF00FF80
FF007F80
FF007FC0
FF003FC0
FF003FE0
FF001FE0
FF001FF0
FF001FF0
FF000FF0
ENDCHAR
STARTCHAR 0053
ENCODING 83
SWIDTH 495 0
DWIDTH 33 0
BBX 28 43 3 -1
BITMAP
007FF000
03FFFE00
07FFFFC0
0FFFFF80
1FFFFF80
3FFFFF80
7FFFFF00
7FE00F00
7F800100
FF800000
FF800000
FF000000
FF800000
FF800000
FFC00000
7FE00000
7FFC0000
3FFF0000
3FFFE000
1FFFF800
0FFFFE00
03FFFF00
00FFFF80
003FFFC0
0007FFC0
0001FFE0
00007FE0
00003FE0
00001FF0
00001FF0
00001FF0
00001FF0
00001FF0
20001FE0
38003FE0
7F00FFE0
7FFFFFC0
FFFFFFC0
FFFFFF80
FFFFFF00
7FFFFE00
1FFFF800
01FF8000
ENDCHAR
STARTCHAR 0054
ENCODING 84
SWIDTH 495 0
DWIDTH 33 0
BBX 30 41 2 0
BITMAP
FFFFFFFC
FFFFFFFC
FFFFFFFC
FFFFFFFC
FFFFFFFC
FFFFFFFC
FFFFFFFC
001FE000
001FE000
001FE000
001FE000
001FE000
001FE000
001FE000
001FE000
001FE000
001FE000
001FE000
001FE000
001FE000
001FE000
001FE000
001FE000
001FE000
001FE000
001FE000
001FE000
001FE000
001FE000
001FE000
001FE000
001FE000
001FE000
001FE000
001FE000
001FE000
001FE000
001FE000
001FE000
001FE000
001FE000
ENDCHAR
STARTCHAR 0055
ENCODING 85
SWIDTH 495 0
DWIDTH 33 0
BBX 28 42 3 -1
BITMAP
FF000FF0
FF000FF0
FF000FF0
FF000FF0
FF000FF0
FF000FF0
FF000FF0
FF000FF0
FF000FF0
FF000FF0
FF000FF0
FF000FF0
FF000FF0
FF000FF0
FF000FF0
FF000FF0
FF000FF0
FF000FF0
FF000FF0
FF000FF0
FF000FF0
FF000FF0
FF000FF0
FF000FF0
FF000FF0
FF000FF0
FF001FF0
FF001FF0
FF001FF0
FF001FF0
FF001FE0
FF001FE0
FF803FE0
FFC03FE0
7FF1FFC0
7FFFFFC0
3FFFFFC0
3FFFFF80
1FFFFF00
0FFFFE00
03FFF800
007FC000
ENDCHAR
STARTCHAR 0056
ENCODING 86
SWIDTH 495 0
DWIDTH 33 0
BBX 31 41 1 0
BITMAP
FF8001FE
FF8001FE
FF8003FE
7F8003FE
7F8003FE
7F8003FC
7FC003FC
3FC003FC
3FC007FC
3FC007F8
3FC007F8
1FE007F8
1FE007F8
1FE00FF0
1FE00FF0
0FE00FF0
0FF00FF0
0FF00FE0
0FF01FE0
07F01FE0
07F81FE0
07F81FC0
03F83FC0
03F83FC0
03F83F80
03FC3F80
01FC7F80
01FC7F00
01FE7F00
00FE7F00
00FEFE00
00FEFE00
007FFE00
007FFE00
007FFC00
003FFC00
003FF800
003FF800
001FF800
001FF000
001FF000
ENDCHAR
STARTCHAR 0057
ENCODING 87
SWIDTH 495 0
DWIDTH 33 0
BBX 30 41 2 0
BITMAP
FE0003FC
FE0003FC
FE0003FC
FE0003FC
FE0003FC
FE0003FC
FE0003FC
FE0003FC
FE0003F8
FE0003F8
FE0003F8
FE0003F8
FE0003F8
FE0003F8
FE0FC3F8
FE1FC3F8
FE1FC3F8
FE1FE3F8
FE1FE3F8
FE3FE3F8
FE3FE3F8
FE3FF3F8
FE7FF3F8
7E7FF3F8
7E7DF9F8
7E7CF9F8
7EFCF9F8
7EF8F9F8
7EF87DF0
7FF87DF0
7FF07DF0
7FF03FF0
7FF03FF0
7FE03FF0
7FE01FF0
7FE01FF0
3FC01FF0
3FC01FF0
3FC00FF0
3F800FF0
3F800FF0
ENDCHAR
STARTCHAR 0058
ENCODING 88
SWIDTH 495 0
DWIDTH 33 0
BBX 31 41 1 0
BITMAP
7FC003FE
7FC003FC
3FE007F8
3FE007F8
1FF00FF0
0FF00FF0
0FF81FE0
07F81FE0
07FC3FC0
03FC3FC0
03FE7F80
01FE7F80
01FFFF00
00FFFE00
007FFE00
007FFC00
003FFC00
003FF800
001FF800
001FF800
003FF800
003FFC00
007FFE00
007FFE00
00FFFF00
00FFFF00
01FEFF80
01FE7F80
03FC7FC0
07FC3FC0
07F83FE0
0FF81FE0
0FF01FF0
1FF00FF0
1FE00FF8
3FE00FF8
3FE007FC
7FC007FC
7FC003FE
FF8003FE
FF8001FE
ENDCHAR
STARTCHAR 0059
ENCODING 89
SWIDTH 495 0
DWIDTH 33 0
BBX 31 41 1 0
BITMAP
FF8001FE
7F8003FE
7FC003FC
7FC003FC
3FC007FC
3FE007F8
1FE007F8
1FE00FF8
1FF00FF0
0FF00FF0
0FF01FE0
07F81FE0
07F81FC0
03FC3FC0
03FC3FC0
03FE7F80
01FE7F80
01FEFF00
00FFFF00
00FFFE00
007FFC00
007FFC00
003FF800
001FF800
001FF000
000FF000
000FF000
000FF000
000FF000
000FF000
000FF000
000FF000
000FF000
000FF000
000FF000
000FF000
000FF000
000FF000
000FF000
000FF000
000FF000
ENDCHAR
STARTCHAR 005A
ENCODING 90
SWIDTH 495 0
DWIDTH 33 0
BBX 27 41 3 0
BITMAP
7FFFFFE0
7FFFFFE0
7FFFFFE0
7FFFFFE0
7FFFFFE0
7FFFFFE0
7FFFFFC0
0000FF80
0000FF80
0001FF00
0003FE00
0003FE00
0007FC00
0007FC00
000FF800
000FF000
001FF000
003FE000
003FC000
007FC000
007F8000
00FF8000
01FF0000
01FF0000
03FE0000
03FC0000
07FC0000
07F80000
0FF80000
0FF00000
1FF00000
1FE00000
3FC00000
7FC00000
7FFFFFE0
FFFFFFE0
FFFFFFE0
FFFFFFE0
FFFFFFE0
FFFFFFE0
FFFFFFE0
ENDCHAR
STARTCHAR 005B
ENCODING 91
SWIDTH 495 0
DWIDTH 33 0
BBX 18 58 8 -11
BITMAP
FFFFC0
FFFFC0
FFFFC0
FFFFC0
FFFFC0
FFFFC0
FFFFC0
FE0000
FE0000
FE0000
FE0000
FE0000
FE0000
FE0000
FE0000
FE0000
FE0000
FE0000
FE0000
FE0000
FE0000
FE0000
FE0000
FE0000
FE0000
FE0000
FE0000
FE0000
FE0000
FE0000
FE0000
FE0000
FE0000
FE0000
FE0000
FE0000
FE0000
FE0000
FE0000
FE0000
FE0000
FE0000
FE0000
FE0000
FE0000
FE0000
FE0000
FE0000
FE0000
FE0000
FE0000
FE0000
FFFFC0
FFFFC0
FFFFC0
FFFFC0
FFFFC0
FFFFC0
ENDCHAR
STARTCHAR 005C
ENCODING 92
SWIDTH 495 0
DWIDTH 33 0
BBX 27 58 3 -11
BITMAP
FF800000
7F800000
7F800000
7FC00000
3FC00000
3FC00000
3FE00000
1FE00000
1FE00000
1FF00000
0FF00000
0FF00000
0FF80000
07F80000
07F80000
07FC0000
07FC0000
03FC0000
03FE0000
03FE0000
01FE0000
01FF0000
01FF0000
00FF0000
00FF0000
00FF8000
007F8000
007F8000
007FC000
003FC000
003FC000
003FE000
001FE000
001FE000
001FF000
000FF000
000FF000
000FF800
0007F800
0007F800
0007FC00
0003FC00
0003FC00
0003FE00
0001FE00
0001FE00
0001FF00
0001FF00
0000FF00
0000FF80
0000FF80
00007F80
00007FC0
00007FC0
00003FC0
00003FE0
00003FE0
00001FE0
ENDCHAR
STARTCHAR 005D
ENCODING 93
SWIDTH 495 0
DWIDTH 33 0
BBX 19 58 7 -11
BITMAP
FFFFE0
FFFFE0
FFFFE0
FFFFE0
FFFFE0
FFFFE0
FFFFE0
001FE0
001FE0
001FE0
001FE0
001FE0
001FE0
001FE0
001FE0
001FE0
001FE0
001FE0
001FE0
001FE0
001FE0
001FE0
001FE0
001FE0
001FE0
001FE0
001FE0
001FE0
001FE0
001FE0
001FE0
001FE0
001FE0
001FE0
001FE0
001FE0
001FE0
001FE0
001FE0
001FE0
001FE0
001FE0
001FE0
001FE0
001FE0
001FE0
001FE0
001FE0
001FE0
001FE0
001FE0
001FE0
FFFFE0
FFFFE0
FFFFE0
FFFFE0
FFFFE0
FFFFE0
ENDCHAR
STARTCHAR 005E
ENCODING 94
SWIDTH 495 0
DWIDTH 33 0
BBX 32 24 1 17
BITMAP
000FF000
001FF000
001FF800
003FFC00
003FFC00
007FFE00
00FFFE00
00FFFF00
01FFFF80
01FFFF80
03FE7FC0
07FE7FC0
07FC3FE0
0FFC3FF0
0FF81FF0
1FF01FF8
3FF00FF8
3FE007FC
7FE007FE
7FC003FE
FFC003FF
3F8001F8
0F0001E0
03000080
ENDCHAR
STARTCHAR 005F
ENCODING 95
SWIDTH 495 0
DWIDTH 33 0
BBX 32 7 1 -11
BITMAP
FFFFFFFF
FFFFFFFF
FFFFFFFF
FFFFFFFF
FFFFFFFF
FFFFFFFF
FFFFFFFF
ENDCHAR
STARTCHAR 0060
ENCODING 96
SWIDTH 495 0
DWIDTH 33 0
BBX 14 12 11 34
BITMAP
1000
3800
3E00
7F00
FFC0
FFE0
FFF8
3FFC
0FF8
03F0
00F0
0020
ENDCHAR
STARTCHAR 0061
ENCODING 97
SWIDTH 495 0
DWIDTH 33 0
BBX 26 33 3 -1
BITMAP
03FFE000
1FFFF800
1FFFFE00
1FFFFF00
1FFFFF00
0FFFFF80
0FFFFF80
0800FFC0
00007FC0
00003FC0
00003FC0
00003FC0
00001FC0
01FFFFC0
0FFFFFC0
1FFFFFC0
3FFFFFC0
7FFFFFC0
7FF8FFC0
FF801FC0
FF001FC0
FF001FC0
FF001FC0
FF001FC0
FF801FC0
FFC01FC0
7FFFFFC0
7FFFFFC0
3FFFFFC0
3FFFFFC0
0FFFFFC0
07FFFF80
003FC000
ENDCHAR
STARTCHAR 0062
ENCODING 98
SWIDTH 495 0
DWIDTH 33 0
BBX 27 47 4 -1
BITMAP
0F000000
FF000000
FF000000
FF000000
FF000000
FF000000
FF000000
FF000000
FF000000
FF000000
FF000000
FF000000
FF000000
FF000000
FF1FE000
FFFFF800
FFFFFC00
FFFFFE00
FFFFFF00
FFFFFF80
FFFFFF80
FFC1FFC0
FF007FC0
FF003FC0
FF003FE0
FF003FE0
FF001FE0
FF001FE0
FF001FE0
FF001FE0
FF001FE0
FF001FE0
FF001FE0
FF001FE0
FF001FE0
FF003FE0
FF003FE0
FF007FC0
FF00FFC0
FFC3FF80
FFFFFF80
FFFFFF00
FFFFFE00
FFFFFC00
FFFFF800
3FFFE000
017E0000
ENDCHAR
STARTCHAR 0063
ENCODING 99
SWIDTH 495 0
DWIDTH 33 0
BBX 28 33 3 -1
BITMAP
000FFF00
007FFFE0
01FFFFE0
03FFFFE0
0FFFFFE0
0FFFFFC0
1FFFFFC0
3FFC01C0
3FF00000
7FE00000
7FC00000
7F800000
FF800000
FF800000
FF000000
FF000000
FF000000
FF000000
FF000000
FF800000
FF800000
7F800000
7FC00000
7FE00000
3FF80000
3FFF8FE0
1FFFFFE0
0FFFFFE0
07FFFFF0
03FFFFF0
00FFFFF0
003FFFE0
0001FA00
ENDCHAR
STARTCHAR 0064
ENCODING 100
SWIDTH 495 0
DWIDTH 33 0
BBX 27 47 2 -1
BITMAP
000003E0
00003FE0
00003FE0
00003FE0
00003FE0
00003FE0
00003FE0
00003FE0
00003FE0
00003FE0
00003FE0
00003FE0
00003FE0
00003FE0
007F3FE0
03FFFFE0
07FFFFE0
0FFFFFE0
1FFFFFE0
3FFFFFE0
3FFFFFE0
7FF0FFE0
7FC03FE0
7F803FE0
FF803FE0
FF803FE0
FF003FE0
FF003FE0
FF003FE0
FF003FE0
FF003FE0
FF003FE0
FF003FE0
FF003FE0
FF803FE0
FF803FE0
7F803FE0
7FC03FE0
7FE03FE0
3FF83FE0
3FFFFFE0
1FFFFFE0
0FFFFFE0
07FFFFE0
03FFFFE0
00FFFF80
000FC000
ENDCHAR
STARTCHAR 0065
ENCODING 101
SWIDTH 495 0
DWIDTH 33 0
BBX 29 33 2 -1
BITMAP
001FF000
00FFFC00
01FFFF00
07FFFF80
0FFFFFC0
1FFFFFE0
1FFFFFE0
3FF03FF0
3FE01FF0
7FC00FF0
7F8007F0
7F8007F8
FF8007F8
FFFFFFF8
FFFFFFF8
FFFFFFF8
FFFFFFF8
FFFFFFF8
FFFFFFF8
FF800000
FF800000
7F800000
7FC00000
7FE00000
3FF000C0
3FFF9FC0
1FFFFFC0
0FFFFFE0
07FFFFE0
03FFFFE0
01FFFFE0
007FFFC0
0007F800
ENDCHAR
STARTCHAR 0066
ENCODING 102
SWIDTH 495 0
DWIDTH 33 0
BBX 31 46 2 0
BITMAP
0001FFE0
0007FFFC
001FFFFE
003FFFFC
003FFFFC
007FFFFC
00FFFFFC
00FFC03C
00FF8000
01FF0000
01FF0000
01FF0000
01FF0000
01FF0000
01FF0000
FFFFFFF0
FFFFFFF0
FFFFFFF0
FFFFFFF0
FFFFFFF0
FFFFFFF0
01FF0000
01FF0000
01FF0000
01FF0000
01FF0000
01FF0000
01FF0000
01FF0000
01FF0000
01FF0000
01FF0000
01FF0000
01FF0000
01FF0000
01FF0000
01FF0000
01FF0000
01FF0000
01FF0000
01FF0000
01FF0000
01FF0000
01FF0000
01FF0000
01FF0000
ENDCHAR
STARTCHAR 0067
ENCODING 103
SWIDTH 495 0
DWIDTH 33 0
BBX 27 43 2 -11
BITMAP
001FFC00
00FFFFE0
03FFFFE0
07FFFFE0
0FFFFFE0
1FFFFFE0
3FFFFFE0
3FF01FE0
7FE01FE0
7FC01FE0
7F801FE0
FF801FE0
FF801FE0
FF801FE0
FF801FE0
FF801FE0
FF801FE0
FF801FE0
FF801FE0
7F801FE0
7F801FE0
7FC01FE0
7FE03FE0
3FFFFFE0
3FFFFFE0
1FFFFFE0
0FFFFFE0
07FFFFE0
03FFFFE0
007F1FE0
00001FE0
00001FE0
00001FE0
00003FE0
20007FC0
3C00FFC0
3FFFFFC0
3FFFFF80
7FFFFF00
7FFFFF00
7FFFFC00
3FFFF800
07FFC000
ENDCHAR
STARTCHAR 0068
ENCODING 104
SWIDTH 495 0
DWIDTH 33 0
BBX 25 46 4 0
BITMAP
0F000000
FF000000
FF000000
FF000000
FF000000
FF000000
FF000000
FF000000
FF000000
FF000000
FF000000
FF000000
FF000000
FF000000
FF3F8000
FFFFF000
FFFFF800
FFFFFC00
FFFFFE00
FFFFFF00
FFFFFF00
FFC3FF80
FF00FF80
FF00FF80
FF007F80
FF007F80
FF007F80
FF007F80
FF007F80
FF007F80
FF007F80
FF007F80
FF007F80
FF007F80
FF007F80
FF007F80
FF007F80
FF007F80
FF007F80
FF007F80
FF007F80
FF007F80
FF007F80
FF007F80
FF007F80
FF007F80
ENDCHAR
STARTCHAR 0069
ENCODING 105
SWIDTH 495 0
DWIDTH 33 0
BBX 29 47 2 -1
BITMAP
00100000
00FE0000
01FF0000
01FF8000
01FF8000
01FF8000
01FF8000
01FF8000
01FF0000
00FE0000
003C0000
00000000
00000000
00000000
00000000
FFFF8000
FFFF8000
FFFF8000
FFFF8000
FFFF8000
FFFF8000
007F8000
007F8000
007F8000
007F8000
007F8000
007F8000
007F8000
007F8000
007F8000
007F8000
007F8000
007F8000
007F8000
007F8000
007F8000
007FC000
007FC000
003FE010
003FF9F0
003FFFF0
003FFFF8
001FFFF8
000FFFF8
0007FFF8
0003FFE0
00007C00
ENDCHAR
STARTCHAR 006A
ENCODING 106
SWIDTH 495 0
DWIDTH 33 0
BBX 24 57 3 -11
BITMAP
000040
0003F8
0007FC
0007FC
000FFE
000FFE
000FFE
0007FC
0007FC
0003F8
0001F0
000000
000000
000000
000000
1FFFFF
1FFFFF
1FFFFF
1FFFFF
1FFFFF
1FFFFF
0001FF
0001FF
0001FF
0001FF
0001FF
0001FF
0001FF
0001FF
0001FF
0001FF
0001FF
0001FF
0001FF
0001FF
0001FF
0001FF
0001FF
0001FF
0001FF
0001FF
0001FF
0001FF
0001FF
0001FF
0001FF
0001FF
0001FE
3801FE
3E03FE
3FFFFE
7FFFFC
7FFFFC
7FFFF8
FFFFF0
3FFFE0
07FF80
ENDCHAR
STARTCHAR 006B
ENCODING 107
SWIDTH 495 0
DWIDTH 33 0
BBX 28 46 4 0
BITMAP
0F000000
FF000000
FF000000
FF000000
FF000000
FF000000
FF000000
FF000000
FF000000
FF000000
FF000000
FF000000
FF000000
FF000000
FF000000
FF007FE0
FF00FFC0
FF00FF80
FF01FF00
FF03FE00
FF03FC00
FF07FC00
FF0FF800
FF1FF000
FF1FE000
FF3FC000
FF7F8000
FFFF0000
FFFE0000
FFFF0000
FFFF8000
FF7FC000
FF3FE000
FF1FF000
FF1FF800
FF0FF800
FF07FC00
FF03FE00
FF03FF00
FF01FF00
FF00FF80
FF00FFC0
FF007FC0
FF003FE0
FF003FF0
FF001FF0
ENDCHAR
STARTCHAR 006C
ENCODING 108
SWIDTH 495 0
DWIDTH 33 0
BBX 29 47 2 -1
BITMAP
FFFF8000
FFFF8000
FFFF8000
FFFF8000
FFFF8000
FFFF8000
FFFF8000
007F8000
007F8000
007F8000
007F8000
007F8000
007F8000
007F8000
007F8000
007F8000
007F8000
007F8000
007F8000
007F8000
007F8000
007F8000
007F8000
007F8000
007F8000
007F8000
007F8000
007F8000
007F8000
007F8000
007F8000
007F8000
007F8000
007F8000
007F8000
007F8000
007F8000
007FC000
003FE010
003FF9F0
003FFFF0
001FFFF8
001FFFF8
000FFFF8
0007FFF8
0003FFE0
00007E00
ENDCHAR
STARTCHAR 006D
ENCODING 109
SWIDTH 495 0
DWIDTH 33 0
BBX 29 32 2 0
BITMAP
00F01E00
7FFCFFC0
FFFFFFE0
FFFFFFF0
FFFFFFF0
FFFFFFF8
FFFFFFF8
FE3FC7F8
FE1FC3F8
FE1FC3F8
FE1FC1F8
FE1FC1F8
FE1FC1F8
FE1FC1F8
FE1FC1F8
FE1FC1F8
FE1FC1F8
FE1FC1F8
FE1FC1F8
FE1FC1F8
FE0001F8
FE0001F8
FE0001F8
FE0001F8
FE0001F8
FE0001F8
FE0001F8
FE0001F8
FE0001F8
FE0001F8
FE0001F8
FE0001F8
ENDCHAR
STARTCHAR 006E
ENCODING 110
SWIDTH 495 0
DWIDTH 33 0
BBX 25 32 4 0
BITMAP
03FF8000
7FFFF000
FFFFF800
FFFFFC00
FFFFFE00
FFFFFF00
FFFFFF00
FF03FF80
FF00FF80
FF00FF80
FF007F80
FF007F80
FF007F80
FF007F80
FF007F80
FF007F80
FF007F80
FF007F80
FF007F80
FF007F80
FF007F80
FF007F80
FF007F80
FF007F80
FF007F80
FF007F80
FF007F80
FF007F80
FF007F80
FF007F80
FF007F80
FF007F80
ENDCHAR
STARTCHAR 006F
ENCODING 111
SWIDTH 495 0
DWIDTH 33 0
BBX 29 33 2 -1
BITMAP
003FE000
00FFFC00
03FFFE00
07FFFF00
0FFFFF80
1FFFFFC0
3FFFFFE0
3FF07FF0
7FE01FF0
7FC00FF0
7F800FF8
FF800FF8
FF8007F8
FF0007F8
FF0007F8
FF0007F8
FF0007F8
FF0007F8
FF0007F8
FF8007F8
FF8007F8
7F800FF8
7F800FF8
7FC01FF0
3FE03FF0
3FF8FFE0
1FFFFFE0
1FFFFFC0
0FFFFF80
07FFFF00
01FFFE00
00FFF800
001FC000
ENDCHAR
STARTCHAR 0070
ENCODING 112
SWIDTH 495 0
DWIDTH 33 0
BBX 27 43 4 -11
BITMAP
03FF8000
7FFFF000
FFFFF800
FFFFFE00
FFFFFE00
FFFFFF00
FFFFFF80
FF01FF80
FF00FFC0
FF007FC0
FF003FE0
FF003FE0
FF003FE0
FF001FE0
FF001FE0
FF001FE0
FF001FE0
FF001FE0
FF001FE0
FF001FE0
FF001FE0
FF003FE0
FF003FE0
FF007FC0
FF007FC0
FFF1FFC0
FFFFFF80
FFFFFF80
FFFFFF00
FFFFFE00
FFFFFC00
FF7FF000
FF07C000
FF000000
FF000000
FF000000
FF000000
FF000000
FF000000
FF000000
FF000000
FF000000
FF000000
ENDCHAR
STARTCHAR 0071
ENCODING 113
SWIDTH 495 0
DWIDTH 33 0
BBX 27 43 2 -11
BITMAP
001FFC00
00FFFFE0
03FFFFE0
07FFFFE0
0FFFFFE0
1FFFFFE0
3FFFFFE0
3FF81FE0
7FE01FE0
7FC01FE0
7FC01FE0
7F801FE0
FF801FE0
FF801FE0
FF801FE0
FF001FE0
FF001FE0
FF001FE0
FF001FE0
FF801FE0
FF801FE0
FF801FE0
7F801FE0
7FC01FE0
7FE01FE0
3FF8FFE0
3FFFFFE0
1FFFFFE0
1FFFFFE0
0FFFFFE0
07FFFFE0
01FFDFE0
003C1FE0
00001FE0
00001FE0
00001FE0
00001FE0
00001FE0
00001FE0
00001FE0
00001FE0
00001FE0
00001FE0
ENDCHAR
STARTCHAR 0072
ENCODING 114
SWIDTH 495 0
DWIDTH 33 0
BBX 25 32 6 0
BITMAP
00FFF000
0FFFFF80
7FFFFF00
FFFFFF00
FFFFFF00
FFFFFF00
FFFFFF00
FFFFFE00
FF800600
FF000000
FF000000
FF000000
FF000000
FF000000
FF000000
FF000000
FF000000
FF000000
FF000000
FF000000
FF000000
FF000000
FF000000
FF000000
FF000000
FF000000
FF000000
FF000000
FF000000
FF000000
FF000000
FF000000
ENDCHAR
STARTCHAR 0073
ENCODING 115
SWIDTH 495 0
DWIDTH 33 0
BBX 25 33 4 -1
BITMAP
00FFF000
03FFFF00
0FFFFF00
1FFFFF00
3FFFFF00
7FFFFE00
7FFFFE00
7FC01E00
FF800200
FF800000
FF800000
7FC00000
7FF80000
7FFF0000
3FFFC000
1FFFF000
0FFFFC00
03FFFE00
00FFFF00
001FFF80
0003FF80
0000FF80
00007F80
00007F80
70007F80
FF03FF80
FFFFFF80
FFFFFF00
FFFFFF00
FFFFFE00
FFFFFC00
1FFFF000
01FE0000
ENDCHAR
STARTCHAR 0074
ENCODING 116
SWIDTH 495 0
DWIDTH 33 0
BBX 29 41 2 0
BITMAP
007F0000
00FF0000
00FF0000
00FF0000
00FF0000
00FF0000
00FF0000
00FF0000
00FF0000
FFFFFFF8
FFFFFFF8
FFFFFFF8
FFFFFFF8
FFFFFFF8
FFFFFFF8
00FF0000
00FF0000
00FF0000
00FF0000
00FF0000
00FF0000
00FF0000
00FF0000
00FF0000
00FF0000
00FF0000
00FF0000
00FF0000
00FF0000
00FF0000
00FF0000
00FF0000
00FF8010
00FFE1F8
00FFFFF8
007FFFF8
007FFFF8
003FFFF8
001FFFF8
000FFFF0
00007F00
ENDCHAR
STARTCHAR 0075
ENCODING 117
SWIDTH 495 0
DWIDTH 33 0
BBX 25 32 4 -1
BITMAP
FF007F80
FF007F80
FF007F80
FF007F80
FF007F80
FF007F80
FF007F80
FF007F80
FF007F80
FF007F80
FF007F80
FF007F80
FF007F80
FF007F80
FF007F80
FF007F80
FF007F80
FF007F80
FF007F80
FF007F80
FF807F80
FF807F80
FF807F80
7FC07F80
7FF3FF80
7FFFFF80
3FFFFF80
3FFFFF80
1FFFFF80
0FFFFF80
03FFFE00
003F8000
ENDCHAR
STARTCHAR 0076
ENCODING 118
SWIDTH 495 0
DWIDTH 33 0
BBX 31 31 1 0
BITMAP
FF8001FE
FF8001FE
7F8003FE
7FC003FC
7FC003FC
3FC007FC
3FC007F8
3FE007F8
1FE00FF8
1FE00FF0
1FF00FF0
0FF01FE0
0FF01FE0
0FF81FE0
07F83FC0
07F83FC0
03FC7F80
03FC7F80
03FC7F80
01FEFF00
01FEFF00
00FFFE00
00FFFE00
00FFFC00
007FFC00
007FF800
003FF800
003FF800
001FF000
001FF000
000FE000
ENDCHAR
STARTCHAR 0077
ENCODING 119
SWIDTH 495 0
DWIDTH 33 0
BBX 32 31 1 0
BITMAP
FE00007F
FE00007E
FE0000FE
FE0000FE
FE0000FE
FE0000FE
FE07E0FE
FE0FE0FE
7E0FE0FE
7E0FF0FE
7E0FF0FC
7E0FF0FC
7E1FF0FC
7E1FF8FC
7F1FF8FC
7F3FF8FC
3F3FF8FC
3F3EFCF8
3F3EFDF8
3F7EFDF8
3F7C7DF8
3F7C7FF8
1FFC7FF8
1FF83FF0
1FF83FF0
1FF83FF0
1FF01FF0
0FF01FF0
0FF00FE0
0FE00FE0
0FE00FE0
ENDCHAR
STARTCHAR 0078
ENCODING 120
SWIDTH 495 0
DWIDTH 33 0
BBX 30 31 2 0
BITMAP
FF8007F8
7F800FF0
7FC01FF0
3FE01FE0
1FE03FC0
0FF03FC0
0FF87F80
07FCFF00
03FCFF00
01FFFE00
01FFFC00
00FFFC00
007FF800
007FF000
003FF000
003FF000
007FF800
00FFFC00
00FFFC00
01FFFE00
03FDFF00
07FCFF00
07F8FF80
0FF07FC0
1FE03FC0
1FE03FE0
3FC01FF0
7FC00FF0
7F800FF8
FF0007F8
FF0007FC
ENDCHAR
STARTCHAR 0079
ENCODING 121
SWIDTH 495 0
DWIDTH 33 0
BBX 30 42 1 -11
BITMAP
3FC003FC
3FC003FC
3FE007FC
1FE007F8
1FE007F8
1FF007F8
1FF007F8
0FF00FF0
0FF00FF0
0FF80FF0
07F80FE0
07F81FE0
07FC1FE0
03FC1FE0
03FC1FC0
03FE3FC0
01FE3FC0
01FE3F80
00FF3F80
00FF7F80
00FFFF00
007FFF00
007FFF00
003FFE00
003FFE00
001FFC00
001FFC00
000FFC00
000FF800
0007F800
000FF000
000FF000
001FF000
003FE000
207FE000
3FFFC000
7FFF8000
7FFF8000
7FFF0000
7FFE0000
FFFC0000
3FF00000
ENDCHAR
STARTCHAR 007A
ENCODING 122
SWIDTH 495 0
DWIDTH 33 0
BBX 25 31 4 0
BITMAP
7FFFFF00
7FFFFF00
7FFFFF00
7FFFFF00
7FFFFF00
7FFFFF00
0003FF00
0007FE00
0007FC00
000FF800
001FF000
003FF000
003FE000
007FC000
00FF8000
01FF0000
01FF0000
03FE0000
07FC0000
07FC0000
0FF80000
1FF00000
1FE00000
3FE00000
7FFFFF80
7FFFFF80
FFFFFF80
FFFFFF80
FFFFFF80
FFFFFF80
FFFFFF80
ENDCHAR
STARTCHAR 007B
ENCODING 123
SWIDTH 495 0
DWIDTH 33 0
BBX 25 58 4 -11
BITMAP
0000FF80
000FFF80
003FFF80
007FFF80
007FFF80
00FFFF80
00FFFF80
00FF8000
00FF0000
00FE0000
00FE0000
00FE0000
00FE0000
00FE0000
00FE0000
00FE0000
00FE0000
00FE0000
00FE0000
00FE0000
00FE0000
00FE0000
01FE0000
01FE0000
01FC0000
03FC0000
FFF80000
FFF00000
FFE00000
FF800000
FFF00000
FFF80000
0FFC0000
03FC0000
01FE0000
01FE0000
00FE0000
00FE0000
00FE0000
00FE0000
00FE0000
00FE0000
00FE0000
00FE0000
00FE0000
00FE0000
00FE0000
00FE0000
00FE0000
00FF0000
00FF0000
00FFC000
00FFFF80
007FFF80
007FFF80
003FFF80
001FFF80
0003FF80
ENDCHAR
STARTCHAR 007C
ENCODING 124
SWIDTH 495 0
DWIDTH 33 0
BBX 8 58 13 -11
BITMAP
FF
FF
FF
FF
FF
FF
FF
FF
FF
FF
FF
FF
FF
FF
FF
FF
FF
FF
FF
FF
FF
FF
FF
FF
FF
FF
FF
FF
FF
FF
FF
FF
FF
FF
FF
FF
FF
FF
FF
FF
FF
FF
FF
FF
FF
FF
FF
FF
FF
FF
FF
FF
FF
FF
FF
FF
FF
FF
ENDCHAR
STARTCHAR 007D
ENCODING 125
SWIDTH 495 0
DWIDTH 33 0
BBX 25 58 4 -11
BITMAP
FF800000
FFF80000
FFFE0000
FFFF0000
FFFF0000
FFFF8000
FFFF8000
007F8000
007FC000
003FC000
003FC000
003FC000
003FC000
003FC000
003FC000
003FC000
003FC000
003FC000
003FC000
003FC000
003FC000
003FC000
003FC000
003FC000
001FC000
001FE000
000FFF80
0007FF80
0001FF80
0000FF80
0007FF80
000FFF80
001FF800
001FE000
001FC000
003FC000
003FC000
003FC000
003FC000
003FC000
003FC000
003FC000
003FC000
003FC000
003FC000
003FC000
003FC000
003FC000
003FC000
003FC000
007F8000
01FF8000
FFFF8000
FFFF8000
FFFF0000
FFFE0000
FFFC0000
FFE00000
ENDCHAR
STARTCHAR 007E
ENCODING 126
SWIDTH 495 0
DWIDTH 33 0
BBX 31 13 1 11
BITMAP
00F00040
03FC0078
0FFF007E
1FFFC0FE
1FFFF1FE
3FFFFFFE
3FFFFFFC
7FFFFFFC
7F0FFFF8
7F03FFF0
FE00FFE0
1E003FC0
00000600
ENDCHAR
STARTCHAR 00A0
ENCODING 160
SWIDTH 495 0
DWIDTH 33 0
BBX 0 0 0 0
BITMAP
ENDCHAR
STARTCHAR 00A1
ENCODING 161
SWIDTH 495 0
DWIDTH 33 0
BBX 11 42 11 -11
BITMAP
1F00
3FC0
7FC0
FFE0
FFE0
FFE0
FFE0
FFE0
7FC0
3FC0
1F00
0000
0000
0000
0000
0000
3F80
3F80
3F80
3FC0
3FC0
7FC0
7FC0
7FC0
7FC0
7FC0
7FC0
7FC0
7FC0
7FC0
7FC0
7FC0
7FC0
7FC0
7FC0
7FC0
7FC0
7FC0
7FC0
7FC0
7FC0
7FC0
ENDCHAR
STARTCHAR 00A2
ENCODING 162
SWIDTH 495 0
DWIDTH 33 0
BBX 27 47 3 -6
BITMAP
000FF800
000FF800
000FF800
000FF800
000FF800
000FF800
000FF800
000FF800
000FFF00
007FFFE0
01FFFFE0
07FFFFC0
0FFFFFC0
1FFFFFC0
1FFFFFC0
3FFE0780
7FF00000
7FC00000
7FC00000
FF800000
FF800000
FF800000
FF800000
FF000000
FF800000
FF800000
FF800000
FF800000
7FC00000
7FE00000
7FF00000
3FFE01C0
3FFFFFC0
1FFFFFE0
0FFFFFE0
07FFFFE0
03FFFFE0
00FFFFE0
001FFF80
000FF800
000FF800
000FF800
000FF800
000FF800
000FF800
000FF800
000FF800
ENDCHAR
STARTCHAR 00A3
ENCODING 163
SWIDTH 495 0
DWIDTH 33 0
BBX 27 42 3 0
BITMAP
0007FE00
001FFFC0
007FFFC0
00FFFFC0
01FFFFC0
01FFFF80
03FFFF80
03FF0180
07FC0000
07FC0000
07F80000
07F80000
07F80000
07F80000
07F80000
07F80000
07F80000
07F80000
07F80000
FFFFFC00
FFFFFC00
FFFFFC00
FFFFFC00
FFFFFC00
FFFFFC00
FFFFFC00
07F80000
07F80000
07F80000
0FF00000
0FF00000
0FF00000
0FF00000
0FF00000
0FF00000
0FFFFFE0
0FFFFFE0
0FFFFFE0
1FFFFFE0
1FFFFFE0
1FFFFFE0
1FFFFFE0
ENDCHAR
STARTCHAR 00A4
ENCODING 164
SWIDTH 495 0
DWIDTH 33 0
BBX 30 29 2 7
BITMAP
0C0000C0
1E0003E0
3F0007F0
7FBFFFF8
FFFFFFFC
FFFFFFF8
7FFFFFF0
3FFFFFE0
1FFFFFC0
1FF87FC0
1FE03FE0
1FC01FE0
3FC01FE0
3FC00FE0
3FC00FE0
3FC00FE0
3FC01FE0
1FE01FE0
1FF03FC0
1FFFFFC0
1FFFFFE0
3FFFFFF0
7FFFFFF8
FFFFFFFC
FFFFFFF8
7F9FE7F0
3F0003E0
1E0001C0
0C000080
ENDCHAR
STARTCHAR 00A5
ENCODING 165
SWIDTH 495 0
DWIDTH 33 0
BBX 31 41 1 0
BITMAP
FF8001FE
FF8003FE
7FC003FC
7FC003FC
3FC007FC
3FE007F8
1FE007F8
1FE00FF0
0FF00FF0
0FF00FE0
07F81FE0
07F81FC0
03FC3FC0
03FC3F80
01FC7F80
01FE7F00
00FEFF00
007FFE00
007FFE00
1FFFFFF8
1FFFFFF8
1FFFFFF8
1FFFFFF8
1FFFFFF8
000FF000
000FF000
000FF000
000FF000
1FFFFFF8
1FFFFFF8
1FFFFFF8
1FFFFFF8
1FFFFFF8
1FFFFFF8
000FF000
000FF000
000FF000
000FF000
000FF000
000FF000
000FF000
ENDCHAR
STARTCHAR 00A6
ENCODING 166
SWIDTH 495 0
DWIDTH 33 0
BBX 8 58 13 -11
BITMAP
FF
FF
FF
FF
FF
FF
FF
FF
FF
FF
FF
FF
FF
FF
FF
FF
FF
FF
FF
FF
FF
FF
FF
FF
00
00
00
00
00
00
00
00
00
00
FF
FF
FF
FF
FF
FF
FF
FF
FF
FF
FF
FF
FF
FF
FF
FF
FF
FF
FF
FF
FF
FF
FF
FF
ENDCHAR
STARTCHAR 00A7
ENCODING 167
SWIDTH 495 0
DWIDTH 33 0
BBX 27 49 3 -7
BITMAP
003FFC00
01FFFF80
03FFFFC0
07FFFFC0
0FFFFF80
1FFFFF80
1FFFFF80
1FF00700
1FE00000
1FE00000
1FE00000
1FF00000
1FFE0000
0FFFC000
07FFF000
07FFFC00
0FFFFE00
1FFFFF00
3FDFFF80
3F83FFC0
7F80FFC0
7F003FE0
7F001FE0
7F001FE0
7F000FE0
7F000FE0
7F801FE0
7FE01FC0
3FF83FC0
3FFF7F80
1FFFFF00
0FFFFE00
03FFFE00
00FFFF00
003FFF80
0007FF80
0000FFC0
00007FC0
00007FC0
20007FC0
3C007FC0
3FF7FFC0
7FFFFF80
7FFFFF80
7FFFFF00
FFFFFF00
3FFFFC00
07FFF000
00060000
ENDCHAR
STARTCHAR 00A8
ENCODING 168
SWIDTH 495 0
DWIDTH 33 0
BBX 22 9 6 36
BITMAP
3C00E0
7F03F8
FF07FC
FF87FC
FF87FC
FF87FC
FF07FC
FF03F8
3E01F0
ENDCHAR
STARTCHAR 00A9
ENCODING 169
SWIDTH 495 0
DWIDTH 33 0
BBX 30 33 2 -1
BITMAP
00078000
007FF800
01FFFE00
07FFFF00
0FFFFF80
1FC01FC0
3F8007E0
3F0003F0
7E07C1F0
7C1FF1F8
783FE0F8
F87FE0F8
F8FC0078
F0F0007C
F0F0007C
F0F0007C
F1F0007C
F1F0007C
F0F0007C
F0F0007C
F8FC0078
F87FE0F8
F87FE0F8
7C3FF1F8
7E0FC1F0
3E0003F0
3F8007E0
1FC01FC0
0FFCFF80
07FFFF00
03FFFE00
00FFF800
001FC000
ENDCHAR
STARTCHAR 00AA
ENCODING 170
SWIDTH 495 0
DWIDTH 33 0
BBX 20 24 7 18
BITMAP
0FFE00
3FFF80
3FFFC0
1FFFE0
1FFFE0
1E1FF0
0007F0
0007F0
0003F0
03FFF0
1FFFF0
3FFFF0
7FFFF0
FFFFF0
FE03F0
FE03F0
FE03F0
FE03F0
FF87F0
7FFFF0
7FFFF0
3FFFF0
0FFFF0
00F000
ENDCHAR
STARTCHAR 00AB
ENCODING 171
SWIDTH 495 0
DWIDTH 33 0
BBX 26 28 4 3
BITMAP
00800400
00E00700
01F00F80
03F00FC0
03F01F80
07E03F80
0FE03F00
0FC07E00
1FC0FE00
3F80FC00
3F01FC00
7F03F800
FE03F800
FE07F000
FE07F000
FE03F800
7F03F800
3F01FC00
3F80FC00
1FC0FE00
0FC07E00
0FE03F00
07E03F80
03F01F80
03F00FC0
01F00FC0
00E00700
00800000
ENDCHAR
STARTCHAR 00AC
ENCODING 172
SWIDTH 495 0
DWIDTH 33 0
BBX 27 21 3 3
BITMAP
FFFFFFE0
FFFFFFE0
FFFFFFE0
FFFFFFE0
FFFFFFE0
FFFFFFE0
FFFFFFE0
00000FE0
00000FE0
00000FE0
00000FE0
00000FE0
00000FE0
00000FE0
00000FE0
00000FE0
00000FE0
00000FE0
00000FE0
00000FE0
00000FE0
ENDCHAR
STARTCHAR 00AD
ENCODING 173
SWIDTH 495 0
DWIDTH 33 0
BBX 18 8 8 13
BITMAP
FFFFC0
FFFFC0
FFFFC0
FFFFC0
FFFFC0
FFFFC0
FFFFC0
FFFFC0
ENDCHAR
STARTCHAR 00AE
ENCODING 174
SWIDTH 495 0
DWIDTH 33 0
BBX 30 33 2 -1
BITMAP
00078000
007FF800
01FFFE00
07FFFF00
0FFFFF80
1FC01FC0
3F8007E0
3F0003F0
7E3F81F0
7C7FE1F8
787FF0F8
F87FF8F8
F8787878
F078787C
F078787C
F078787C
F07FF07C
F07FF07C
F07FE07C
F07FE07C
F878E078
F878F0F8
F87878F8
7C7879F8
7E783DF0
3E0003F0
3F8007E0
1FC01FC0
0FFCFF80
07FFFF00
03FFFE00
00FFF800
001FC000
ENDCHAR
STARTCHAR 00AF
ENCODING 175
SWIDTH 495 0
DWIDTH 33 0
BBX 19 6 7 37
BITMAP
FFFFE0
FFFFE0
FFFFE0
FFFFE0
FFFFE0
FFFFE0
ENDCHAR
STARTCHAR 00B0
ENCODING 176
SWIDTH 495 0
DWIDTH 33 0
BBX 19 19 7 28
BITMAP
004000
07FE00
1FFF00
3FFF80
3FFFC0
7FFFE0
7F0FE0
FE07E0
FC07E0
FC07E0
FC07E0
FE07E0
FE0FE0
7FFFE0
7FFFC0
3FFFC0
1FFF80
0FFE00
01F800
ENDCHAR
STARTCHAR 00B1
ENCODING 177
SWIDTH 495 0
DWIDTH 33 0
BBX 28 37 3 0
BITMAP
003F8000
003F8000
003F8000
003F8000
003F8000
003F8000
003F8000
003F8000
003F8000
003F8000
FFFFFFF0
FFFFFFF0
FFFFFFF0
FFFFFFF0
FFFFFFF0
FFFFFFF0
FFFFFFF0
003F8000
003F8000
003F8000
003F8000
003F8000
003F8000
003F8000
003F8000
003F8000
003F8000
00000000
00000000
00000000
FFFFFFF0
FFFFFFF0
FFFFFFF0
FFFFFFF0
FFFFFFF0
FFFFFFF0
FFFFFFF0
ENDCHAR
STARTCHAR 00B2
ENCODING 178
SWIDTH 495 0
DWIDTH 33 0
BBX 18 24 8 18
BITMAP
07F800
3FFE00
7FFF00
FFFF00
FFFF80
7FFF80
383F80
203F80
003F80
003F80
007F00
00FF00
03FE00
07FC00
0FF800
1FE000
1FC000
3F8000
7F0000
7FFFC0
7FFFC0
7FFFC0
7FFFC0
7FFFC0
ENDCHAR
STARTCHAR 00B3
ENCODING 179
SWIDTH 495 0
DWIDTH 33 0
BBX 18 24 8 18
BITMAP
0FF800
7FFC00
FFFE00
7FFF00
7FFF00
3EFF00
203F00
003F00
003F00
07FE00
07FE00
07FE00
07FF00
07FF80
007F80
001F80
001FC0
001FC0
703F80
FFFF80
FFFF80
FFFF00
FFFE00
7FF800
ENDCHAR
STARTCHAR 00B4
ENCODING 180
SWIDTH 495 0
DWIDTH 33 0
BBX 14 12 10 34
BITMAP
0020
00F0
01F0
03F8
0FFC
1FFC
7FFC
FFF0
7FC0
3F00
3C00
1000
ENDCHAR
STARTCHAR 00B5
ENCODING 181
SWIDTH 495 0
DWIDTH 33 0
BBX 25 42 4 -11
BITMAP
FF007F80
FF007F80
FF007F80
FF007F80
FF007F80
FF007F80
FF007F80
FF007F80
FF007F80
FF007F80
FF007F80
FF007F80
FF007F80
FF007F80
FF007F80
FF007F80
FF007F80
FF007F80
FF007F80
FF007F80
FF007F80
FF807F80
FF807F80
FFC07F80
FFF9FF80
FFFFFF80
FFFFFF80
FFFFFF80
FFFFFF80
FFFFFF80
FFFFFE00
FF1F8000
FF000000
FF000000
FF000000
FF000000
FF000000
FF000000
FF000000
FF000000
FF000000
FF000000
ENDCHAR
STARTCHAR 00B6
ENCODING 182
SWIDTH 495 0
DWIDTH 33 0
BBX 29 53 1 -11
BITMAP
0007F800
007FFFF8
01FFFFF8
07FFFFF8
0FFFFFF8
1FFFFFF8
3FFFFFF8
3FFF81F8
7FFF81F8
7FFF81F8
7FFF81F8
FFFF81F8
FFFF81F8
FFFF81F8
FFFF81F8
FFFF81F8
FFFF81F8
7FFF81F8
7FFF81F8
7FFF81F8
3FFF81F8
3FFF81F8
1FFF81F8
0FFF81F8
07FF81F8
01FF81F8
003F81F8
003F81F8
003F81F8
003F81F8
003F81F8
003F81F8
003F81F8
003F81F8
003F81F8
003F81F8
003F81F8
003F81F8
003F81F8
003F81F8
003F81F8
003F81F8
003F81F8
003F81F8
003F81F8
003F81F8
003F81F8
003F81F8
003F81F8
003F81F8
003F81F8
003F81F8
003F81F8
ENDCHAR
STARTCHAR 00B7
ENCODING 183
SWIDTH 495 0
DWIDTH 33 0
BBX 12 12 11 12
BITMAP
0400
3F80
7FC0
FFE0
FFE0
FFF0
FFF0
FFF0
FFE0
7FE0
7FC0
1F80
ENDCHAR
STARTCHAR 00B8
ENCODING 184
SWIDTH 495 0
DWIDTH 33 0
BBX 13 12 11 -11
BITMAP
07C0
0FC0
0F80
1FE0
07F0
01F8
01F8
83F8
FFF8
FFF0
FFE0
FFC0
ENDCHAR
STARTCHAR 00B9
ENCODING 185
SWIDTH 495 0
DWIDTH 33 0
BBX 19 24 9 18
BITMAP
00FC00
01FC00
07FC00
1FFC00
7FFC00
FFFC00
FFFC00
FFFC00
7DFC00
71FC00
01FC00
01FC00
01FC00
01FC00
01FC00
01FC00
01FC00
01FC00
01FC00
FFFFE0
FFFFE0
FFFFE0
FFFFE0
FFFFE0
ENDCHAR
STARTCHAR 00BA
ENCODING 186
SWIDTH 495 0
DWIDTH 33 0
BBX 23 24 5 18
BITMAP
01FF00
07FFC0
0FFFE0
1FFFF0
3FFFF8
7FFFFC
7F83FC
7F01FE
FE00FE
FE00FE
FE00FE
FE00FE
FE00FE
FE00FE
FE00FE
FF00FE
7F01FC
7FC7FC
3FFFFC
3FFFF8
1FFFF0
0FFFE0
03FF80
007C00
ENDCHAR
STARTCHAR 00BB
ENCODING 187
SWIDTH 495 0
DWIDTH 33 0
BBX 26 28 4 3
BITMAP
10008000
3001C000
F807C000
FC07E000
FC03F000
7E03F000
7F01F800
3F01FC00
3F80FC00
1FC0FE00
0FC07F00
0FE07F00
07F03F80
07F01FC0
07F01FC0
07F03F80
0FE03F00
0FC07F00
1FC0FE00
1F80FE00
3F81FC00
7F01F800
7E03F800
FE03F000
FC07E000
F807E000
7801C000
10008000
ENDCHAR
STARTCHAR 00BC
ENCODING 188
SWIDTH 495 0
DWIDTH 33 0
BBX 33 42 0 0
BITMAP
01F0000000
03F001F800
07F003F800
1FF003F000
7FF007F000
FFF007E000
7FF00FE000
7BF00FC000
43F01FC000
03F01F8000
03F03F8000
03F03F0000
03F07F0000
03F07E0000
03F0FE0000
03F0FC0000
03F1FC0000
0001F80000
0003F80000
0003F00000
0007F00000
0007E00000
000FE00000
000FC00000
001FC00000
003F80FE00
003F81FE00
007F03FE00
007F03FE00
00FE07FE00
00FE0FFE00
01FC0F7E00
01FC1E7E00
03F81E7E00
03F83C7E00
07F07FFF80
07F07FFF80
0FE07FFF80
0FE07FFF80
1FC0007E00
1FC0007E00
3F80007E00
ENDCHAR
STARTCHAR 00BD
ENCODING 189
SWIDTH 495 0
DWIDTH 33 0
BBX 33 42 0 0
BITMAP
01F0000000
03F001F800
07F003F800
1FF003F000
7FF007F000
FFF007E000
7FF00FE000
7BF00FC000
43F01FC000
03F01F8000
03F03F8000
03F03F0000
03F07F0000
03F07E0000
03F0FE0000
03F0FC0000
03F1FC0000
0001F80000
0003F80000
0003F00000
0007F00000
0007E00000
000FE00000
000FC00000
001FC00000
003F83F800
003F8FFE00
007F1FFF00
007F1FFF00
00FE0F7F00
00FE041F00
01FC001F00
01FC003F00
03F8007E00
03F801FE00
07F003F800
07F00FF000
0FE01FC000
0FE01FFF80
1FC01FFF80
1FC01FFF80
3F801FFF80
ENDCHAR
STARTCHAR 00BE
ENCODING 190
SWIDTH 495 0
DWIDTH 33 0
BBX 32 42 1 0
BITMAP
3FE00000
FFF001FC
7FF803F8
7FFC03F8
20FC07F0
00FC07F0
1FF80FE0
1FF00FE0
1FF81FC0
1FFC1FC0
01FC3F80
007C3F80
007C7F00
7FFC7F00
FFFCFE00
FFF8FE00
FFF1FC00
0201F800
0003F800
0003F000
0007F000
0007E000
000FE000
000FC000
001FC000
001F81FC
003F83FC
003F07FC
007F07FC
007E0FFC
00FE1FFC
00FC1EFC
01FC3CFC
01F83CFC
03F878FC
03F0FFFF
07F0FFFF
07E0FFFF
0FE0FFFF
0FC000FC
1FC000FC
1F8000FC
ENDCHAR
STARTCHAR 00BF
ENCODING 191
SWIDTH 495 0
DWIDTH 33 0
BBX 24 42 5 -11
BITMAP
001F00
007F80
00FFC0
00FFC0
00FFE0
00FFE0
00FFE0
00FFC0
007FC0
007F80
001E00
000000
000000
000000
000000
000000
003FC0
003FC0
007F80
00FF80
00FF80
03FF00
07FF00
0FFE00
1FFC00
3FF800
7FF000
7FE000
FFC000
FF8000
FF0000
FF0000
FF0000
FF8004
FFC03C
FFFFFE
7FFFFE
7FFFFE
3FFFFF
1FFFFF
0FFFFC
01FFE0
ENDCHAR
STARTCHAR 00C0
ENCODING 192
SWIDTH 495 0
DWIDTH 33 0
BBX 32 55 1 0
BITMAP
00080000
001E0000
003F0000
003FC000
007FE000
00FFF000
007FFC00
001FFC00
0007FC00
0001F800
00007000
00000000
00000000
00000000
001FF800
001FF800
003FF800
003FF800
003FFC00
003FFC00
007FFC00
007FFE00
007EFE00
00FEFE00
00FEFF00
00FE7F00
01FC7F00
01FC7F80
01FC7F80
03FC3F80
03F83F80
03F83FC0
03F83FC0
07F81FC0
07F01FE0
07F01FE0
0FF01FE0
0FF01FE0
0FF00FF0
0FFFFFF0
1FFFFFF0
1FFFFFF0
1FFFFFF8
3FFFFFF8
3FFFFFF8
3FC007F8
3FC007FC
7FC007FC
7F8003FC
7F8003FC
7F8003FE
FF8003FE
FF8003FE
FF0001FE
FF0001FF
ENDCHAR
STARTCHAR 00C1
ENCODING 193
SWIDTH 495 0
DWIDTH 33 0
BBX 32 55 1 0
BITMAP
00002000
0000F000
0001F800
0007F800
000FFC00
001FFE00
007FFC00
007FF000
007FC000
003F0000
00180000
00000000
00000000
00000000
001FF800
001FF800
003FF800
003FF800
003FFC00
003FFC00
007FFC00
007FFE00
007EFE00
00FEFE00
00FEFF00
00FE7F00
01FC7F00
01FC7F80
01FC7F80
03FC3F80
03F83F80
03F83FC0
03F83FC0
07F81FC0
07F01FE0
07F01FE0
0FF01FE0
0FF01FE0
0FF00FF0
0FFFFFF0
1FFFFFF0
1FFFFFF0
1FFFFFF8
3FFFFFF8
3FFFFFF8
3FC007F8
3FC007FC
7FC007FC
7F8003FC
7F8003FC
7F8003FE
FF8003FE
FF8003FE
FF0001FE
FF0001FF
ENDCHAR
STARTCHAR 00C2
ENCODING 194
SWIDTH 495 0
DWIDTH 33 0
BBX 32 55 1 0
BITMAP
00018000
0003C000
0007E000
001FF000
003FF800
007FFC00
00FFFF00
01FEFF80
01FC3F00
00F81F00
00600E00
00000400
00000000
00000000
001FF800
001FF800
003FF800
003FF800
003FFC00
003FFC00
007FFC00
007FFE00
007EFE00
00FEFE00
00FEFF00
00FE7F00
01FC7F00
01FC7F80
01FC7F80
03FC3F80
03F83F80
03F83FC0
03F83FC0
07F81FC0
07F01FE0
07F01FE0
0FF01FE0
0FF01FE0
0FF00FF0
0FFFFFF0
1FFFFFF0
1FFFFFF0
1FFFFFF8
3FFFFFF8
3FFFFFF8
3FC007F8
3FC007FC
7FC007FC
7F8003FC
7F8003FC
7F8003FE
FF8003FE
FF8003FE
FF0001FE
FF0001FF
ENDCHAR
STARTCHAR 00C3
ENCODING 195
SWIDTH 495 0
DWIDTH 33 0
BBX 32 54 1 0
BITMAP
00180200
007F0780
01FFFFE0
01FFFFC0
03FFFFC0
07FFFF80
07FFFF00
03C0FE00
00801000
00000000
00000000
00000000
00000000
001FF800
001FF800
003FF800
003FF800
003FFC00
003FFC00
007FFC00
007FFE00
007EFE00
00FEFE00
00FEFF00
00FE7F00
01FC7F00
01FC7F80
01FC7F80
03FC3F80
03F83F80
03F83FC0
03F83FC0
07F81FC0
07F01FE0
07F01FE0
0FF01FE0
0FF01FE0
0FF00FF0
0FFFFFF0
1FFFFFF0
1FFFFFF0
1FFFFFF8
3FFFFFF8
3FFFFFF8
3FC007F8
3FC007FC
7FC007FC
7F8003FC
7F8003FC
7F8003FE
FF8003FE
FF8003FE
FF0001FE
FF0001FF
ENDCHAR
STARTCHAR 00C4
ENCODING 196
SWIDTH 495 0
DWIDTH 33 0
BBX 32 54 1 0
BITMAP
01F00F80
07F81FC0
07F83FE0
07FC3FE0
07FC3FE0
07FC3FE0
07F83FE0
03F81FC0
01E00F00
00000000
00000000
00000000
00000000
001FF800
001FF800
003FF800
003FF800
003FFC00
003FFC00
007FFC00
007FFE00
007EFE00
00FEFE00
00FEFF00
00FE7F00
01FC7F00
01FC7F80
01FC7F80
03FC3F80
03F83F80
03F83FC0
03F83FC0
07F81FC0
07F01FE0
07F01FE0
0FF01FE0
0FF01FE0
0FF00FF0
0FFFFFF0
1FFFFFF0
1FFFFFF0
1FFFFFF8
3FFFFFF8
3FFFFFF8
3FC007F8
3FC007FC
7FC007FC
7F8003FC
7F8003FC
7F8003FE
FF8003FE
FF8003FE
FF0001FE
FF0001FF
ENDCHAR
STARTCHAR 00C5
ENCODING 197
SWIDTH 495 0
DWIDTH 33 0
BBX 32 53 1 0
BITMAP
00010000
000FF000
003FF800
003FFC00
007FFC00
007C3C00
00783E00
00783E00
00783E00
007C7C00
007FFC00
003FF800
001FF800
001FF800
003FF800
003FF800
003FFC00
007FFC00
007FFC00
007FFE00
007EFE00
00FEFE00
00FEFF00
00FE7F00
01FC7F00
01FC7F00
01FC7F80
03FC3F80
03F83F80
03F83FC0
03F83FC0
07F81FC0
07F01FC0
07F01FE0
0FF01FE0
0FF01FE0
0FF00FF0
0FFFFFF0
1FFFFFF0
1FFFFFF0
1FFFFFF8
3FFFFFF8
3FFFFFF8
3FC007F8
3FC007FC
7FC007FC
7F8003FC
7F8003FC
7F8003FE
FF8003FE
FF8003FE
FF0001FE
FF0001FF
ENDCHAR
STARTCHAR 00C6
ENCODING 198
SWIDTH 495 0
DWIDTH 33 0
BBX 32 41 1 0
BITMAP
000FFFFE
000FFFFE
001FFFFE
001FFFFE
003FFFFE
003FFFFE
003FFFFE
007EFE00
007EFE00
007EFE00
00FEFE00
00FCFE00
00FCFE00
01FCFE00
01FCFE00
01F8FE00
03F8FFF8
03F8FFF8
03F8FFF8
07F8FFF8
07F0FFF8
07F0FFF8
07F0FFF8
0FF0FE00
0FE0FE00
0FFFFE00
1FFFFE00
1FFFFE00
1FFFFE00
1FFFFE00
3FFFFE00
3FC0FE00
3FC0FE00
7FC0FE00
7F80FFFF
7F80FFFF
7F80FFFF
FF80FFFF
FF80FFFF
FF00FFFF
FF00FFFF
ENDCHAR
STARTCHAR 00C7
ENCODING 199
SWIDTH 495 0
DWIDTH 33 0
BBX 29 53 2 -11
BITMAP
0007FF00
003FFFE0
007FFFF8
01FFFFF8
03FFFFF8
07FFFFF0
0FFFFFF0
1FFE01F0
1FF80020
3FF00000
3FE00000
7FC00000
7FC00000
7F800000
FF800000
FF800000
FF000000
FF000000
FF000000
FF000000
FF000000
FF000000
FF000000
FF000000
FF000000
FF000000
FF800000
FF800000
FF800000
7F800000
7FC00000
7FC00000
3FE00000
3FF00000
1FF80070
1FFF03F0
0FFFFFF0
07FFFFF0
03FFFFF8
01FFFFF8
00FFFFF0
003FFFC0
0007FC00
0007C000
000FF000
0003F800
0000FC00
0000FC00
0041FC00
007FFC00
007FF800
007FF000
007FE000
ENDCHAR
STARTCHAR 00C8
ENCODING 200
SWIDTH 495 0
DWIDTH 33 0
BBX 27 55 4 0
BITMAP
00400000
00F00000
01F80000
01FE0000
03FF0000
07FF8000
03FFE000
00FFE000
003FE000
000FC000
00038000
00000000
00000000
00000000
FFFFFF80
FFFFFF80
FFFFFF80
FFFFFF80
FFFFFF80
FFFFFF80
FFFFFF80
FF000000
FF000000
FF000000
FF000000
FF000000
FF000000
FF000000
FF000000
FF000000
FFFFFE00
FFFFFE00
FFFFFE00
FFFFFE00
FFFFFE00
FFFFFE00
FFFFFE00
FF000000
FF000000
FF000000
FF000000
FF000000
FF000000
FF000000
FF000000
FF000000
FF000000
FF000000
FFFFFFE0
FFFFFFE0
FFFFFFE0
FFFFFFE0
FFFFFFE0
FFFFFFE0
FFFFFFE0
ENDCHAR
STARTCHAR 00C9
ENCODING 201
SWIDTH 495 0
DWIDTH 33 0
BBX 27 55 4 0
BITMAP
00010000
00078000
000FC000
003FC000
007FE000
00FFF000
03FFE000
03FF8000
03FE0000
01F80000
00C00000
00000000
00000000
00000000
FFFFFF80
FFFFFF80
FFFFFF80
FFFFFF80
FFFFFF80
FFFFFF80
FFFFFF80
FF000000
FF000000
FF000000
FF000000
FF000000
FF000000
FF000000
FF000000
FF000000
FFFFFE00
FFFFFE00
FFFFFE00
FFFFFE00
FFFFFE00
FFFFFE00
FFFFFE00
FF000000
FF000000
FF000000
FF000000
FF000000
FF000000
FF000000
FF000000
FF000000
FF000000
FF000000
FFFFFFE0
FFFFFFE0
FFFFFFE0
FFFFFFE0
FFFFFFE0
FFFFFFE0
FFFFFFE0
ENDCHAR
STARTCHAR 00CA
ENCODING 202
SWIDTH 495 0
DWIDTH 33 0
BBX 27 55 4 0
BITMAP
000C0000
001E0000
003F0000
00FF8000
01FFC000
03FFE000
07FFF800
0FF7FC00
0FE1F800
07C0F800
03007000
00002000
00000000
00000000
FFFFFF80
FFFFFF80
FFFFFF80
FFFFFF80
FFFFFF80
FFFFFF80
FFFFFF80
FF000000
FF000000
FF000000
FF000000
FF000000
FF000000
FF000000
FF000000
FF000000
FFFFFE00
FFFFFE00
FFFFFE00
FFFFFE00
FFFFFE00
FFFFFE00
FFFFFE00
FF000000
FF000000
FF000000
FF000000
FF000000
FF000000
FF000000
FF000000
FF000000
FF000000
FF000000
FFFFFFE0
FFFFFFE0
FFFFFFE0
FFFFFFE0
FFFFFFE0
FFFFFFE0
FFFFFFE0
ENDCHAR
STARTCHAR 00CB
ENCODING 203
SWIDTH 495 0
DWIDTH 33 0
BBX 27 54 4 0
BITMAP
0F807C00
3FC0FE00
3FC1FF00
3FE1FF00
3FE1FF00
3FE1FF00
3FC1FF00
1FC0FE00
0F007800
00000000
00000000
00000000
00000000
FFFFFF80
FFFFFF80
FFFFFF80
FFFFFF80
FFFFFF80
FFFFFF80
FFFFFF80
FF000000
FF000000
FF000000
FF000000
FF000000
FF000000
FF000000
FF000000
FF000000
FFFFFE00
FFFFFE00
FFFFFE00
FFFFFE00
FFFFFE00
FFFFFE00
FFFFFE00
FF000000
FF000000
FF000000
FF000000
FF000000
FF000000
FF000000
FF000000
FF000000
FF000000
FF000000
FFFFFFE0
FFFFFFE0
FFFFFFE0
FFFFFFE0
FFFFFFE0
FFFFFFE0
FFFFFFE0
ENDCHAR
STARTCHAR 00CC
ENCODING 204
SWIDTH 495 0
DWIDTH 33 0
BBX 26 55 4 0
BITMAP
00400000
00F00000
01F80000
01FE0000
03FF0000
07FF8000
03FFE000
00FFE000
003FE000
000FC000
00038000
00000000
00000000
00000000
FFFFFFC0
FFFFFFC0
FFFFFFC0
FFFFFFC0
FFFFFFC0
FFFFFFC0
FFFFFFC0
007F8000
007F8000
007F8000
007F8000
007F8000
007F8000
007F8000
007F8000
007F8000
007F8000
007F8000
007F8000
007F8000
007F8000
007F8000
007F8000
007F8000
007F8000
007F8000
007F8000
007F8000
007F8000
007F8000
007F8000
007F8000
007F8000
007F8000
FFFFFFC0
FFFFFFC0
FFFFFFC0
FFFFFFC0
FFFFFFC0
FFFFFFC0
FFFFFFC0
ENDCHAR
STARTCHAR 00CD
ENCODING 205
SWIDTH 495 0
DWIDTH 33 0
BBX 26 55 4 0
BITMAP
00010000
00078000
000FC000
003FC000
007FE000
00FFF000
03FFE000
03FF8000
03FE0000
01F80000
00C00000
00000000
00000000
00000000
FFFFFFC0
FFFFFFC0
FFFFFFC0
FFFFFFC0
FFFFFFC0
FFFFFFC0
FFFFFFC0
007F8000
007F8000
007F8000
007F8000
007F8000
007F8000
007F8000
007F8000
007F8000
007F8000
007F8000
007F8000
007F8000
007F8000
007F8000
007F8000
007F8000
007F8000
007F8000
007F8000
007F8000
007F8000
007F8000
007F8000
007F8000
007F8000
007F8000
FFFFFFC0
FFFFFFC0
FFFFFFC0
FFFFFFC0
FFFFFFC0
FFFFFFC0
FFFFFFC0
ENDCHAR
STARTCHAR 00CE
ENCODING 206
SWIDTH 495 0
DWIDTH 33 0
BBX 26 55 4 0
BITMAP
000C0000
001E0000
003F0000
00FF8000
01FFC000
03FFE000
07FFF800
0FF7FC00
0FE1F800
07C0F800
03007000
00002000
00000000
00000000
FFFFFFC0
FFFFFFC0
FFFFFFC0
FFFFFFC0
FFFFFFC0
FFFFFFC0
FFFFFFC0
007F8000
007F8000
007F8000
007F8000
007F8000
007F8000
007F8000
007F8000
007F8000
007F8000
007F8000
007F8000
007F8000
007F8000
007F8000
007F8000
007F8000
007F8000
007F8000
007F8000
007F8000
007F8000
007F8000
007F8000
007F8000
007F8000
007F8000
FFFFFFC0
FFFFFFC0
FFFFFFC0
FFFFFFC0
FFFFFFC0
FFFFFFC0
FFFFFFC0
ENDCHAR
STARTCHAR 00CF
ENCODING 207
SWIDTH 495 0
DWIDTH 33 0
BBX 26 54 4 0
BITMAP
0F807C00
3FC0FE00
3FC1FF00
3FE1FF00
3FE1FF00
3FE1FF00
3FC1FF00
1FC0FE00
0F007800
00000000
00000000
00000000
00000000
FFFFFFC0
FFFFFFC0
FFFFFFC0
FFFFFFC0
FFFFFFC0
FFFFFFC0
FFFFFFC0
007F8000
007F8000
007F8000
007F8000
007F8000
007F8000
007F8000
007F8000
007F8000
007F8000
007F8000
007F8000
007F8000
007F8000
007F8000
007F8000
007F8000
007F8000
007F8000
007F8000
007F8000
007F8000
007F8000
007F8000
007F8000
007F8000
007F8000
FFFFFFC0
FFFFFFC0
FFFFFFC0
FFFFFFC0
FFFFFFC0
FFFFFFC0
FFFFFFC0
ENDCHAR
STARTCHAR 00D0
ENCODING 208
SWIDTH 495 0
DWIDTH 33 0
BBX 31 43 1 -1
BITMAP
007F8000
0FFFF800
0FFFFE00
0FFFFF00
0FFFFF80
0FFFFFC0
0FFFFFE0
0FF9FFE0
0FF03FF0
0FF01FF0
0FF00FF8
0FF007F8
0FF007FC
0FF007FC
0FF003FC
0FF003FC
0FF003FC
FFFF83FC
FFFF83FC
FFFF83FC
FFFF83FE
FFFF83FE
FFFF83FE
FFFF83FC
0FF003FC
0FF003FC
0FF003FC
0FF003FC
0FF007FC
0FF007FC
0FF007F8
0FF00FF8
0FF01FF8
0FF01FF0
0FF07FF0
0FFFFFE0
0FFFFFC0
0FFFFFC0
0FFFFF00
0FFFFE00
0FFFFC00
0FFFE000
000C0000
ENDCHAR
STARTCHAR 00D1
ENCODING 209
SWIDTH 495 0
DWIDTH 33 0
BBX 27 54 3 0
BITMAP
00600800
01FC1E00
07FFFF80
07FFFF00
0FFFFF00
1FFFFE00
1FFFFC00
0F03F800
02004000
00000000
00000000
00000000
00000000
FE000FE0
FF000FE0
FF000FE0
FF800FE0
FFC00FE0
FFC00FE0
FFE00FE0
FFE00FE0
FFF00FE0
FFF00FE0
FFF80FE0
FFF80FE0
FFFC0FE0
FFFC0FE0
FEFE0FE0
FEFE0FE0
FE7F0FE0
FE3F0FE0
FE3F8FE0
FE1F8FE0
FE1FCFE0
FE0FCFE0
FE0FEFE0
FE07EFE0
FE07FFE0
FE03FFE0
FE03FFE0
FE01FFE0
FE01FFE0
FE00FFE0
FE00FFE0
FE007FE0
FE007FE0
FE007FE0
FE003FE0
FE003FE0
FE001FE0
FE001FE0
FE000FE0
FE000FE0
FE000FE0
ENDCHAR
STARTCHAR 00D2
ENCODING 210
SWIDTH 495 0
DWIDTH 33 0
BBX 30 56 2 -1
BITMAP
00100000
003C0000
007E0000
007F8000
00FFC000
01FFE000
00FFF800
003FF800
000FF800
0003F000
0000E000
00000000
00000000
003FE000
00FFFC00
03FFFE00
07FFFF00
0FFFFF80
0FFFFFC0
1FFFFFE0
3FF07FE0
3FE03FE0
7FC01FF0
7FC00FF0
7F800FF0
7F800FF8
FF8007F8
FF8007F8
FF0007F8
FF0007F8
FF0007F8
FF0007F8
FF0007F8
FF0007FC
FF0007FC
FF0007FC
FF0007F8
FF0007F8
FF0007F8
FF0007F8
FF0007F8
FF8007F8
FF8007F8
7F800FF8
7F800FF0
7FC00FF0
3FC01FF0
3FE03FE0
3FF8FFE0
1FFFFFC0
0FFFFFC0
0FFFFF80
07FFFF00
01FFFE00
00FFF800
001FC000
ENDCHAR
STARTCHAR 00D3
ENCODING 211
SWIDTH 495 0
DWIDTH 33 0
BBX 30 56 2 -1
BITMAP
00004000
0001E000
0003F000
000FF000
001FF800
003FFC00
00FFF800
00FFE000
00FF8000
007E0000
00300000
00000000
00000000
003FE000
00FFFC00
03FFFE00
07FFFF00
0FFFFF80
0FFFFFC0
1FFFFFE0
3FF07FE0
3FE03FE0
7FC01FF0
7FC00FF0
7F800FF0
7F800FF8
FF8007F8
FF8007F8
FF0007F8
FF0007F8
FF0007F8
FF0007F8
FF0007F8
FF0007FC
FF0007FC
FF0007FC
FF0007F8
FF0007F8
FF0007F8
FF0007F8
FF0007F8
FF8007F8
FF8007F8
7F800FF8
7F800FF0
7FC00FF0
3FC01FF0
3FE03FE0
3FF8FFE0
1FFFFFC0
0FFFFFC0
0FFFFF80
07FFFF00
01FFFE00
00FFF800
001FC000
ENDCHAR
STARTCHAR 00D4
ENCODING 212
SWIDTH 495 0
DWIDTH 33 0
BBX 30 56 2 -1
BITMAP
00030000
00078000
000FC000
003FE000
007FF000
00FFF800
01FFFE00
03FDFF00
03F87E00
01F03E00
00C01C00
00000800
00000000
003FE000
00FFFC00
03FFFE00
07FFFF00
0FFFFF80
0FFFFFC0
1FFFFFE0
3FF07FE0
3FE03FE0
7FC01FF0
7FC00FF0
7F800FF0
7F800FF8
FF8007F8
FF8007F8
FF0007F8
FF0007F8
FF0007F8
FF0007F8
FF0007F8
FF0007FC
FF0007FC
FF0007FC
FF0007F8
FF0007F8
FF0007F8
FF0007F8
FF0007F8
FF8007F8
FF8007F8
7F800FF8
7F800FF0
7FC00FF0
3FC01FF0
3FE03FE0
3FF8FFE0
1FFFFFC0
0FFFFFC0
0FFFFF80
07FFFF00
01FFFE00
00FFF800
001FC000
ENDCHAR
STARTCHAR 00D5
ENCODING 213
SWIDTH 495 0
DWIDTH 33 0
BBX 30 55 2 -1
BITMAP
00300400
00FE0F00
03FFFFC0
03FFFF80
07FFFF80
0FFFFF00
0FFFFE00
0781FC00
01002000
00000000
00000000
00000000
003FE000
00FFFC00
03FFFE00
07FFFF00
0FFFFF80
0FFFFFC0
1FFFFFE0
3FF07FE0
3FE03FE0
7FC01FF0
7FC00FF0
7F800FF0
7F800FF8
FF8007F8
FF8007F8
FF0007F8
FF0007F8
FF0007F8
FF0007F8
FF0007F8
FF0007FC
FF0007FC
FF0007FC
FF0007F8
FF0007F8
FF0007F8
FF0007F8
FF0007F8
FF8007F8
FF8007F8
7F800FF8
7F800FF0
7FC00FF0
3FC01FF0
3FE03FE0
3FF8FFE0
1FFFFFC0
0FFFFFC0
0FFFFF80
07FFFF00
01FFFE00
00FFF800
001FC000
ENDCHAR
STARTCHAR 00D6
ENCODING 214
SWIDTH 495 0
DWIDTH 33 0
BBX 30 55 2 -1
BITMAP
03E01F00
0FF03F80
0FF07FC0
0FF87FC0
0FF87FC0
0FF87FC0
0FF07FC0
07F03F80
03C01E00
00000000
00000000
00000000
003FE000
00FFFC00
03FFFE00
07FFFF00
0FFFFF80
0FFFFFC0
1FFFFFE0
3FF07FE0
3FE03FE0
7FC01FF0
7FC00FF0
7F800FF0
7F800FF8
FF8007F8
FF8007F8
FF0007F8
FF0007F8
FF0007F8
FF0007F8
FF0007F8
FF0007FC
FF0007FC
FF0007FC
FF0007F8
FF0007F8
FF0007F8
FF0007F8
FF0007F8
FF8007F8
FF8007F8
7F800FF8
7F800FF0
7FC00FF0
3FC01FF0
3FE03FE0
3FF8FFE0
1FFFFFC0
0FFFFFC0
0FFFFF80
07FFFF00
01FFFE00
00FFF800
001FC000
ENDCHAR
STARTCHAR 00D7
ENCODING 215
SWIDTH 495 0
DWIDTH 33 0
BBX 26 26 4 5
BITMAP
08000000
1C000C00
3E001E00
3F003F00
7F807F80
FFC0FFC0
7FE1FF80
3FF3FF00
1FFFFE00
0FFFFC00
07FFF800
03FFF000
01FFE000
00FFC000
01FFE000
03FFF000
07FFF800
0FFFFC00
1FF7FE00
3FE3FF00
7FC1FF80
FF80FFC0
7F007F80
3E003F00
1C001E00
08000C00
ENDCHAR
STARTCHAR 00D8
ENCODING 216
SWIDTH 495 0
DWIDTH 33 0
BBX 30 47 2 -3
BITMAP
00000200
00000380
001FE7E0
00FFFFE0
01FFFFE0
07FFFFC0
0FFFFFC0
0FFFFFC0
1FFFFFC0
3FF07FE0
3FE07FE0
3FC07FF0
7FC0FFF0
7F80FFF0
7F80FFF8
FF81FFF8
FF81FFF8
FF03FFF8
FF03F7F8
FF07F7F8
FF07E7F8
FF0FE7F8
FF0FC7FC
FF1FC7FC
FF1F87FC
FF3F87F8
FF3F07F8
FF7F07F8
FF7E07F8
FFFE07F8
FFFC07F8
FFFC07F8
7FF80FF8
7FF80FF0
7FF00FF0
3FF01FF0
3FE03FE0
3FF87FE0
1FFFFFC0
1FFFFFC0
1FFFFF80
3FFFFF00
3FFFFE00
7FFFF800
3F1FE000
0E000000
02000000
ENDCHAR
STARTCHAR 00D9
ENCODING 217
SWIDTH 495 0
DWIDTH 33 0
BBX 28 56 3 -1
BITMAP
00600000
00F00000
00FC0000
01FE0000
03FF0000
03FFC000
01FFE000
007FF000
001FE000
0007C000
0001C000
00000000
00000000
00000000
FF000FF0
FF000FF0
FF000FF0
FF000FF0
FF000FF0
FF000FF0
FF000FF0
FF000FF0
FF000FF0
FF000FF0
FF000FF0
FF000FF0
FF000FF0
FF000FF0
FF000FF0
FF000FF0
FF000FF0
FF000FF0
FF000FF0
FF000FF0
FF000FF0
FF000FF0
FF000FF0
FF000FF0
FF000FF0
FF000FF0
FF001FF0
FF001FF0
FF001FF0
FF001FF0
FF001FE0
FF001FE0
FF803FE0
FFC03FE0
7FF1FFC0
7FFFFFC0
3FFFFFC0
3FFFFF80
1FFFFF00
0FFFFE00
03FFF800
007FC000
ENDCHAR
STARTCHAR 00DA
ENCODING 218
SWIDTH 495 0
DWIDTH 33 0
BBX 28 56 3 -1
BITMAP
00004000
0001E000
0003F000
000FF000
001FF800
003FFC00
00FFF800
00FFE000
00FF8000
007E0000
00380000
00000000
00000000
00000000
FF000FF0
FF000FF0
FF000FF0
FF000FF0
FF000FF0
FF000FF0
FF000FF0
FF000FF0
FF000FF0
FF000FF0
FF000FF0
FF000FF0
FF000FF0
FF000FF0
FF000FF0
FF000FF0
FF000FF0
FF000FF0
FF000FF0
FF000FF0
FF000FF0
FF000FF0
FF000FF0
FF000FF0
FF000FF0
FF000FF0
FF001FF0
FF001FF0
FF001FF0
FF001FF0
FF001FE0
FF001FE0
FF803FE0
FFC03FE0
7FF1FFC0
7FFFFFC0
3FFFFFC0
3FFFFF80
1FFFFF00
0FFFFE00
03FFF800
007FC000
ENDCHAR
STARTCHAR 00DB
ENCODING 219
SWIDTH 495 0
DWIDTH 33 0
BBX 28 56 3 -1
BITMAP
00060000
000F0000
001F8000
007FC000
00FFE000
01FFF000
03FFFC00
07FBFE00
07F0FC00
03E07C00
01803800
00001000
00000000
00000000
FF000FF0
FF000FF0
FF000FF0
FF000FF0
FF000FF0
FF000FF0
FF000FF0
FF000FF0
FF000FF0
FF000FF0
FF000FF0
FF000FF0
FF000FF0
FF000FF0
FF000FF0
FF000FF0
FF000FF0
FF000FF0
FF000FF0
FF000FF0
FF000FF0
FF000FF0
FF000FF0
FF000FF0
FF000FF0
FF000FF0
FF001FF0
FF001FF0
FF001FF0
FF001FF0
FF001FE0
FF001FE0
FF803FE0
FFC03FE0
7FF1FFC0
7FFFFFC0
3FFFFFC0
3FFFFF80
1FFFFF00
0FFFFE00
03FFF800
007FC000
ENDCHAR
STARTCHAR 00DC
ENCODING 220
SWIDTH 495 0
DWIDTH 33 0
BBX 28 55 3 -1
BITMAP
07C03E00
1FE07F00
1FE0FF80
1FF0FF80
1FF0FF80
1FF0FF80
1FE0FF80
0FE07F00
07803C00
00000000
00000000
00000000
00000000
FF000FF0
FF000FF0
FF000FF0
FF000FF0
FF000FF0
FF000FF0
FF000FF0
FF000FF0
FF000FF0
FF000FF0
FF000FF0
FF000FF0
FF000FF0
FF000FF0
FF000FF0
FF000FF0
FF000FF0
FF000FF0
FF000FF0
FF000FF0
FF000FF0
FF000FF0
FF000FF0
FF000FF0
FF000FF0
FF000FF0
FF001FF0
FF001FF0
FF001FF0
FF001FF0
FF001FE0
FF001FE0
FF803FE0
FFC03FE0
7FF1FFC0
7FFFFFC0
3FFFFFC0
3FFFFF80
1FFFFF00
0FFFFE00
03FFF800
007FC000
ENDCHAR
STARTCHAR 00DD
ENCODING 221
SWIDTH 495 0
DWIDTH 33 0
BBX 31 55 1 0
BITMAP
00001000
00007800
0000FC00
0003FC00
0007FE00
000FFF00
003FFE00
003FF800
003FE000
001F8000
000E0000
00000000
00000000
00000000
FF8001FE
7F8003FE
7FC003FC
7FC003FC
3FC007FC
3FE007F8
1FE007F8
1FE00FF8
1FF00FF0
0FF00FF0
0FF01FE0
07F81FE0
07F81FC0
03FC3FC0
03FC3FC0
03FE7F80
01FE7F80
01FEFF00
00FFFF00
00FFFE00
007FFC00
007FFC00
003FF800
001FF800
001FF000
000FF000
000FF000
000FF000
000FF000
000FF000
000FF000
000FF000
000FF000
000FF000
000FF000
000FF000
000FF000
000FF000
000FF000
000FF000
000FF000
ENDCHAR
STARTCHAR 00DE
ENCODING 222
SWIDTH 495 0
DWIDTH 33 0
BBX 27 41 4 0
BITMAP
FF000000
FF000000
FF000000
FF000000
FF000000
FF000000
FFFFC000
FFFFF800
FFFFFC00
FFFFFF00
FFFFFF80
FFFFFF80
FFFFFFC0
FF00FFC0
FF007FE0
FF003FE0
FF001FE0
FF001FE0
FF001FE0
FF001FE0
FF001FE0
FF001FE0
FF003FE0
FF003FE0
FF007FE0
FF01FFC0
FFFFFFC0
FFFFFF80
FFFFFF80
FFFFFF00
FFFFFC00
FFFFF800
FFFFC000
FF000000
FF000000
FF000000
FF000000
FF000000
FF000000
FF000000
FF000000
ENDCHAR
STARTCHAR 00DF
ENCODING 223
SWIDTH 495 0
DWIDTH 33 0
BBX 31 47 2 -1
BITMAP
00FFC000
03FFF800
0FFFFC00
1FFFFE00
1FFFFF00
3FFFFF00
7FFFFF80
7FE0FF80
7FC07F80
7F807F80
FF807F80
FF007F80
FF007F80
FF007F80
FF007F00
FF00FF00
FF01FE00
FF01FE00
FF03FC00
FF03F800
FF07F800
FF07F800
FF07F800
FF07F800
FF07F800
FF07FC00
FF07FE00
FF03FF80
FF03FFC0
FF01FFF0
FF00FFF8
FF003FF8
FF000FFC
FF0007FC
FF0003FE
FF0003FE
FF0003FE
FF0003FE
FF0003FE
FF0787FC
FF0FFFFC
FF0FFFFC
FF0FFFF8
FF0FFFF8
FF0FFFF0
FF0FFFC0
0000FE00
ENDCHAR
STARTCHAR 00E0
ENCODING 224
SWIDTH 495 0
DWIDTH 33 0
BBX 26 47 3 -1
BITMAP
00200000
00700000
00FC0000
00FE0000
01FF8000
03FFC000
01FFE000
007FF000
001FF000
0007E000
0001C000
00004000
00000000
00000000
03FFE000
1FFFF800
1FFFFE00
1FFFFF00
1FFFFF00
0FFFFF80
0FFFFF80
0800FFC0
00007FC0
00003FC0
00003FC0
00003FC0
00001FC0
01FFFFC0
0FFFFFC0
1FFFFFC0
3FFFFFC0
7FFFFFC0
7FF8FFC0
FF801FC0
FF001FC0
FF001FC0
FF001FC0
FF001FC0
FF801FC0
FFC01FC0
7FFFFFC0
7FFFFFC0
3FFFFFC0
3FFFFFC0
0FFFFFC0
07FFFF80
003FC000
ENDCHAR
STARTCHAR 00E1
ENCODING 225
SWIDTH 495 0
DWIDTH 33 0
BBX 26 47 3 -1
BITMAP
00004000
0001E000
0003E000
0007F000
001FF800
003FF800
00FFF800
01FFE000
00FF8000
007E0000
00780000
00200000
00000000
00000000
03FFE000
1FFFF800
1FFFFE00
1FFFFF00
1FFFFF00
0FFFFF80
0FFFFF80
0800FFC0
00007FC0
00003FC0
00003FC0
00003FC0
00001FC0
01FFFFC0
0FFFFFC0
1FFFFFC0
3FFFFFC0
7FFFFFC0
7FF8FFC0
FF801FC0
FF001FC0
FF001FC0
FF001FC0
FF001FC0
FF801FC0
FFC01FC0
7FFFFFC0
7FFFFFC0
3FFFFFC0
3FFFFFC0
0FFFFFC0
07FFFF80
003FC000
ENDCHAR
STARTCHAR 00E2
ENCODING 226
SWIDTH 495 0
DWIDTH 33 0
BBX 26 47 3 -1
BITMAP
00040000
000F0000
001F8000
003FC000
007FE000
01FFF000
03FFF800
07FFFC00
07F1FE00
03E07C00
01C03800
01801000
00000000
00000000
03FFE000
1FFFF800
1FFFFE00
1FFFFF00
1FFFFF00
0FFFFF80
0FFFFF80
0800FFC0
00007FC0
00003FC0
00003FC0
00003FC0
00001FC0
01FFFFC0
0FFFFFC0
1FFFFFC0
3FFFFFC0
7FFFFFC0
7FF8FFC0
FF801FC0
FF001FC0
FF001FC0
FF001FC0
FF001FC0
FF801FC0
FFC01FC0
7FFFFFC0
7FFFFFC0
3FFFFFC0
3FFFFFC0
0FFFFFC0
07FFFF80
003FC000
ENDCHAR
STARTCHAR 00E3
ENCODING 227
SWIDTH 495 0
DWIDTH 33 0
BBX 26 46 3 -1
BITMAP
00000800
01F80E00
03FFBF00
07FFFF00
0FFFFF00
0FFFFE00
1FFFFC00
0F07F800
0201E000
00000000
00000000
00000000
00000000
03FFE000
1FFFF800
1FFFFE00
1FFFFF00
1FFFFF00
0FFFFF80
0FFFFF80
0800FFC0
00007FC0
00003FC0
00003FC0
00003FC0
00001FC0
01FFFFC0
0FFFFFC0
1FFFFFC0
3FFFFFC0
7FFFFFC0
7FF8FFC0
FF801FC0
FF001FC0
FF001FC0
FF001FC0
FF001FC0
FF801FC0
FFC01FC0
7FFFFFC0
7FFFFFC0
3FFFFFC0
3FFFFFC0
0FFFFFC0
07FFFF80
003FC000
ENDCHAR
STARTCHAR 00E4
ENCODING 228
SWIDTH 495 0
DWIDTH 33 0
BBX 26 46 3 -1
BITMAP
07801C00
0FE07F00
1FE0FF80
1FF0FF80
1FF0FF80
1FF0FF80
1FE0FF80
1FE07F00
07C03E00
00000000
00000000
00000000
00000000
03FFE000
1FFFF800
1FFFFE00
1FFFFF00
1FFFFF00
0FFFFF80
0FFFFF80
0800FFC0
00007FC0
00003FC0
00003FC0
00003FC0
00001FC0
01FFFFC0
0FFFFFC0
1FFFFFC0
3FFFFFC0
7FFFFFC0
7FF8FFC0
FF801FC0
FF001FC0
FF001FC0
FF001FC0
FF001FC0
FF801FC0
FFC01FC0
7FFFFFC0
7FFFFFC0
3FFFFFC0
3FFFFFC0
0FFFFFC0
07FFFF80
003FC000
ENDCHAR
STARTCHAR 00E5
ENCODING 229
SWIDTH 495 0
DWIDTH 33 0
BBX 26 48 3 -1
BITMAP
003F8000
007FC000
00FFE000
01FFF000
01F1F000
01E0F800
01E0F800
01E0F800
01F0F000
01FBF000
00FFF000
00FFE000
003FC000
00040000
00000000
03FFE000
1FFFF800
1FFFFE00
1FFFFF00
1FFFFF00
0FFFFF80
0FFFFF80
0800FFC0
00007FC0
00003FC0
00003FC0
00003FC0
00001FC0
01FFFFC0
0FFFFFC0
1FFFFFC0
3FFFFFC0
7FFFFFC0
7FF8FFC0
FF801FC0
FF001FC0
FF001FC0
FF001FC0
FF001FC0
FF801FC0
FFC01FC0
7FFFFFC0
7FFFFFC0
3FFFFFC0
3FFFFFC0
0FFFFFC0
07FFFF80
003FC000
ENDCHAR
STARTCHAR 00E6
ENCODING 230
SWIDTH 495 0
DWIDTH 33 0
BBX 31 33 2 -1
BITMAP
07F01F80
3FFC3FC0
3FFE7FE0
3FFFFFF0
3FFFFFF8
1FFFFFF8
1FFFFBF8
101FF1FC
000FE0FC
000FE0FC
000FE0FC
000FE0FC
000FE0FC
07FFFFFC
1FFFFFFE
3FFFFFFE
7FFFFFFE
FFFFFFFE
FF9FFFFC
FE0FC000
FC0FE000
FC0FE000
FC0FE000
FC0FF000
FC07F000
FE07FC30
FFFFFFF8
7FFFFFF8
7FFFFFF8
3FFFFFF8
1FFE7FF8
0FFC3FF8
01E00780
ENDCHAR
STARTCHAR 00E7
ENCODING 231
SWIDTH 495 0
DWIDTH 33 0
BBX 28 43 3 -11
BITMAP
000FFF00
007FFFE0
01FFFFE0
03FFFFE0
0FFFFFE0
0FFFFFC0
1FFFFFC0
3FFC01C0
3FF00000
7FE00000
7FC00000
7F800000
FF800000
FF800000
FF000000
FF000000
FF000000
FF000000
FF000000
FF800000
FF800000
7F800000
7FC00000
7FE00000
3FF80000
3FFF8FE0
1FFFFFE0
0FFFFFE0
07FFFFF0
03FFFFF0
01FFFFF0
003FFFE0
000FFA00
000F8000
001FE000
0007F000
0001F800
0001F800
0083F800
00FFF800
00FFF000
00FFE000
00FFC000
ENDCHAR
STARTCHAR 00E8
ENCODING 232
SWIDTH 495 0
DWIDTH 33 0
BBX 29 47 2 -1
BITMAP
00100000
00380000
007E0000
007F0000
00FFC000
01FFE000
00FFF000
003FF800
000FF800
0003F000
0000E000
00002000
00000000
00000000
001FF000
00FFFC00
01FFFF00
07FFFF80
0FFFFFC0
1FFFFFE0
1FFFFFE0
3FF03FF0
3FE01FF0
7FC00FF0
7F8007F0
7F8007F8
FF8007F8
FFFFFFF8
FFFFFFF8
FFFFFFF8
FFFFFFF8
FFFFFFF8
FFFFFFF8
FF800000
FF800000
7F800000
7FC00000
7FE00000
3FF000C0
3FFF9FC0
1FFFFFC0
0FFFFFE0
07FFFFE0
03FFFFE0
01FFFFE0
007FFFC0
0007F800
ENDCHAR
STARTCHAR 00E9
ENCODING 233
SWIDTH 495 0
DWIDTH 33 0
BBX 29 47 2 -1
BITMAP
00003000
00007000
0000F800
0003FC00
0007FC00
001FFE00
003FFE00
007FF800
003FE000
003F8000
001C0000
00000000
00000000
00000000
001FF000
00FFFC00
01FFFF00
07FFFF80
0FFFFFC0
1FFFFFE0
1FFFFFE0
3FF03FF0
3FE01FF0
7FC00FF0
7F8007F0
7F8007F8
FF8007F8
FFFFFFF8
FFFFFFF8
FFFFFFF8
FFFFFFF8
FFFFFFF8
FFFFFFF8
FF800000
FF800000
7F800000
7FC00000
7FE00000
3FF000C0
3FFF9FC0
1FFFFFC0
0FFFFFE0
07FFFFE0
03FFFFE0
01FFFFE0
007FFFC0
0007F800
ENDCHAR
STARTCHAR 00EA
ENCODING 234
SWIDTH 495 0
DWIDTH 33 0
BBX 29 47 2 -1
BITMAP
00030000
00078000
000FC000
001FE000
003FF000
007FF800
00FFFE00
03FFFF00
03FCFF00
01F03E00
00E01C00
00400800
00000000
00000000
001FF000
00FFFC00
01FFFF00
07FFFF80
0FFFFFC0
1FFFFFE0
1FFFFFE0
3FF03FF0
3FE01FF0
7FC00FF0
7F8007F0
7F8007F8
FF8007F8
FFFFFFF8
FFFFFFF8
FFFFFFF8
FFFFFFF8
FFFFFFF8
FFFFFFF8
FF800000
FF800000
7F800000
7FC00000
7FE00000
3FF000C0
3FFF9FC0
1FFFFFC0
0FFFFFE0
07FFFFE0
03FFFFE0
01FFFFE0
007FFFC0
0007F800
ENDCHAR
STARTCHAR 00EB
ENCODING 235
SWIDTH 495 0
DWIDTH 33 0
BBX 29 46 2 -1
BITMAP
03C00E00
07F03F80
0FF07FC0
0FF87FC0
0FF87FC0
0FF87FC0
0FF07FC0
0FF03F80
03E01F00
00000000
00000000
00000000
00000000
001FF000
00FFFC00
01FFFF00
07FFFF80
0FFFFFC0
1FFFFFE0
1FFFFFE0
3FF03FF0
3FE01FF0
7FC00FF0
7F8007F0
7F8007F8
FF8007F8
FFFFFFF8
FFFFFFF8
FFFFFFF8
FFFFFFF8
FFFFFFF8
FFFFFFF8
FF800000
FF800000
7F800000
7FC00000
7FE00000
3FF000C0
3FFF9FC0
1FFFFFC0
0FFFFFE0
07FFFFE0
03FFFFE0
01FFFFE0
007FFFC0
0007F800
ENDCHAR
STARTCHAR 00EC
ENCODING 236
SWIDTH 495 0
DWIDTH 33 0
BBX 29 47 2 -1
BITMAP
00600000
00700000
00FC0000
00FE0000
01FF0000
03FFC000
03FFE000
00FFF000
001FF000
0007E000
0001C000
00004000
00000000
00000000
00000000
FFFF8000
FFFF8000
FFFF8000
FFFF8000
FFFF8000
FFFF8000
007F8000
007F8000
007F8000
007F8000
007F8000
007F8000
007F8000
007F8000
007F8000
007F8000
007F8000
007F8000
007F8000
007F8000
007F8000
007FC000
007FC000
003FE010
003FF9F0
003FFFF0
003FFFF8
001FFFF8
000FFFF8
0007FFF8
0003FFE0
00007C00
ENDCHAR
STARTCHAR 00ED
ENCODING 237
SWIDTH 495 0
DWIDTH 33 0
BBX 29 47 2 -1
BITMAP
00004000
0000E000
0003F000
0007F000
001FF800
003FF800
007FF800
01FFE000
00FF8000
007E0000
00780000
00200000
00000000
00000000
00000000
FFFF8000
FFFF8000
FFFF8000
FFFF8000
FFFF8000
FFFF8000
007F8000
007F8000
007F8000
007F8000
007F8000
007F8000
007F8000
007F8000
007F8000
007F8000
007F8000
007F8000
007F8000
007F8000
007F8000
007FC000
007FC000
003FE010
003FF9F0
003FFFF0
003FFFF8
001FFFF8
000FFFF8
0007FFF8
0003FFE0
00007C00
ENDCHAR
STARTCHAR 00EE
ENCODING 238
SWIDTH 495 0
DWIDTH 33 0
BBX 29 47 2 -1
BITMAP
00040000
000E0000
001F8000
003FC000
00FFE000
01FFF000
03FFF800
07FFFC00
07F1FE00
03E0FC00
03C03800
01001000
00000000
00000000
00000000
FFFF8000
FFFF8000
FFFF8000
FFFF8000
FFFF8000
FFFF8000
007F8000
007F8000
007F8000
007F8000
007F8000
007F8000
007F8000
007F8000
007F8000
007F8000
007F8000
007F8000
007F8000
007F8000
007F8000
007FC000
007FC000
003FE010
003FF9F0
003FFFF0
003FFFF8
001FFFF8
000FFFF8
0007FFF8
0003FFE0
00007C00
ENDCHAR
STARTCHAR 00EF
ENCODING 239
SWIDTH 495 0
DWIDTH 33 0
BBX 29 46 2 -1
BITMAP
07803C00
0FC07F00
1FE0FF00
3FE0FF80
3FF0FF80
3FF0FF80
1FE0FF80
1FE07F00
07803E00
00000000
00000000
00000000
00000000
00000000
FFFF8000
FFFF8000
FFFF8000
FFFF8000
FFFF8000
FFFF8000
007F8000
007F8000
007F8000
007F8000
007F8000
007F8000
007F8000
007F8000
007F8000
007F8000
007F8000
007F8000
007F8000
007F8000
007F8000
007FC000
007FC000
003FE010
003FF9F0
003FFFF0
003FFFF8
001FFFF8
000FFFF8
0007FFF8
0003FFE0
00007C00
ENDCHAR
STARTCHAR 00F0
ENCODING 240
SWIDTH 495 0
DWIDTH 33 0
BBX 29 47 3 -1
BITMAP
000E0000
001F0000
003F8000
007FC000
00FFE0F0
007FF7F0
003FFFF0
001FFFF8
000FFFF8
007FFFC0
00FFFE00
00FFFF00
007FFF00
007CFF80
00607F80
00007F80
00007FC0
00003FC0
007F3FC0
03FFFFC0
07FFFFE0
0FFFFFE0
1FFFFFE0
3FFFFFE0
7FFBFFE0
7FC03FE0
7F801FE0
FF801FE0
FF001FE0
FF001FE0
FF001FE0
FF001FE0
FF001FE0
FF003FE0
FF003FE0
FF803FE0
FF803FC0
FF807FC0
7FC0FFC0
7FF1FF80
3FFFFF80
3FFFFF00
1FFFFE00
0FFFFC00
07FFF800
01FFF000
003F8000
ENDCHAR
STARTCHAR 00F1
ENCODING 241
SWIDTH 495 0
DWIDTH 33 0
BBX 25 45 4 0
BITMAP
00001000
03F01C00
07FF7E00
0FFFFE00
1FFFFE00
1FFFFC00
3FFFF800
1E0FF000
0403C000
00000000
00000000
00000000
00000000
03FF8000
7FFFF000
FFFFF800
FFFFFC00
FFFFFE00
FFFFFF00
FFFFFF00
FF03FF80
FF00FF80
FF00FF80
FF007F80
FF007F80
FF007F80
FF007F80
FF007F80
FF007F80
FF007F80
FF007F80
FF007F80
FF007F80
FF007F80
FF007F80
FF007F80
FF007F80
FF007F80
FF007F80
FF007F80
FF007F80
FF007F80
FF007F80
FF007F80
FF007F80
ENDCHAR
STARTCHAR 00F2
ENCODING 242
SWIDTH 495 0
DWIDTH 33 0
BBX 29 47 2 -1
BITMAP
00100000
00380000
007E0000
007F0000
00FFC000
01FFE000
00FFF000
003FF800
000FF800
0003F000
0000E000
00002000
00000000
00000000
003FE000
00FFFC00
03FFFE00
07FFFF00
0FFFFF80
1FFFFFC0
3FFFFFE0
3FF07FF0
7FE01FF0
7FC00FF0
7F800FF8
FF800FF8
FF8007F8
FF0007F8
FF0007F8
FF0007F8
FF0007F8
FF0007F8
FF0007F8
FF8007F8
FF8007F8
7F800FF8
7F800FF8
7FC01FF0
3FE03FF0
3FF8FFE0
1FFFFFE0
1FFFFFC0
0FFFFF80
07FFFF00
01FFFE00
00FFF800
001FC000
ENDCHAR
STARTCHAR 00F3
ENCODING 243
SWIDTH 495 0
DWIDTH 33 0
BBX 29 47 2 -1
BITMAP
00006000
0000E000
0003F000
0007F000
000FF800
003FFC00
007FFC00
00FFF000
00FF8000
007E0000
00380000
00200000
00000000
00000000
003FE000
00FFFC00
03FFFE00
07FFFF00
0FFFFF80
1FFFFFC0
3FFFFFE0
3FF07FF0
7FE01FF0
7FC00FF0
7F800FF8
FF800FF8
FF8007F8
FF0007F8
FF0007F8
FF0007F8
FF0007F8
FF0007F8
FF0007F8
FF8007F8
FF8007F8
7F800FF8
7F800FF8
7FC01FF0
3FE03FF0
3FF8FFE0
1FFFFFE0
1FFFFFC0
0FFFFF80
07FFFF00
01FFFE00
00FFF800
001FC000
ENDCHAR
STARTCHAR 00F4
ENCODING 244
SWIDTH 495 0
DWIDTH 33 0
BBX 29 47 2 -1
BITMAP
00020000
00078000
000FC000
001FE000
003FF000
00FFF800
01FFFC00
03FFFE00
03F8FF00
01F03E00
00E01C00
00C00800
00000000
00000000
003FE000
00FFFC00
03FFFE00
07FFFF00
0FFFFF80
1FFFFFC0
3FFFFFE0
3FF07FF0
7FE01FF0
7FC00FF0
7F800FF8
FF800FF8
FF8007F8
FF0007F8
FF0007F8
FF0007F8
FF0007F8
FF0007F8
FF0007F8
FF8007F8
FF8007F8
7F800FF8
7F800FF8
7FC01FF0
3FE03FF0
3FF8FFE0
1FFFFFE0
1FFFFFC0
0FFFFF80
07FFFF00
01FFFE00
00FFF800
001FC000
ENDCHAR
STARTCHAR 00F5
ENCODING 245
SWIDTH 495 0
DWIDTH 33 0
BBX 29 46 2 -1
BITMAP
00000400
00FC0700
01FFDF80
03FFFF80
07FFFF80
07FFFF00
0FFFFE00
0783FC00
0100F000
00000000
00000000
00000000
00000000
003FE000
00FFFC00
03FFFE00
07FFFF00
0FFFFF80
1FFFFFC0
3FFFFFE0
3FF07FF0
7FE01FF0
7FC00FF0
7F800FF8
FF800FF8
FF8007F8
FF0007F8
FF0007F8
FF0007F8
FF0007F8
FF0007F8
FF0007F8
FF8007F8
FF8007F8
7F800FF8
7F800FF8
7FC01FF0
3FE03FF0
3FF8FFE0
1FFFFFE0
1FFFFFC0
0FFFFF80
07FFFF00
01FFFE00
00FFF800
001FC000
ENDCHAR
STARTCHAR 00F6
ENCODING 246
SWIDTH 495 0
DWIDTH 33 0
BBX 29 46 2 -1
BITMAP
03C00E00
07F03F80
0FF07FC0
0FF87FC0
0FF87FC0
0FF87FC0
0FF07FC0
0FF03F80
03E01F00
00000000
00000000
00000000
00000000
003FE000
00FFFC00
03FFFE00
07FFFF00
0FFFFF80
1FFFFFC0
3FFFFFE0
3FF07FF0
7FE01FF0
7FC00FF0
7F800FF8
FF800FF8
FF8007F8
FF0007F8
FF0007F8
FF0007F8
FF0007F8
FF0007F8
FF0007F8
FF8007F8
FF8007F8
7F800FF8
7F800FF8
7FC01FF0
3FE03FF0
3FF8FFE0
1FFFFFE0
1FFFFFC0
0FFFFF80
07FFFF00
01FFFE00
00FFF800
001FC000
ENDCHAR
STARTCHAR 00F7
ENCODING 247
SWIDTH 495 0
DWIDTH 33 0
BBX 28 35 3 0
BITMAP
00040000
001F8000
003FC000
007FC000
007FC000
007FC000
007FC000
007FC000
003F8000
001F0000
00000000
00000000
00000000
00000000
FFFFFFF0
FFFFFFF0
FFFFFFF0
FFFFFFF0
FFFFFFF0
FFFFFFF0
FFFFFFF0
00000000
00000000
00000000
00000000
001F0000
003F8000
007FC000
007FC000
007FC000
007FC000
007FC000
003FC000
001F8000
00060000
ENDCHAR
STARTCHAR 00F8
ENCODING 248
SWIDTH 495 0
DWIDTH 33 0
BBX 29 35 2 -3
BITMAP
000000C0
001FE1E0
00FFF9F8
03FFFFF0
07FFFFF0
0FFFFFE0
1FFFFFC0
1FFFFFE0
3FF87FE0
7FE07FF0
7FC07FF0
7F80FFF8
FF81FFF8
FF83FFF8
FF83F7F8
FF07E7F8
FF0FE7F8
FF1FC7F8
FF1F87F8
FF3F07F8
FF7F07F8
FFFE07F8
FFFC0FF8
7FFC0FF8
7FF81FF0
7FF03FF0
3FF87FE0
3FFFFFE0
1FFFFFC0
1FFFFF80
3FFFFF00
7FFFFE00
7EFFF800
3C1FE000
18000000
ENDCHAR
STARTCHAR 00F9
ENCODING 249
SWIDTH 495 0
DWIDTH 33 0
BBX 25 47 4 -1
BITMAP
00400000
00E00000
01F80000
01FC0000
03FF0000
07FF8000
03FFC000
00FFE000
003FE000
000FC000
00038000
00008000
00000000
00000000
00000000
FF007F80
FF007F80
FF007F80
FF007F80
FF007F80
FF007F80
FF007F80
FF007F80
FF007F80
FF007F80
FF007F80
FF007F80
FF007F80
FF007F80
FF007F80
FF007F80
FF007F80
FF007F80
FF007F80
FF007F80
FF807F80
FF807F80
FF807F80
7FC07F80
7FF3FF80
7FFFFF80
3FFFFF80
3FFFFF80
1FFFFF80
0FFFFF80
03FFFE00
003F8000
ENDCHAR
STARTCHAR 00FA
ENCODING 250
SWIDTH 495 0
DWIDTH 33 0
BBX 25 47 4 -1
BITMAP
00010000
00038000
000FC000
001FC000
007FE000
00FFE000
01FFE000
07FF8000
03FE0000
01F80000
01E00000
00800000
00000000
00000000
00000000
FF007F80
FF007F80
FF007F80
FF007F80
FF007F80
FF007F80
FF007F80
FF007F80
FF007F80
FF007F80
FF007F80
FF007F80
FF007F80
FF007F80
FF007F80
FF007F80
FF007F80
FF007F80
FF007F80
FF007F80
FF807F80
FF807F80
FF807F80
7FC07F80
7FF3FF80
7FFFFF80
3FFFFF80
3FFFFF80
1FFFFF80
0FFFFF80
03FFFE00
003F8000
ENDCHAR
STARTCHAR 00FB
ENCODING 251
SWIDTH 495 0
DWIDTH 33 0
BBX 25 47 4 -1
BITMAP
00080000
001E0000
003F0000
007F8000
00FFC000
03FFE000
07FFF000
0FFFF800
0FE3FC00
07C0F800
03807000
03002000
00000000
00000000
00000000
FF007F80
FF007F80
FF007F80
FF007F80
FF007F80
FF007F80
FF007F80
FF007F80
FF007F80
FF007F80
FF007F80
FF007F80
FF007F80
FF007F80
FF007F80
FF007F80
FF007F80
FF007F80
FF007F80
FF007F80
FF807F80
FF807F80
FF807F80
7FC07F80
7FF3FF80
7FFFFF80
3FFFFF80
3FFFFF80
1FFFFF80
0FFFFF80
03FFFE00
003F8000
ENDCHAR
STARTCHAR 00FC
ENCODING 252
SWIDTH 495 0
DWIDTH 33 0
BBX 25 46 4 -1
BITMAP
0F003800
1FC0FE00
3FC1FF00
3FE1FF00
3FE1FF00
3FE1FF00
3FC1FF00
3FC0FE00
0F807C00
00000000
00000000
00000000
00000000
00000000
FF007F80
FF007F80
FF007F80
FF007F80
FF007F80
FF007F80
FF007F80
FF007F80
FF007F80
FF007F80
FF007F80
FF007F80
FF007F80
FF007F80
FF007F80
FF007F80
FF007F80
FF007F80
FF007F80
FF007F80
FF807F80
FF807F80
FF807F80
7FC07F80
7FF3FF80
7FFFFF80
3FFFFF80
3FFFFF80
1FFFFF80
0FFFFF80
03FFFE00
003F8000
ENDCHAR
STARTCHAR 00FD
ENCODING 253
SWIDTH 495 0
DWIDTH 33 0
BBX 30 57 1 -11
BITMAP
00002000
00007000
0001F800
0003F800
000FFC00
001FFC00
003FFC00
00FFF000
007FC000
003F0000
003C0000
00100000
00000000
00000000
00000000
3FC003FC
3FC003FC
3FE007FC
1FE007F8
1FE007F8
1FF007F8
1FF007F8
0FF00FF0
0FF00FF0
0FF80FF0
07F80FE0
07F81FE0
07FC1FE0
03FC1FE0
03FC1FC0
03FE3FC0
01FE3FC0
01FE3F80
00FF3F80
00FF7F80
00FFFF00
007FFF00
007FFF00
003FFE00
003FFE00
001FFC00
001FFC00
000FFC00
000FF800
0007F800
000FF000
000FF000
001FF000
003FE000
207FE000
3FFFC000
7FFF8000
7FFF8000
7FFF0000
7FFE0000
FFFC0000
3FF00000
ENDCHAR
STARTCHAR 00FE
ENCODING 254
SWIDTH 495 0
DWIDTH 33 0
BBX 27 57 4 -11
BITMAP
0F000000
FF000000
FF000000
FF000000
FF000000
FF000000
FF000000
FF000000
FF000000
FF000000
FF000000
FF000000
FF000000
FF000000
FF7F8000
FFFFF000
FFFFF800
FFFFFE00
FFFFFE00
FFFFFF00
FFFFFF80
FF01FF80
FF00FFC0
FF007FC0
FF003FE0
FF003FE0
FF003FE0
FF001FE0
FF001FE0
FF001FE0
FF001FE0
FF001FE0
FF001FE0
FF001FE0
FF001FE0
FF003FE0
FF003FE0
FF007FC0
FF007FC0
FFF1FFC0
FFFFFF80
FFFFFF80
FFFFFF00
FFFFFE00
FFFFFC00
FF7FF000
FF07C000
FF000000
FF000000
FF000000
FF000000
FF000000
FF000000
FF000000
FF000000
FF000000
FF000000
ENDCHAR
STARTCHAR 00FF
ENCODING 255
SWIDTH 495 0
DWIDTH 33 0
BBX 30 56 1 -11
BITMAP
01E00700
03F81FC0
07F83FE0
07FC3FE0
07FC3FE0
07FC3FE0
07F83FE0
07F81FC0
01F00F80
00000000
00000000
00000000
00000000
00000000
3FC003FC
3FC003FC
3FE007FC
1FE007F8
1FE007F8
1FF007F8
1FF007F8
0FF00FF0
0FF00FF0
0FF80FF0
07F80FE0
07F81FE0
07FC1FE0
03FC1FE0
03FC1FC0
03FE3FC0
01FE3FC0
01FE3F80
00FF3F80
00FF7F80
00FFFF00
007FFF00
007FFF00
003FFE00
003FFE00
001FFC00
001FFC00
000FFC00
000FF800
0007F800
000FF000
000FF000
001FF000
003FE000
207FE000
3FFFC000
7FFF8000
7FFF8000
7FFF0000
7FFE0000
FFFC0000
3FF00000
ENDCHAR
STARTCHAR 0100
ENCODING 256
SWIDTH 495 0
DWIDTH 33 0
BBX 32 52 1 0
BITMAP
03FFFF80
03FFFF80
03FFFF80
03FFFF80
03FFFF80
00000000
00000000
00000000
00000000
00000000
00000000
001FF800
001FF800
003FF800
003FF800
003FFC00
003FFC00
007FFC00
007FFE00
007EFE00
00FEFE00
00FEFF00
00FE7F00
01FC7F00
01FC7F80
01FC7F80
03FC3F80
03F83F80
03F83FC0
03F83FC0
07F81FC0
07F01FE0
07F01FE0
0FF01FE0
0FF01FE0
0FF00FF0
0FFFFFF0
1FFFFFF0
1FFFFFF0
1FFFFFF8
3FFFFFF8
3FFFFFF8
3FC007F8
3FC007FC
7FC007FC
7F8003FC
7F8003FC
7F8003FE
FF8003FE
FF8003FE
FF0001FE
FF0001FF
ENDCHAR
STARTCHAR 0101
ENCODING 257
SWIDTH 495 0
DWIDTH 33 0
BBX 26 44 3 -1
BITMAP
0FFFFE00
0FFFFE00
0FFFFE00
0FFFFE00
0FFFFE00
0FFFFE00
00000000
00000000
00000000
00000000
00000000
03FFE000
1FFFF800
1FFFFE00
1FFFFF00
1FFFFF00
0FFFFF80
0FFFFF80
0800FFC0
00007FC0
00003FC0
00003FC0
00003FC0
00001FC0
01FFFFC0
0FFFFFC0
1FFFFFC0
3FFFFFC0
7FFFFFC0
7FF8FFC0
FF801FC0
FF001FC0
FF001FC0
FF001FC0
FF001FC0
FF801FC0
FFC01FC0
7FFFFFC0
7FFFFFC0
3FFFFFC0
3FFFFFC0
0FFFFFC0
07FFFF80
003FC000
ENDCHAR
STARTCHAR 0102
ENCODING 258
SWIDTH 495 0
DWIDTH 33 0
BBX 32 55 1 0
BITMAP
03F01F80
03F01F80
03F01F80
03F83F80
01FFFF80
01FFFF00
00FFFF00
007FFE00
003FFC00
000FF000
00000000
00000000
00000000
00000000
001FF800
001FF800
003FF800
003FF800
003FFC00
003FFC00
007FFC00
007FFE00
007EFE00
00FEFE00
00FEFF00
00FE7F00
01FC7F00
01FC7F80
01FC7F80
03FC3F80
03F83F80
03F83FC0
03F83FC0
07F81FC0
07F01FE0
07F01FE0
0FF01FE0
0FF01FE0
0FF00FF0
0FFFFFF0
1FFFFFF0
1FFFFFF0
1FFFFFF8
3FFFFFF8
3FFFFFF8
3FC007F8
3FC007FC
7FC007FC
7F8003FC
7F8003FC
7F8003FE
FF8003FE
FF8003FE
FF0001FE
FF0001FF
ENDCHAR
STARTCHAR 0103
ENCODING 259
SWIDTH 495 0
DWIDTH 33 0
BBX 26 46 3 -1
BITMAP
0FC07E00
0FC07E00
0FE0FE00
07F1FE00
07FFFC00
03FFFC00
03FFF800
01FFF000
007FC000
00000000
00000000
00000000
00000000
03FFE000
1FFFF800
1FFFFE00
1FFFFF00
1FFFFF00
0FFFFF80
0FFFFF80
0800FFC0
00007FC0
00003FC0
00003FC0
00003FC0
00001FC0
01FFFFC0
0FFFFFC0
1FFFFFC0
3FFFFFC0
7FFFFFC0
7FF8FFC0
FF801FC0
FF001FC0
FF001FC0
FF001FC0
FF001FC0
FF801FC0
FFC01FC0
7FFFFFC0
7FFFFFC0
3FFFFFC0
3FFFFFC0
0FFFFFC0
07FFFF80
003FC000
ENDCHAR
STARTCHAR 0104
ENCODING 260
SWIDTH 495 0
DWIDTH 33 0
BBX 33 52 1 -11
BITMAP
001FF80000
001FF80000
003FF80000
003FF80000
003FFC0000
003FFC0000
007FFC0000
007FFE0000
007EFE0000
00FEFE0000
00FEFF0000
00FE7F0000
01FC7F0000
01FC7F8000
01FC7F8000
03FC3F8000
03F83F8000
03F83FC000
03F83FC000
07F81FC000
07F01FE000
07F01FE000
0FF01FE000
0FF01FE000
0FF00FF000
0FFFFFF000
1FFFFFF000
1FFFFFF000
1FFFFFF800
3FFFFFF800
3FFFFFF800
3FC007F800
3FC007FC00
7FC007FC00
7F8003FC00
7F8003FC00
7F8003FE00
FF8003FE00
FF8003FE00
FF0001FE00
FF0001FF00
000000FE00
000001FC00
000003F800
000007F000
000007F000
000007E000
00000FF000
00000FFF00
000007FF00
000007FF80
000003FF00
ENDCHAR
STARTCHAR 0105
ENCODING 261
SWIDTH 495 0
DWIDTH 33 0
BBX 26 43 3 -11
BITMAP
03FFE000
1FFFF800
1FFFFE00
1FFFFF00
1FFFFF00
0FFFFF80
0FFFFF80
0800FFC0
00007FC0
00003FC0
00003FC0
00003FC0
00001FC0
01FFFFC0
0FFFFFC0
1FFFFFC0
3FFFFFC0
7FFFFFC0
7FF8FFC0
FF801FC0
FF001FC0
FF001FC0
FF001FC0
FF001FC0
FF801FC0
FFC01FC0
7FFFFFC0
7FFFFFC0
3FFFFFC0
3FFFFFC0
0FFFFFC0
07FFFFC0
003FBF80
00007F00
0000FE00
0001FC00
0001F800
0003F800
0003F800
0003FFC0
0003FFC0
0001FFC0
0000FFC0
ENDCHAR
STARTCHAR 0106
ENCODING 262
SWIDTH 495 0
DWIDTH 33 0
BBX 29 56 2 -1
BITMAP
00000C00
00003C00
00007E00
0000FF00
0003FF00
0007FF80
001FFF00
001FFC00
001FF000
000FC000
00070000
00000000
00000000
0007FF00
003FFFE0
007FFFF8
01FFFFF8
03FFFFF8
07FFFFF0
0FFFFFF0
1FFE01F0
1FF80020
3FF00000
3FE00000
7FC00000
7FC00000
7F800000
FF800000
FF800000
FF000000
FF000000
FF000000
FF000000
FF000000
FF000000
FF000000
FF000000
FF000000
FF000000
FF800000
FF800000
FF800000
7F800000
7FC00000
7FC00000
3FE00000
3FF00000
1FF80070
1FFF03F0
0FFFFFF0
07FFFFF0
07FFFFF8
01FFFFF8
00FFFFF0
003FFFC0
0007FC00
ENDCHAR
STARTCHAR 0107
ENCODING 263
SWIDTH 495 0
DWIDTH 33 0
BBX 28 47 3 -1
BITMAP
00001000
00007000
0000F800
0003FC00
0007FC00
000FFE00
003FFE00
007FF800
003FE000
003F8000
001E0000
00080000
00000000
00000000
000FFF00
007FFFE0
01FFFFE0
03FFFFE0
0FFFFFE0
0FFFFFC0
1FFFFFC0
3FFC01C0
3FF00000
7FE00000
7FC00000
7F800000
FF800000
FF800000
FF000000
FF000000
FF000000
FF000000
FF000000
FF800000
FF800000
7F800000
7FC00000
7FE00000
3FF80000
3FFF8FE0
1FFFFFE0
0FFFFFE0
07FFFFF0
03FFFFF0
00FFFFF0
003FFFE0
0001FA00
ENDCHAR
STARTCHAR 0108
ENCODING 264
SWIDTH 495 0
DWIDTH 33 0
BBX 29 56 2 -1
BITMAP
00006000
0000F000
0001FC00
0003FE00
0007FF00
000FFF80
001FFFC0
007FDFE0
003F8FE0
001E07C0
001C0180
00080080
00000000
0007FF00
003FFFE0
007FFFF8
01FFFFF8
03FFFFF8
07FFFFF0
0FFFFFF0
1FFE01F0
1FF80020
3FF00000
3FE00000
7FC00000
7FC00000
7F800000
FF800000
FF800000
FF000000
FF000000
FF000000
FF000000
FF000000
FF000000
FF000000
FF000000
FF000000
FF000000
FF800000
FF800000
FF800000
7F800000
7FC00000
7FC00000
3FE00000
3FF00000
1FF80070
1FFF03F0
0FFFFFF0
07FFFFF0
07FFFFF8
01FFFFF8
00FFFFF0
003FFFC0
0007FC00
ENDCHAR
STARTCHAR 0109
ENCODING 265
SWIDTH 495 0
DWIDTH 33 0
BBX 28 47 3 -1
BITMAP
00008000
0001E000
0003F000
0007F800
000FFC00
003FFE00
007FFF00
00FFFF80
00FE3FC0
007C0F80
00380700
00300200
00000000
00000000
000FFF00
007FFFE0
01FFFFE0
03FFFFE0
0FFFFFE0
0FFFFFC0
1FFFFFC0
3FFC01C0
3FF00000
7FE00000
7FC00000
7F800000
FF800000
FF800000
FF000000
FF000000
FF000000
FF000000
FF000000
FF800000
FF800000
7F800000
7FC00000
7FE00000
3FF80000
3FFF8FE0
1FFFFFE0
0FFFFFE0
07FFFFF0
03FFFFF0
00FFFFF0
003FFFE0
0001FA00
ENDCHAR
STARTCHAR 010A
ENCODING 266
SWIDTH 495 0
DWIDTH 33 0
BBX 29 55 2 -1
BITMAP
0000F800
0003FC00
0003FE00
0003FE00
0003FE00
0003FE00
0003FE00
0001FC00
0000F000
00000000
00000000
00000000
0007FF00
003FFFE0
007FFFF8
01FFFFF8
03FFFFF8
07FFFFF0
0FFFFFF0
1FFE01F0
1FF80020
3FF00000
3FE00000
7FC00000
7FC00000
7F800000
FF800000
FF800000
FF000000
FF000000
FF000000
FF000000
FF000000
FF000000
FF000000
FF000000
FF000000
FF000000
FF800000
FF800000
FF800000
7F800000
7FC00000
7FC00000
3FE00000
3FF00000
1FF80070
1FFF03F0
0FFFFFF0
07FFFFF0
07FFFFF8
01FFFFF8
00FFFFF0
003FFFC0
0007FC00
ENDCHAR
STARTCHAR 010B
ENCODING 267
SWIDTH 495 0
DWIDTH 33 0
BBX 28 46 3 -1
BITMAP
0001E000
0003F800
0007FC00
0007FC00
0007FC00
0007FC00
0007FC00
0007F800
0001F000
00000000
00000000
00000000
00000000
000FFF00
007FFFE0
01FFFFE0
03FFFFE0
0FFFFFE0
0FFFFFC0
1FFFFFC0
3FFC01C0
3FF00000
7FE00000
7FC00000
7F800000
FF800000
FF800000
FF000000
FF000000
FF000000
FF000000
FF000000
FF800000
FF800000
7F800000
7FC00000
7FE00000
3FF80000
3FFF8FE0
1FFFFFE0
0FFFFFE0
07FFFFF0
03FFFFF0
00FFFFF0
003FFFE0
0001FA00
ENDCHAR
STARTCHAR 010C
ENCODING 268
SWIDTH 495 0
DWIDTH 33 0
BBX 29 56 2 -1
BITMAP
00080180
001E03C0
003F07E0
007F9FF0
003FFFE0
001FFF80
000FFF00
0007FE00
0001FC00
0000F800
00007000
00002000
00000000
0007FF00
003FFFE0
007FFFF8
01FFFFF8
03FFFFF8
07FFFFF0
0FFFFFF0
1FFE01F0
1FF80020
3FF00000
3FE00000
7FC00000
7FC00000
7F800000
FF800000
FF800000
FF000000
FF000000
FF000000
FF000000
FF000000
FF000000
FF000000
FF000000
FF000000
FF000000
FF800000
FF800000
FF800000
7F800000
7FC00000
7FC00000
3FE00000
3FF00000
1FF80070
1FFF03F0
0FFFFFF0
07FFFFF0
07FFFFF8
01FFFFF8
00FFFFF0
003FFFC0
0007FC00
ENDCHAR
STARTCHAR 010D
ENCODING 269
SWIDTH 495 0
DWIDTH 33 0
BBX 28 47 3 -1
BITMAP
00100300
00380780
007E0F80
00FF1FC0
007FFFC0
003FFF80
001FFF00
000FFC00
0007F800
0003F000
0000E000
00004000
00000000
00000000
000FFF00
007FFFE0
01FFFFE0
03FFFFE0
0FFFFFE0
0FFFFFC0
1FFFFFC0
3FFC01C0
3FF00000
7FE00000
7FC00000
7F800000
FF800000
FF800000
FF000000
FF000000
FF000000
FF000000
FF000000
FF800000
FF800000
7F800000
7FC00000
7FE00000
3FF80000
3FFF8FE0
1FFFFFE0
0FFFFFE0
07FFFFF0
03FFFFF0
00FFFFF0
003FFFE0
0001FA00
ENDCHAR
STARTCHAR 010E
ENCODING 270
SWIDTH 495 0
DWIDTH 33 0
BBX 28 56 4 -1
BITMAP
08018000
1E03C000
3F07E000
7F9FF000
3FFFE000
1FFFC000
0FFF0000
03FE0000
01FC0000
00F80000
00700000
00200000
00000000
07F80000
FFFF8000
FFFFE000
FFFFF800
FFFFFC00
FFFFFE00
FFFFFF00
FF9FFF00
FF01FF80
FF00FF80
FF007FC0
FF007FC0
FF003FC0
FF003FE0
FF003FE0
FF001FE0
FF001FE0
FF001FE0
FF001FE0
FF001FE0
FF001FF0
FF001FF0
FF001FF0
FF001FE0
FF001FE0
FF001FE0
FF001FE0
FF001FE0
FF003FE0
FF003FE0
FF003FC0
FF007FC0
FF00FFC0
FF01FF80
FF03FF80
FFFFFF00
FFFFFE00
FFFFFC00
FFFFF800
FFFFF000
FFFFC000
FFFF0000
02800000
ENDCHAR
STARTCHAR 010F
ENCODING 271
SWIDTH 495 0
DWIDTH 33 0
BBX 33 47 1 -1
BITMAP
00001F3F80
0001FF3F80
0001FF3F80
0001FF3F80
0001FF3F80
0001FF3F80
0001FF3F80
0001FF3F80
0001FF3F00
0001FF3F00
0001FF3F00
0001FF3F00
0001FF3F00
0001FF3F00
01F9FF0000
07FFFF0000
0FFFFF0000
1FFFFF0000
3FFFFF0000
3FFFFF0000
7FFFFF0000
7FC3FF0000
7F81FF0000
7F81FF0000
FF81FF0000
FF81FF0000
FF01FF0000
FF01FF0000
FF01FF0000
FF01FF0000
FF01FF0000
FF01FF0000
FF01FF0000
FF01FF0000
FF81FF0000
FF81FF0000
FF81FF0000
7FC1FF0000
7FC1FF0000
7FF3FF0000
3FFFFF0000
3FFFFF0000
1FFFFF0000
0FFFFF0000
07FFFF0000
01FFFC0000
003F000000
ENDCHAR
STARTCHAR 0110
ENCODING 272
SWIDTH 495 0
DWIDTH 33 0
BBX 31 43 1 -1
BITMAP
007F8000
0FFFF800
0FFFFE00
0FFFFF00
0FFFFF80
0FFFFFC0
0FFFFFE0
0FF9FFE0
0FF03FF0
0FF01FF0
0FF00FF8
0FF007F8
0FF007FC
0FF007FC
0FF003FC
0FF003FC
0FF003FC
FFFF83FC
FFFF83FC
FFFF83FC
FFFF83FE
FFFF83FE
FFFF83FE
FFFF83FC
0FF003FC
0FF003FC
0FF003FC
0FF003FC
0FF007FC
0FF007FC
0FF007F8
0FF00FF8
0FF01FF8
0FF01FF0
0FF07FF0
0FFFFFE0
0FFFFFC0
0FFFFFC0
0FFFFF00
0FFFFE00
0FFFFC00
0FFFE000
000C0000
ENDCHAR
STARTCHAR 0111
ENCODING 273
SWIDTH 495 0
DWIDTH 33 0
BBX 30 47 2 -1
BITMAP
000003C0
00003FC0
00003FC0
00003FC0
00003FC0
003FFFFC
003FFFFC
003FFFFC
003FFFFC
003FFFFC
003FFFFC
00003FC0
00003FC0
00003FC0
007F3FC0
03FFFFC0
07FFFFC0
0FFFFFC0
1FFFFFC0
3FFFFFC0
3FFFFFC0
7FF0FFC0
7FC03FC0
7F803FC0
FF803FC0
FF803FC0
FF003FC0
FF003FC0
FF003FC0
FF003FC0
FF003FC0
FF003FC0
FF003FC0
FF003FC0
FF803FC0
FF803FC0
7F803FC0
7FC03FC0
7FE03FC0
3FF87FC0
3FFFFFC0
1FFFFFC0
0FFFFFC0
07FFFFC0
03FFFFC0
00FFFF80
000FC000
ENDCHAR
STARTCHAR 0112
ENCODING 274
SWIDTH 495 0
DWIDTH 33 0
BBX 27 52 4 0
BITMAP
1FFFFC00
1FFFFC00
1FFFFC00
1FFFFC00
1FFFFC00
00000000
00000000
00000000
00000000
00000000
00000000
FFFFFF80
FFFFFF80
FFFFFF80
FFFFFF80
FFFFFF80
FFFFFF80
FFFFFF80
FF000000
FF000000
FF000000
FF000000
FF000000
FF000000
FF000000
FF000000
FF000000
FFFFFE00
FFFFFE00
FFFFFE00
FFFFFE00
FFFFFE00
FFFFFE00
FFFFFE00
FF000000
FF000000
FF000000
FF000000
FF000000
FF000000
FF000000
FF000000
FF000000
FF000000
FF000000
FFFFFFE0
FFFFFFE0
FFFFFFE0
FFFFFFE0
FFFFFFE0
FFFFFFE0
FFFFFFE0
ENDCHAR
STARTCHAR 0113
ENCODING 275
SWIDTH 495 0
DWIDTH 33 0
BBX 29 44 2 -1
BITMAP
07FFFF00
07FFFF00
07FFFF00
07FFFF00
07FFFF00
07FFFF00
00000000
00000000
00000000
00000000
00000000
001FF000
00FFFC00
01FFFF00
07FFFF80
0FFFFFC0
1FFFFFE0
1FFFFFE0
3FF03FF0
3FE01FF0
7FC00FF0
7F8007F0
7F8007F8
FF8007F8
FFFFFFF8
FFFFFFF8
FFFFFFF8
FFFFFFF8
FFFFFFF8
FFFFFFF8
FF800000
FF800000
7F800000
7FC00000
7FE00000
3FF000C0
3FFF9FC0
1FFFFFC0
0FFFFFE0
07FFFFE0
03FFFFE0
01FFFFE0
007FFFC0
0007F800
ENDCHAR
STARTCHAR 0114
ENCODING 276
SWIDTH 495 0
DWIDTH 33 0
BBX 27 55 4 0
BITMAP
1F80FC00
1F80FC00
1F80FC00
1FC1FC00
0FFFFC00
0FFFF800
07FFF800
03FFF000
01FFE000
007F8000
00000000
00000000
00000000
00000000
FFFFFF80
FFFFFF80
FFFFFF80
FFFFFF80
FFFFFF80
FFFFFF80
FFFFFF80
FF000000
FF000000
FF000000
FF000000
FF000000
FF000000
FF000000
FF000000
FF000000
FFFFFE00
FFFFFE00
FFFFFE00
FFFFFE00
FFFFFE00
FFFFFE00
FFFFFE00
FF000000
FF000000
FF000000
FF000000
FF000000
FF000000
FF000000
FF000000
FF000000
FF000000
FF000000
FFFFFFE0
FFFFFFE0
FFFFFFE0
FFFFFFE0
FFFFFFE0
FFFFFFE0
FFFFFFE0
ENDCHAR
STARTCHAR 0115
ENCODING 277
SWIDTH 495 0
DWIDTH 33 0
BBX 29 46 2 -1
BITMAP
07E03F00
07E03F00
07F07F00
03F8FF00
03FFFE00
01FFFE00
01FFFC00
00FFF800
003FE000
00000000
00000000
00000000
00000000
001FF000
00FFFC00
01FFFF00
07FFFF80
0FFFFFC0
1FFFFFE0
1FFFFFE0
3FF03FF0
3FE01FF0
7FC00FF0
7F8007F0
7F8007F8
FF8007F8
FFFFFFF8
FFFFFFF8
FFFFFFF8
FFFFFFF8
FFFFFFF8
FFFFFFF8
FF800000
FF800000
7F800000
7FC00000
7FE00000
3FF000C0
3FFF9FC0
1FFFFFC0
0FFFFFE0
07FFFFE0
03FFFFE0
01FFFFE0
007FFFC0
0007F800
ENDCHAR
STARTCHAR 0116
ENCODING 278
SWIDTH 495 0
DWIDTH 33 0
BBX 27 54 4 0
BITMAP
003E0000
007F0000
00FF8000
00FF8000
00FF8000
00FF8000
00FF8000
007F0000
003E0000
00000000
00000000
00000000
00000000
FFFFFF80
FFFFFF80
FFFFFF80
FFFFFF80
FFFFFF80
FFFFFF80
FFFFFF80
FF000000
FF000000
FF000000
FF000000
FF000000
FF000000
FF000000
FF000000
FF000000
FFFFFE00
FFFFFE00
FFFFFE00
FFFFFE00
FFFFFE00
FFFFFE00
FFFFFE00
FF000000
FF000000
FF000000
FF000000
FF000000
FF000000
FF000000
FF000000
FF000000
FF000000
FF000000
FFFFFFE0
FFFFFFE0
FFFFFFE0
FFFFFFE0
FFFFFFE0
FFFFFFE0
FFFFFFE0
ENDCHAR
STARTCHAR 0117
ENCODING 279
SWIDTH 495 0
DWIDTH 33 0
BBX 29 46 2 -1
BITMAP
000F8000
001FC000
003FE000
003FE000
003FE000
003FE000
003FE000
001FC000
000F8000
00000000
00000000
00000000
00000000
001FF000
00FFFC00
01FFFF00
07FFFF80
0FFFFFC0
1FFFFFE0
1FFFFFE0
3FF03FF0
3FE01FF0
7FC00FF0
7F8007F0
7F8007F8
FF8007F8
FFFFFFF8
FFFFFFF8
FFFFFFF8
FFFFFFF8
FFFFFFF8
FFFFFFF8
FF800000
FF800000
7F800000
7FC00000
7FE00000
3FF000C0
3FFF9FC0
1FFFFFC0
0FFFFFE0
07FFFFE0
03FFFFE0
01FFFFE0
007FFFC0
0007F800
ENDCHAR
STARTCHAR 0118
ENCODING 280
SWIDTH 495 0
DWIDTH 33 0
BBX 28 52 4 -11
BITMAP
FFFFFF80
FFFFFF80
FFFFFF80
FFFFFF80
FFFFFF80
FFFFFF80
FFFFFF80
FF000000
FF000000
FF000000
FF000000
FF000000
FF000000
FF000000
FF000000
FF000000
FFFFFE00
FFFFFE00
FFFFFE00
FFFFFE00
FFFFFE00
FFFFFE00
FFFFFE00
FF000000
FF000000
FF000000
FF000000
FF000000
FF000000
FF000000
FF000000
FF000000
FF000000
FF000000
FFFFFFE0
FFFFFFE0
FFFFFFE0
FFFFFFE0
FFFFFFE0
FFFFFFE0
FFFFFFE0
00001FC0
00003F80
00007F00
0000FE00
0000FE00
0000FC00
0001FE00
0001FFE0
0000FFE0
0000FFF0
00007FE0
ENDCHAR
STARTCHAR 0119
ENCODING 281
SWIDTH 495 0
DWIDTH 33 0
BBX 29 43 2 -11
BITMAP
001FF000
00FFFC00
01FFFF00
07FFFF80
0FFFFFC0
1FFFFFE0
1FFFFFE0
3FF03FF0
3FE01FF0
7FC00FF0
7F8007F0
7F8007F8
FF8007F8
FFFFFFF8
FFFFFFF8
FFFFFFF8
FFFFFFF8
FFFFFFF8
FFFFFFF8
FF800000
FF800000
7F800000
7FC00000
7FE00000
3FF000C0
3FFF9FC0
1FFFFFC0
0FFFFFE0
07FFFFE0
03FFFFE0
01FFFFE0
007FFFC0
0007FF80
00007F00
0000FE00
0001FC00
0001FC00
0001F800
0003FC00
0003FFC0
0001FFC0
0001FFE0
0000FFC0
ENDCHAR
STARTCHAR 011A
ENCODING 282
SWIDTH 495 0
DWIDTH 33 0
BBX 27 55 4 0
BITMAP
03002000
0780F000
0FC1F800
0FF3FC00
0FFFF800
03FFF000
01FFE000
00FFC000
007F0000
003E0000
001C0000
00080000
00000000
00000000
FFFFFF80
FFFFFF80
FFFFFF80
FFFFFF80
FFFFFF80
FFFFFF80
FFFFFF80
FF000000
FF000000
FF000000
FF000000
FF000000
FF000000
FF000000
FF000000
FF000000
FFFFFE00
FFFFFE00
FFFFFE00
FFFFFE00
FFFFFE00
FFFFFE00
FFFFFE00
FF000000
FF000000
FF000000
FF000000
FF000000
FF000000
FF000000
FF000000
FF000000
FF000000
FF000000
FFFFFFE0
FFFFFFE0
FFFFFFE0
FFFFFFE0
FFFFFFE0
FFFFFFE0
FFFFFFE0
ENDCHAR
STARTCHAR 011B
ENCODING 283
SWIDTH 495 0
DWIDTH 33 0
BBX 29 47 2 -1
BITMAP
00800800
01E01C00
01F07E00
03F8FF00
03FFFE00
01FFFC00
00FFF800
003FF000
001FE000
000FC000
00070000
00020000
00000000
00000000
001FF000
00FFFC00
01FFFF00
07FFFF80
0FFFFFC0
1FFFFFE0
1FFFFFE0
3FF03FF0
3FE01FF0
7FC00FF0
7F8007F0
7F8007F8
FF8007F8
FFFFFFF8
FFFFFFF8
FFFFFFF8
FFFFFFF8
FFFFFFF8
FFFFFFF8
FF800000
FF800000
7F800000
7FC00000
7FE00000
3FF000C0
3FFF9FC0
1FFFFFC0
0FFFFFE0
07FFFFE0
03FFFFE0
01FFFFE0
007FFFC0
0007F800
ENDCHAR
STARTCHAR 011C
ENCODING 284
SWIDTH 495 0
DWIDTH 33 0
BBX 29 56 2 -1
BITMAP
00006000
0000F000
0001F800
0007FC00
000FFE00
001FFF00
003FFFC0
007FBFE0
007F0FC0
003E07C0
00180380
00000100
00000000
0007FF00
003FFFE0
00FFFFF0
01FFFFF8
03FFFFF0
07FFFFF0
0FFFFFF0
1FFE01E0
1FF80060
3FF00000
3FE00000
7FC00000
7FC00000
7F800000
FF800000
FF800000
FF800000
FF000000
FF000000
FF000000
FF0007F8
FF0007F8
FF0007F8
FF0007F8
FF0007F8
FF0007F8
FF0007F8
FF8007F8
FF8007F8
7F8007F8
7FC007F8
7FC007F8
3FE007F8
3FE007F8
3FF807F8
1FFE0FF8
0FFFFFF8
0FFFFFF8
07FFFFF8
03FFFFF8
00FFFFF8
003FFFE0
0007FE00
ENDCHAR
STARTCHAR 011D
ENCODING 285
SWIDTH 495 0
DWIDTH 33 0
BBX 27 57 2 -11
BITMAP
00020000
00078000
000FC000
001FE000
003FF000
00FFF800
01FFFC00
03FFFE00
03F8FF00
01F03E00
00E01C00
00C00800
00000000
00000000
001FFC00
00FFFFE0
03FFFFE0
07FFFFE0
0FFFFFE0
1FFFFFE0
3FFFFFE0
3FF01FE0
7FE01FE0
7FC01FE0
7F801FE0
FF801FE0
FF801FE0
FF801FE0
FF801FE0
FF801FE0
FF801FE0
FF801FE0
FF801FE0
7F801FE0
7F801FE0
7FC01FE0
7FE03FE0
3FFFFFE0
3FFFFFE0
1FFFFFE0
0FFFFFE0
07FFFFE0
03FFFFE0
007F1FE0
00001FE0
00001FE0
00001FE0
00003FE0
20007FC0
3C00FFC0
3FFFFFC0
3FFFFF80
7FFFFF00
7FFFFF00
7FFFFC00
3FFFF800
07FFC000
ENDCHAR
STARTCHAR 011E
ENCODING 286
SWIDTH 495 0
DWIDTH 33 0
BBX 29 56 2 -1
BITMAP
00FC07E0
00FC07E0
00FC07E0
00FE0FE0
007FFFE0
007FFFC0
003FFFC0
001FFF80
000FFF00
0003FC00
00000000
00000000
00000000
0007FF00
003FFFE0
00FFFFF0
01FFFFF8
03FFFFF0
07FFFFF0
0FFFFFF0
1FFE01E0
1FF80060
3FF00000
3FE00000
7FC00000
7FC00000
7F800000
FF800000
FF800000
FF800000
FF000000
FF000000
FF000000
FF0007F8
FF0007F8
FF0007F8
FF0007F8
FF0007F8
FF0007F8
FF0007F8
FF8007F8
FF8007F8
7F8007F8
7FC007F8
7FC007F8
3FE007F8
3FE007F8
3FF807F8
1FFE0FF8
0FFFFFF8
0FFFFFF8
07FFFFF8
03FFFFF8
00FFFFF8
003FFFE0
0007FE00
ENDCHAR
STARTCHAR 011F
ENCODING 287
SWIDTH 495 0
DWIDTH 33 0
BBX 27 56 2 -11
BITMAP
07E03F00
07E03F00
07F07F00
03F8FF00
03FFFE00
01FFFE00
01FFFC00
00FFF800
003FE000
00000000
00000000
00000000
00000000
001FFC00
00FFFFE0
03FFFFE0
07FFFFE0
0FFFFFE0
1FFFFFE0
3FFFFFE0
3FF01FE0
7FE01FE0
7FC01FE0
7F801FE0
FF801FE0
FF801FE0
FF801FE0
FF801FE0
FF801FE0
FF801FE0
FF801FE0
FF801FE0
7F801FE0
7F801FE0
7FC01FE0
7FE03FE0
3FFFFFE0
3FFFFFE0
1FFFFFE0
0FFFFFE0
07FFFFE0
03FFFFE0
007F1FE0
00001FE0
00001FE0
00001FE0
00003FE0
20007FC0
3C00FFC0
3FFFFFC0
3FFFFF80
7FFFFF00
7FFFFF00
7FFFFC00
3FFFF800
07FFC000
ENDCHAR
STARTCHAR 0120
ENCODING 288
SWIDTH 495 0
DWIDTH 33 0
BBX 29 55 2 -1
BITMAP
0001F000
0003F800
0007FC00
0007FC00
0007FC00
0007FC00
0007FC00
0003F800
0001F000
00000000
00000000
00000000
0007FF00
003FFFE0
00FFFFF0
01FFFFF8
03FFFFF0
07FFFFF0
0FFFFFF0
1FFE01E0
1FF80060
3FF00000
3FE00000
7FC00000
7FC00000
7F800000
FF800000
FF800000
FF800000
FF000000
FF000000
FF000000
FF0007F8
FF0007F8
FF0007F8
FF0007F8
FF0007F8
FF0007F8
FF0007F8
FF8007F8
FF8007F8
7F8007F8
7FC007F8
7FC007F8
3FE007F8
3FE007F8
3FF807F8
1FFE0FF8
0FFFFFF8
0FFFFFF8
07FFFFF8
03FFFFF8
00FFFFF8
003FFFE0
0007FE00
ENDCHAR
STARTCHAR 0121
ENCODING 289
SWIDTH 495 0
DWIDTH 33 0
BBX 27 56 2 -11
BITMAP
000F8000
001FC000
003FE000
003FE000
003FE000
003FE000
003FE000
001FC000
000F8000
00000000
00000000
00000000
00000000
001FFC00
00FFFFE0
03FFFFE0
07FFFFE0
0FFFFFE0
1FFFFFE0
3FFFFFE0
3FF01FE0
7FE01FE0
7FC01FE0
7F801FE0
FF801FE0
FF801FE0
FF801FE0
FF801FE0
FF801FE0
FF801FE0
FF801FE0
FF801FE0
7F801FE0
7F801FE0
7FC01FE0
7FE03FE0
3FFFFFE0
3FFFFFE0
1FFFFFE0
0FFFFFE0
07FFFFE0
03FFFFE0
007F1FE0
00001FE0
00001FE0
00001FE0
00003FE0
20007FC0
3C00FFC0
3FFFFFC0
3FFFFF80
7FFFFF00
7FFFFF00
7FFFFC00
3FFFF800
07FFC000
ENDCHAR
STARTCHAR 0122
ENCODING 290
SWIDTH 495 0
DWIDTH 33 0
BBX 29 53 2 -11
BITMAP
0007FF00
003FFFE0
00FFFFF0
01FFFFF8
03FFFFF0
07FFFFF0
0FFFFFF0
1FFE01E0
1FF80060
3FF00000
3FE00000
7FC00000
7FC00000
7F800000
FF800000
FF800000
FF800000
FF000000
FF000000
FF000000
FF0007F8
FF0007F8
FF0007F8
FF0007F8
FF0007F8
FF0007F8
FF0007F8
FF8007F8
FF8007F8
7F8007F8
7FC007F8
7FC007F8
3FE007F8
3FE007F8
3FF807F8
1FFE0FF8
0FFFFFF8
0FFFFFF8
07FFFFF8
03FFFFF8
00FFFFF8
003FFFE0
0007FE00
00000000
00000000
0003F000
0003F000
0007F000
000FF000
007FF000
007FF000
007FE000
007F8000
ENDCHAR
STARTCHAR 0123
ENCODING 291
SWIDTH 495 0
DWIDTH 33 0
BBX 27 58 2 -11
BITMAP
00003000
0000F800
0003FC00
0007FC00
0007FC00
000FF800
000FF000
000FE000
000FE000
000FE000
000FE000
00000000
00000000
00000000
00000000
001FFC00
00FFFFE0
03FFFFE0
07FFFFE0
0FFFFFE0
1FFFFFE0
3FFFFFE0
3FF01FE0
7FE01FE0
7FC01FE0
7F801FE0
FF801FE0
FF801FE0
FF801FE0
FF801FE0
FF801FE0
FF801FE0
FF801FE0
FF801FE0
7F801FE0
7F801FE0
7FC01FE0
7FE03FE0
3FFFFFE0
3FFFFFE0
1FFFFFE0
0FFFFFE0
07FFFFE0
03FFFFE0
007F1FE0
00001FE0
00001FE0
00001FE0
00003FE0
20007FC0
3C00FFC0
3FFFFFC0
3FFFFF80
7FFFFF00
7FFFFF00
7FFFFC00
3FFFF800
07FFC000
ENDCHAR
STARTCHAR 0124
ENCODING 292
SWIDTH 495 0
DWIDTH 33 0
BBX 27 55 3 0
BITMAP
00060000
000F0000
001F8000
007FC000
00FFE000
01FFF000
03FFFC00
07FBFE00
07F0FC00
03E07C00
01803800
00001000
00000000
00000000
FF001FE0
FF001FE0
FF001FE0
FF001FE0
FF001FE0
FF001FE0
FF001FE0
FF001FE0
FF001FE0
FF001FE0
FF001FE0
FF001FE0
FF001FE0
FF001FE0
FF001FE0
FF001FE0
FFFFFFE0
FFFFFFE0
FFFFFFE0
FFFFFFE0
FFFFFFE0
FFFFFFE0
FFFFFFE0
FF001FE0
FF001FE0
FF001FE0
FF001FE0
FF001FE0
FF001FE0
FF001FE0
FF001FE0
FF001FE0
FF001FE0
FF001FE0
FF001FE0
FF001FE0
FF001FE0
FF001FE0
FF001FE0
FF001FE0
FF001FE0
ENDCHAR
STARTCHAR 0125
ENCODING 293
SWIDTH 495 0
DWIDTH 33 0
BBX 25 55 4 0
BITMAP
01C00000
03E00000
07F00000
1FFC0000
3FFE0000
FFFF0000
FF7F8000
7C1F0000
780F0000
20020000
00000000
00000000
3F000000
FF000000
FF000000
FF000000
FF000000
FF000000
FF000000
FF000000
FF000000
FF000000
FF000000
FF3F8000
FFFFF000
FFFFF800
FFFFFC00
FFFFFE00
FFFFFF00
FFFFFF00
FFC3FF80
FF00FF80
FF00FF80
FF007F80
FF007F80
FF007F80
FF007F80
FF007F80
FF007F80
FF007F80
FF007F80
FF007F80
FF007F80
FF007F80
FF007F80
FF007F80
FF007F80
FF007F80
FF007F80
FF007F80
FF007F80
FF007F80
FF007F80
FF007F80
FF007F80
ENDCHAR
STARTCHAR 0126
ENCODING 294
SWIDTH 495 0
DWIDTH 33 0
BBX 31 41 1 0
BITMAP
1FE00FF0
1FE00FF0
1FE00FF0
1FE00FF0
1FE00FF0
FFFFFFFE
FFFFFFFE
FFFFFFFE
FFFFFFFE
FFFFFFFE
FFFFFFFE
1FE00FF0
1FE00FF0
1FE00FF0
1FE00FF0
1FE00FF0
1FE00FF0
1FFFFFF0
1FFFFFF0
1FFFFFF0
1FFFFFF0
1FFFFFF0
1FFFFFF0
1FFFFFF0
1FE00FF0
1FE00FF0
1FE00FF0
1FE00FF0
1FE00FF0
1FE00FF0
1FE00FF0
1FE00FF0
1FE00FF0
1FE00FF0
1FE00FF0
1FE00FF0
1FE00FF0
1FE00FF0
1FE00FF0
1FE00FF0
1FE00FF0
ENDCHAR
STARTCHAR 0127
ENCODING 295
SWIDTH 495 0
DWIDTH 33 0
BBX 27 46 2 0
BITMAP
01F00000
1FF00000
1FF00000
1FF00000
1FF00000
FFFFF000
FFFFF000
FFFFF000
FFFFF000
FFFFF000
FFFFF000
1FF00000
1FF00000
1FF00000
1FF7F000
1FFFFC00
1FFFFF00
1FFFFF80
1FFFFF80
1FFFFFC0
1FFFFFC0
1FF87FE0
1FF03FE0
1FF03FE0
1FF01FE0
1FF01FE0
1FF01FE0
1FF01FE0
1FF01FE0
1FF01FE0
1FF01FE0
1FF01FE0
1FF01FE0
1FF01FE0
1FF01FE0
1FF01FE0
1FF01FE0
1FF01FE0
1FF01FE0
1FF01FE0
1FF01FE0
1FF01FE0
1FF01FE0
1FF01FE0
1FF01FE0
1FF01FE0
ENDCHAR
STARTCHAR 0128
ENCODING 296
SWIDTH 495 0
DWIDTH 33 0
BBX 26 54 4 0
BITMAP
00C01000
03F83C00
0FFFFF00
0FFFFE00
1FFFFE00
3FFFFC00
3FFFF800
1E07F000
04008000
00000000
00000000
00000000
00000000
FFFFFFC0
FFFFFFC0
FFFFFFC0
FFFFFFC0
FFFFFFC0
FFFFFFC0
FFFFFFC0
007F8000
007F8000
007F8000
007F8000
007F8000
007F8000
007F8000
007F8000
007F8000
007F8000
007F8000
007F8000
007F8000
007F8000
007F8000
007F8000
007F8000
007F8000
007F8000
007F8000
007F8000
007F8000
007F8000
007F8000
007F8000
007F8000
007F8000
FFFFFFC0
FFFFFFC0
FFFFFFC0
FFFFFFC0
FFFFFFC0
FFFFFFC0
FFFFFFC0
ENDCHAR
STARTCHAR 0129
ENCODING 297
SWIDTH 495 0
DWIDTH 33 0
BBX 29 46 2 -1
BITMAP
00000800
01F80C00
07FF3F00
07FFFF00
0FFFFF00
1FFFFE00
1FFFFC00
0F07F800
0601E000
00000000
00000000
00000000
00000000
00000000
FFFF8000
FFFF8000
FFFF8000
FFFF8000
FFFF8000
FFFF8000
007F8000
007F8000
007F8000
007F8000
007F8000
007F8000
007F8000
007F8000
007F8000
007F8000
007F8000
007F8000
007F8000
007F8000
007F8000
007FC000
007FC000
003FE010
003FF9F0
003FFFF0
003FFFF8
001FFFF8
000FFFF8
0007FFF8
0003FFE0
00007C00
ENDCHAR
STARTCHAR 012A
ENCODING 298
SWIDTH 495 0
DWIDTH 33 0
BBX 26 52 4 0
BITMAP
1FFFFC00
1FFFFC00
1FFFFC00
1FFFFC00
1FFFFC00
00000000
00000000
00000000
00000000
00000000
00000000
FFFFFFC0
FFFFFFC0
FFFFFFC0
FFFFFFC0
FFFFFFC0
FFFFFFC0
FFFFFFC0
007F8000
007F8000
007F8000
007F8000
007F8000
007F8000
007F8000
007F8000
007F8000
007F8000
007F8000
007F8000
007F8000
007F8000
007F8000
007F8000
007F8000
007F8000
007F8000
007F8000
007F8000
007F8000
007F8000
007F8000
007F8000
007F8000
007F8000
FFFFFFC0
FFFFFFC0
FFFFFFC0
FFFFFFC0
FFFFFFC0
FFFFFFC0
FFFFFFC0
ENDCHAR
STARTCHAR 012B
ENCODING 299
SWIDTH 495 0
DWIDTH 33 0
BBX 29 44 2 -1
BITMAP
0FFFFE00
0FFFFE00
0FFFFE00
0FFFFE00
0FFFFE00
0FFFFE00
00000000
00000000
00000000
00000000
00000000
00000000
FFFF8000
FFFF8000
FFFF8000
FFFF8000
FFFF8000
FFFF8000
007F8000
007F8000
007F8000
007F8000
007F8000
007F8000
007F8000
007F8000
007F8000
007F8000
007F8000
007F8000
007F8000
007F8000
007F8000
007FC000
007FC000
003FE010
003FF9F0
003FFFF0
003FFFF8
001FFFF8
000FFFF8
0007FFF8
0003FFE0
00007C00
ENDCHAR
STARTCHAR 012C
ENCODING 300
SWIDTH 495 0
DWIDTH 33 0
BBX 26 55 4 0
BITMAP
1F80FC00
1F80FC00
1F80FC00
1FC1FC00
0FFFFC00
0FFFF800
07FFF800
03FFF000
01FFE000
007F8000
00000000
00000000
00000000
00000000
FFFFFFC0
FFFFFFC0
FFFFFFC0
FFFFFFC0
FFFFFFC0
FFFFFFC0
FFFFFFC0
007F8000
007F8000
007F8000
007F8000
007F8000
007F8000
007F8000
007F8000
007F8000
007F8000
007F8000
007F8000
007F8000
007F8000
007F8000
007F8000
007F8000
007F8000
007F8000
007F8000
007F8000
007F8000
007F8000
007F8000
007F8000
007F8000
007F8000
FFFFFFC0
FFFFFFC0
FFFFFFC0
FFFFFFC0
FFFFFFC0
FFFFFFC0
FFFFFFC0
ENDCHAR
STARTCHAR 012D
ENCODING 301
SWIDTH 495 0
DWIDTH 33 0
BBX 29 46 2 -1
BITMAP
0FC07E00
0FC07E00
0FE0FE00
0FF1FE00
07FFFC00
07FFFC00
03FFF800
01FFF000
007FC000
00000000
00000000
00000000
00000000
00000000
FFFF8000
FFFF8000
FFFF8000
FFFF8000
FFFF8000
FFFF8000
007F8000
007F8000
007F8000
007F8000
007F8000
007F8000
007F8000
007F8000
007F8000
007F8000
007F8000
007F8000
007F8000
007F8000
007F8000
007FC000
007FC000
003FE010
003FF9F0
003FFFF0
003FFFF8
001FFFF8
000FFFF8
0007FFF8
0003FFE0
00007C00
ENDCHAR
STARTCHAR 012E
ENCODING 302
SWIDTH 495 0
DWIDTH 33 0
BBX 26 52 4 -11
BITMAP
FFFFFFC0
FFFFFFC0
FFFFFFC0
FFFFFFC0
FFFFFFC0
FFFFFFC0
FFFFFFC0
007F8000
007F8000
007F8000
007F8000
007F8000
007F8000
007F8000
007F8000
007F8000
007F8000
007F8000
007F8000
007F8000
007F8000
007F8000
007F8000
007F8000
007F8000
007F8000
007F8000
007F8000
007F8000
007F8000
007F8000
007F8000
007F8000
007F8000
FFFFFFC0
FFFFFFC0
FFFFFFC0
FFFFFFC0
FFFFFFC0
FFFFFFC0
FFFFFFC0
003F8000
007F0000
00FE0000
01FC0000
01F80000
03F80000
03F80000
03FFC000
03FFC000
01FFC000
00FFC000
ENDCHAR
STARTCHAR 012F
ENCODING 303
SWIDTH 495 0
DWIDTH 33 0
BBX 29 57 2 -11
BITMAP
00100000
00FE0000
01FF0000
01FF8000
01FF8000
01FF8000
01FF8000
01FF8000
01FF0000
00FE0000
003C0000
00000000
00000000
00000000
00000000
FFFF8000
FFFF8000
FFFF8000
FFFF8000
FFFF8000
FFFF8000
007F8000
007F8000
007F8000
007F8000
007F8000
007F8000
007F8000
007F8000
007F8000
007F8000
007F8000
007F8000
007F8000
007F8000
007F8000
007F8000
007FC000
003FC010
003FF9F0
003FFFF0
001FFFF8
001FFFF8
000FFFF8
0007FFF8
0003FFF0
00003FE0
00001FC0
00003F80
00007F00
00007E00
00007E00
0000FF00
0000FFF0
00007FF0
00007FF0
00001FF0
ENDCHAR
STARTCHAR 0130
ENCODING 304
SWIDTH 495 0
DWIDTH 33 0
BBX 26 55 4 0
BITMAP
003E0000
007F0000
00FF8000
00FF8000
00FF8000
00FF8000
00FF8000
007F0000
003E0000
00000000
00000000
00000000
00000000
00000000
FFFFFFC0
FFFFFFC0
FFFFFFC0
FFFFFFC0
FFFFFFC0
FFFFFFC0
FFFFFFC0
007F8000
007F8000
007F8000
007F8000
007F8000
007F8000
007F8000
007F8000
007F8000
007F8000
007F8000
007F8000
007F8000
007F8000
007F8000
007F8000
007F8000
007F8000
007F8000
007F8000
007F8000
007F8000
007F8000
007F8000
007F8000
007F8000
007F8000
FFFFFFC0
FFFFFFC0
FFFFFFC0
FFFFFFC0
FFFFFFC0
FFFFFFC0
FFFFFFC0
ENDCHAR
STARTCHAR 0131
ENCODING 305
SWIDTH 495 0
DWIDTH 33 0
BBX 29 32 2 -1
BITMAP
FFFF8000
FFFF8000
FFFF8000
FFFF8000
FFFF8000
FFFF8000
007F8000
007F8000
007F8000
007F8000
007F8000
007F8000
007F8000
007F8000
007F8000
007F8000
007F8000
007F8000
007F8000
007F8000
007F8000
007FC000
007FC000
003FE010
003FF9F0
003FFFF0
003FFFF8
001FFFF8
000FFFF8
0007FFF8
0003FFE0
00007C00
ENDCHAR
STARTCHAR 0132
ENCODING 306
SWIDTH 495 0
DWIDTH 33 0
BBX 30 42 2 -1
BITMAP
FF0003FC
FF0003FC
FF0003FC
FF0003FC
FF0003FC
FF0003FC
FF0003FC
FF0003FC
FF0003FC
FF0003FC
FF0003FC
FF0003FC
FF0003FC
FF0003FC
FF0003FC
FF0003FC
FF0003FC
FF0003FC
FF0003FC
FF0003FC
FF0003FC
FF0003FC
FF0003FC
FF0003FC
FF0003FC
FF0003FC
FF0003FC
FF0003FC
FF0003FC
FF0003FC
FF0003FC
FF0007FC
FF0007FC
FF0C07F8
FF0F1FF8
FF1FFFF8
FF1FFFF0
FF3FFFF0
FF3FFFE0
FF3FFFC0
FF0FFF80
0001FC00
ENDCHAR
STARTCHAR 0133
ENCODING 307
SWIDTH 495 0
DWIDTH 33 0
BBX 26 57 4 -11
BITMAP
0C000800
3F007F00
7F80FF80
FFC1FF80
FFC1FF80
FFC1FFC0
FFC1FF80
FFC1FF80
FFC0FF80
7F80FF00
1E003C00
00000000
00000000
00000000
00000000
7F80FF00
7F80FF00
7F80FF00
7F80FF00
7F80FF00
7F80FF00
7F80FF00
7F80FF00
7F80FF00
7F80FF00
7F80FF00
7F80FF00
7F80FF00
7F80FF00
7F80FF00
7F80FF00
7F80FF00
7F80FF00
7F80FF00
7F80FF00
7F80FF00
7F80FF00
7F80FF00
7F80FF00
7F80FF00
7F80FF00
7F80FF00
7F80FF00
7F80FF00
7F80FF00
7F80FF00
0000FF00
0000FF00
0001FF00
0003FF00
007FFF00
007FFE00
00FFFE00
00FFFC00
00FFF800
00FFF000
007F8000
ENDCHAR
STARTCHAR 0134
ENCODING 308
SWIDTH 495 0
DWIDTH 33 0
BBX 26 56 3 -1
BITMAP
0000C000
0001E000
0003F800
0007FC00
000FFE00
001FFF00
003FFF80
00FFBFC0
007F1FC0
003C0F80
00380300
00100100
00000000
00000000
0FFFFFC0
0FFFFFC0
0FFFFFC0
0FFFFFC0
0FFFFFC0
0FFFFFC0
0FFFFFC0
00003FC0
00003FC0
00003FC0
00003FC0
00003FC0
00003FC0
00003FC0
00003FC0
00003FC0
00003FC0
00003FC0
00003FC0
00003FC0
00003FC0
00003FC0
00003FC0
00003FC0
00003FC0
00003FC0
00003FC0
00003FC0
00003FC0
00003FC0
00007FC0
00007FC0
1000FFC0
3C01FF80
3F8FFF80
7FFFFF00
7FFFFF00
FFFFFE00
FFFFFC00
3FFFF800
0FFFE000
01FF0000
ENDCHAR
STARTCHAR 0135
ENCODING 309
SWIDTH 495 0
DWIDTH 33 0
BBX 24 57 3 -11
BITMAP
000300
000780
000FC0
001FE0
003FF0
007FF8
01FFFC
03FFFF
03FCFF
01F03E
00E01C
004008
000000
000000
000000
1FFFFF
1FFFFF
1FFFFF
1FFFFF
1FFFFF
1FFFFF
1FFFFF
0001FF
0001FF
0001FF
0001FF
0001FF
0001FF
0001FF
0001FF
0001FF
0001FF
0001FF
0001FF
0001FF
0001FF
0001FF
0001FF
0001FF
0001FF
0001FF
0001FF
0001FF
0001FF
0001FF
0001FF
0001FF
0001FE
3801FE
3E03FE
3FFFFE
7FFFFC
7FFFFC
7FFFF8
FFFFF0
3FFFE0
07FF80
ENDCHAR
STARTCHAR 0136
ENCODING 310
SWIDTH 495 0
DWIDTH 33 0
BBX 29 52 3 -11
BITMAP
FF001FF0
FF003FE0
FF003FE0
FF007FC0
FF00FFC0
FF00FF80
FF01FF00
FF01FF00
FF03FE00
FF07FC00
FF07FC00
FF0FF800
FF1FF000
FF1FF000
FF3FE000
FF7FC000
FFFF8000
FFFF8000
FFFF0000
FFFF0000
FFFF8000
FFFFC000
FF7FE000
FF3FF000
FF3FF800
FF1FF800
FF0FFC00
FF07FE00
FF03FE00
FF03FF00
FF01FF80
FF00FF80
FF00FFC0
FF007FC0
FF007FE0
FF003FE0
FF003FF0
FF001FF0
FF001FF8
FF000FF8
FF000FF8
00000000
00000000
00000000
000FC000
000FC000
001FC000
003FC000
01FFC000
01FF8000
01FF8000
01FE0000
ENDCHAR
STARTCHAR 0137
ENCODING 311
SWIDTH 495 0
DWIDTH 33 0
BBX 28 57 4 -11
BITMAP
0F000000
FF000000
FF000000
FF000000
FF000000
FF000000
FF000000
FF000000
FF000000
FF000000
FF000000
FF000000
FF000000
FF000000
FF000000
FF007FE0
FF00FFC0
FF00FF80
FF01FF00
FF03FE00
FF03FC00
FF07FC00
FF0FF800
FF1FF000
FF1FE000
FF3FC000
FF7F8000
FFFF0000
FFFE0000
FFFF0000
FFFF8000
FF7FC000
FF3FE000
FF1FF000
FF1FF800
FF0FF800
FF07FC00
FF03FE00
FF03FF00
FF01FF00
FF00FF80
FF00FFC0
FF007FC0
FF003FE0
FF003FF0
FF001FF0
00000000
00000000
00000000
001F8000
001F8000
003F8000
007F8000
03FF8000
03FF0000
03FF0000
03FC0000
ENDCHAR
STARTCHAR 0138
ENCODING 312
SWIDTH 495 0
DWIDTH 33 0
BBX 28 31 4 0
BITMAP
FF007FE0
FF00FFC0
FF00FF80
FF01FF00
FF03FE00
FF03FC00
FF07FC00
FF0FF800
FF1FF000
FF1FE000
FF3FC000
FF7F8000
FFFF0000
FFFE0000
FFFF0000
FFFF8000
FF7FC000
FF3FE000
FF1FF000
FF1FF800
FF0FF800
FF07FC00
FF03FE00
FF03FF00
FF01FF00
FF00FF80
FF00FFC0
FF007FC0
FF003FE0
FF003FF0
FF001FF0
ENDCHAR
STARTCHAR 0139
ENCODING 313
SWIDTH 495 0
DWIDTH 33 0
BBX 26 55 5 0
BITMAP
00180000
00380000
00FC0000
01FE0000
07FE0000
0FFF0000
3FFE0000
3FF80000
1FE00000
1F800000
0E000000
00000000
00000000
00000000
FF000000
FF000000
FF000000
FF000000
FF000000
FF000000
FF000000
FF000000
FF000000
FF000000
FF000000
FF000000
FF000000
FF000000
FF000000
FF000000
FF000000
FF000000
FF000000
FF000000
FF000000
FF000000
FF000000
FF000000
FF000000
FF000000
FF000000
FF000000
FF000000
FF000000
FF000000
FF000000
FF000000
FF000000
FFFFFFC0
FFFFFFC0
FFFFFFC0
FFFFFFC0
FFFFFFC0
FFFFFFC0
FFFFFFC0
ENDCHAR
STARTCHAR 013A
ENCODING 314
SWIDTH 495 0
DWIDTH 33 0
BBX 29 56 2 -1
BITMAP
00003000
0000F000
0007F000
001FF800
007FF800
01FFF800
01FFE000
01FF0000
00F80000
00C00000
00000000
00000000
FFFF8000
FFFF8000
FFFF8000
FFFF8000
FFFF8000
FFFF8000
FFFF8000
007F8000
007F8000
007F8000
007F8000
007F8000
007F8000
007F8000
007F8000
007F8000
007F8000
007F8000
007F8000
007F8000
007F8000
007F8000
007F8000
007F8000
007F8000
007F8000
007F8000
007F8000
007F8000
007F8000
007F8000
007F8000
007F8000
007F8000
007FC000
003FE010
003FF9F0
003FFFF0
001FFFF8
001FFFF8
000FFFF8
0007FFF8
0003FFE0
00007E00
ENDCHAR
STARTCHAR 013B
ENCODING 315
SWIDTH 495 0
DWIDTH 33 0
BBX 26 52 5 -11
BITMAP
FF000000
FF000000
FF000000
FF000000
FF000000
FF000000
FF000000
FF000000
FF000000
FF000000
FF000000
FF000000
FF000000
FF000000
FF000000
FF000000
FF000000
FF000000
FF000000
FF000000
FF000000
FF000000
FF000000
FF000000
FF000000
FF000000
FF000000
FF000000
FF000000
FF000000
FF000000
FF000000
FF000000
FF000000
FFFFFFC0
FFFFFFC0
FFFFFFC0
FFFFFFC0
FFFFFFC0
FFFFFFC0
FFFFFFC0
00000000
00000000
00000000
001F8000
001F8000
003F8000
007F8000
03FF8000
03FF8000
03FF0000
03FC0000
ENDCHAR
STARTCHAR 013C
ENCODING 316
SWIDTH 495 0
DWIDTH 33 0
BBX 29 57 2 -11
BITMAP
FFFF8000
FFFF8000
FFFF8000
FFFF8000
FFFF8000
FFFF8000
FFFF8000
007F8000
007F8000
007F8000
007F8000
007F8000
007F8000
007F8000
007F8000
007F8000
007F8000
007F8000
007F8000
007F8000
007F8000
007F8000
007F8000
007F8000
007F8000
007F8000
007F8000
007F8000
007F8000
007F8000
007F8000
007F8000
007F8000
007F8000
007F8000
007F8000
007F8000
007FC000
003FE010
003FF9F0
003FFFF0
001FFFF8
001FFFF8
000FFFF8
0007FFF8
0003FFE0
00007E00
00000000
00000000
00007E00
00007E00
0000FE00
0001FE00
000FFE00
000FFE00
000FFC00
000FF000
ENDCHAR
STARTCHAR 013D
ENCODING 317
SWIDTH 495 0
DWIDTH 33 0
BBX 26 41 5 0
BITMAP
FF03F800
FF03F800
FF03F800
FF03F800
FF03F800
FF03F000
FF03F000
FF03F000
FF03F000
FF03F000
FF03F000
FF03F000
FF03F000
FF03E000
FF000000
FF000000
FF000000
FF000000
FF000000
FF000000
FF000000
FF000000
FF000000
FF000000
FF000000
FF000000
FF000000
FF000000
FF000000
FF000000
FF000000
FF000000
FF000000
FF000000
FFFFFFC0
FFFFFFC0
FFFFFFC0
FFFFFFC0
FFFFFFC0
FFFFFFC0
FFFFFFC0
ENDCHAR
STARTCHAR 013E
ENCODING 318
SWIDTH 495 0
DWIDTH 33 0
BBX 30 47 2 -1
BITMAP
FFFF81FC
FFFF81FC
FFFF81F8
FFFF81F8
FFFF81F8
FFFF81F8
FFFF81F8
007F81F8
007F81F8
007F81F0
007F81F0
007F81F0
007F81F0
007F81F0
007F8000
007F8000
007F8000
007F8000
007F8000
007F8000
007F8000
007F8000
007F8000
007F8000
007F8000
007F8000
007F8000
007F8000
007F8000
007F8000
007F8000
007F8000
007F8000
007F8000
007F8000
007F8000
007F8000
007FC000
003FE010
003FF9F0
003FFFF0
001FFFF8
001FFFF8
000FFFF8
0007FFF8
0003FFE0
00007E00
ENDCHAR
STARTCHAR 013F
ENCODING 319
SWIDTH 495 0
DWIDTH 33 0
BBX 26 41 5 0
BITMAP
FF000000
FF000000
FF000000
FF000000
FF000000
FF000000
FF000000
FF000000
FF000000
FF000000
FF000000
FF000000
FF007E00
FF00FF00
FF01FF80
FF01FF80
FF03FFC0
FF03FFC0
FF01FF80
FF01FF80
FF00FF00
FF007E00
FF000000
FF000000
FF000000
FF000000
FF000000
FF000000
FF000000
FF000000
FF000000
FF000000
FF000000
FF000000
FFFFFFC0
FFFFFFC0
FFFFFFC0
FFFFFFC0
FFFFFFC0
FFFFFFC0
FFFFFFC0
ENDCHAR
STARTCHAR 0140
ENCODING 320
SWIDTH 495 0
DWIDTH 33 0
BBX 36 47 2 -1
BITMAP
FFFF800000
FFFF800000
FFFF800000
FFFF800000
FFFF800000
FFFF800000
FFFF800000
007F800000
007F800000
007F800000
007F800000
007F800000
007F800000
007F800000
007F800000
007F800000
007F800F80
007F803FC0
007F803FE0
007F807FF0
007F807FF0
007F807FF0
007F807FF0
007F807FF0
007F803FE0
007F803FC0
007F800F80
007F800000
007F800000
007F800000
007F800000
007F800000
007F800000
007F800000
007F800000
007F800000
007F800000
007FC00000
003FE01000
003FF9F000
003FFFF000
001FFFF800
001FFFF800
000FFFF800
0007FFF800
0003FFE000
00007E0000
ENDCHAR
STARTCHAR 0141
ENCODING 321
SWIDTH 495 0
DWIDTH 33 0
BBX 32 41 -1 0
BITMAP
01FE0000
01FE0000
01FE0000
01FE0000
01FE0000
01FE0000
01FE0000
01FE0000
01FE0000
01FE0000
01FE0000
01FE0E00
01FE3E00
01FEFF00
01FFFF00
01FFFF80
01FFFF80
01FFFE00
03FFF800
0FFFE000
3FFF8000
FFFE0000
7FFE0000
7FFE0000
3FFE0000
3FFE0000
19FE0000
01FE0000
01FE0000
01FE0000
01FE0000
01FE0000
01FE0000
01FE0000
01FFFFFF
01FFFFFF
01FFFFFF
01FFFFFF
01FFFFFF
01FFFFFF
01FFFFFF
ENDCHAR
STARTCHAR 0142
ENCODING 322
SWIDTH 495 0
DWIDTH 33 0
BBX 29 47 2 -1
BITMAP
FFFF8000
FFFF8000
FFFF8000
FFFF8000
FFFF8000
FFFF8000
FFFF8000
007F8000
007F8000
007F8000
007F8000
007F8000
007F8000
007F8400
007F9C00
007FFE00
007FFE00
007FFF00
007FFF00
007FFC00
01FFF000
07FFC000
1FFF8000
1FFF8000
0FFF8000
0FFF8000
077F8000
047F8000
007F8000
007F8000
007F8000
007F8000
007F8000
007F8000
007F8000
007F8000
007F8000
007FC000
003FE010
003FF9F0
003FFFF0
001FFFF8
001FFFF8
000FFFF8
0007FFF8
0003FFE0
00007E00
ENDCHAR
STARTCHAR 0143
ENCODING 323
SWIDTH 495 0
DWIDTH 33 0
BBX 27 55 3 0
BITMAP
0000C000
0001E000
0003E000
000FF000
001FF800
007FF800
00FFF800
01FFE000
00FF0000
007C0000
00700000
00000000
00000000
00000000
FE000FE0
FF000FE0
FF000FE0
FF800FE0
FFC00FE0
FFC00FE0
FFE00FE0
FFE00FE0
FFF00FE0
FFF00FE0
FFF80FE0
FFF80FE0
FFFC0FE0
FFFC0FE0
FEFE0FE0
FEFE0FE0
FE7F0FE0
FE3F0FE0
FE3F8FE0
FE1F8FE0
FE1FCFE0
FE0FCFE0
FE0FEFE0
FE07EFE0
FE07FFE0
FE03FFE0
FE03FFE0
FE01FFE0
FE01FFE0
FE00FFE0
FE00FFE0
FE007FE0
FE007FE0
FE007FE0
FE003FE0
FE003FE0
FE001FE0
FE001FE0
FE000FE0
FE000FE0
FE000FE0
ENDCHAR
STARTCHAR 0144
ENCODING 324
SWIDTH 495 0
DWIDTH 33 0
BBX 25 46 4 0
BITMAP
00018000
00038000
000FC000
001FC000
003FE000
00FFF000
01FFF000
03FFC000
03FE0000
01F80000
00E00000
00800000
00000000
00000000
03FF8000
7FFFF000
FFFFF800
FFFFFC00
FFFFFE00
FFFFFF00
FFFFFF00
FF03FF80
FF00FF80
FF00FF80
FF007F80
FF007F80
FF007F80
FF007F80
FF007F80
FF007F80
FF007F80
FF007F80
FF007F80
FF007F80
FF007F80
FF007F80
FF007F80
FF007F80
FF007F80
FF007F80
FF007F80
FF007F80
FF007F80
FF007F80
FF007F80
FF007F80
ENDCHAR
STARTCHAR 0145
ENCODING 325
SWIDTH 495 0
DWIDTH 33 0
BBX 27 52 3 -11
BITMAP
FE000FE0
FF000FE0
FF000FE0
FF800FE0
FFC00FE0
FFC00FE0
FFE00FE0
FFE00FE0
FFF00FE0
FFF00FE0
FFF80FE0
FFF80FE0
FFFC0FE0
FFFC0FE0
FEFE0FE0
FEFE0FE0
FE7F0FE0
FE3F0FE0
FE3F8FE0
FE1F8FE0
FE1FCFE0
FE0FCFE0
FE0FEFE0
FE07EFE0
FE07FFE0
FE03FFE0
FE03FFE0
FE01FFE0
FE01FFE0
FE00FFE0
FE00FFE0
FE007FE0
FE007FE0
FE007FE0
FE003FE0
FE003FE0
FE001FE0
FE001FE0
FE000FE0
FE000FE0
FE000FE0
00000000
00000000
00000000
000FC000
000FC000
001FC000
003FC000
01FFC000
01FF8000
01FF8000
01FE0000
ENDCHAR
STARTCHAR 0146
ENCODING 326
SWIDTH 495 0
DWIDTH 33 0
BBX 25 43 4 -11
BITMAP
03FF8000
7FFFF000
FFFFF800
FFFFFC00
FFFFFE00
FFFFFF00
FFFFFF00
FF03FF80
FF00FF80
FF00FF80
FF007F80
FF007F80
FF007F80
FF007F80
FF007F80
FF007F80
FF007F80
FF007F80
FF007F80
FF007F80
FF007F80
FF007F80
FF007F80
FF007F80
FF007F80
FF007F80
FF007F80
FF007F80
FF007F80
FF007F80
FF007F80
FF007F80
00000000
00000000
00000000
003F8000
003F8000
003F8000
007F8000
07FF0000
07FF0000
07FE0000
07F80000
ENDCHAR
STARTCHAR 0147
ENCODING 327
SWIDTH 495 0
DWIDTH 33 0
BBX 27 55 3 0
BITMAP
01801000
03C07800
07E0FC00
07F9FE00
07FFFC00
01FFF800
00FFF000
007FE000
003F8000
001F0000
000E0000
00040000
00000000
00000000
FE000FE0
FF000FE0
FF000FE0
FF800FE0
FFC00FE0
FFC00FE0
FFE00FE0
FFE00FE0
FFF00FE0
FFF00FE0
FFF80FE0
FFF80FE0
FFFC0FE0
FFFC0FE0
FEFE0FE0
FEFE0FE0
FE7F0FE0
FE3F0FE0
FE3F8FE0
FE1F8FE0
FE1FCFE0
FE0FCFE0
FE0FEFE0
FE07EFE0
FE07FFE0
FE03FFE0
FE03FFE0
FE01FFE0
FE01FFE0
FE00FFE0
FE00FFE0
FE007FE0
FE007FE0
FE007FE0
FE003FE0
FE003FE0
FE001FE0
FE001FE0
FE000FE0
FE000FE0
FE000FE0
ENDCHAR
STARTCHAR 0148
ENCODING 328
SWIDTH 495 0
DWIDTH 33 0
BBX 25 46 4 0
BITMAP
02002000
07807000
07C1F800
0FE3FC00
0FFFF800
07FFF000
03FFE000
00FFC000
007F8000
003F0000
001C0000
00080000
00000000
00000000
03FF8000
7FFFF000
FFFFF800
FFFFFC00
FFFFFE00
FFFFFF00
FFFFFF00
FF03FF80
FF00FF80
FF00FF80
FF007F80
FF007F80
FF007F80
FF007F80
FF007F80
FF007F80
FF007F80
FF007F80
FF007F80
FF007F80
FF007F80
FF007F80
FF007F80
FF007F80
FF007F80
FF007F80
FF007F80
FF007F80
FF007F80
FF007F80
FF007F80
FF007F80
ENDCHAR
STARTCHAR 0149
ENCODING 329
SWIDTH 495 0
DWIDTH 33 0
BBX 32 46 -1 0
BITMAP
7F800000
3F800000
3F800000
7F800000
7F800000
7F800000
7F000000
7F000000
7F000000
FE000000
FE000000
FC000000
FC000000
08000000
000FFE00
01FFFFC0
03FFFFF0
03FFFFF8
03FFFFF8
03FFFFFC
03FFFFFC
03FE0FFE
03FE03FE
03FE01FE
03FE01FE
03FE01FE
03FE01FF
03FE01FF
03FE01FF
03FE01FF
03FE01FF
03FE01FF
03FE01FF
03FE01FF
03FE01FF
03FE01FF
03FE01FF
03FE01FF
03FE01FF
03FE01FF
03FE01FF
03FE01FF
03FE01FF
03FE01FF
03FE01FF
03FE01FF
ENDCHAR
STARTCHAR 014A
ENCODING 330
SWIDTH 495 0
DWIDTH 33 0
BBX 27 52 3 -11
BITMAP
FE000FE0
FF000FE0
FF000FE0
FF800FE0
FFC00FE0
FFC00FE0
FFE00FE0
FFE00FE0
FFF00FE0
FFF00FE0
FFF80FE0
FFF80FE0
FFFC0FE0
FFFC0FE0
FEFE0FE0
FEFE0FE0
FE7F0FE0
FE3F0FE0
FE3F8FE0
FE1F8FE0
FE1FCFE0
FE0FCFE0
FE0FEFE0
FE07EFE0
FE07FFE0
FE03FFE0
FE03FFE0
FE01FFE0
FE01FFE0
FE00FFE0
FE00FFE0
FE007FE0
FE007FE0
FE007FE0
FE003FE0
FE003FE0
FE001FE0
FE001FE0
FE000FE0
FE000FE0
FE000FE0
00000FE0
00000FE0
00001FE0
00001FE0
0003FFE0
0003FFC0
0003FFC0
0007FF80
0007FF80
0007FF00
0007FC00
ENDCHAR
STARTCHAR 014B
ENCODING 331
SWIDTH 495 0
DWIDTH 33 0
BBX 25 43 4 -11
BITMAP
03FF8000
7FFFF000
FFFFF800
FFFFFC00
FFFFFE00
FFFFFF00
FFFFFF00
FF03FF80
FF00FF80
FF00FF80
FF007F80
FF007F80
FF007F80
FF007F80
FF007F80
FF007F80
FF007F80
FF007F80
FF007F80
FF007F80
FF007F80
FF007F80
FF007F80
FF007F80
FF007F80
FF007F80
FF007F80
FF007F80
FF007F80
FF007F80
FF007F80
FF007F80
00007F80
00007F80
00007F80
0000FF80
001FFF80
001FFF80
001FFF00
001FFF00
003FFE00
003FFC00
001FE000
ENDCHAR
STARTCHAR 014C
ENCODING 332
SWIDTH 495 0
DWIDTH 33 0
BBX 30 53 2 -1
BITMAP
07FFFF00
07FFFF00
07FFFF00
07FFFF00
07FFFF00
00000000
00000000
00000000
00000000
00000000
003FE000
00FFFC00
03FFFE00
07FFFF00
0FFFFF80
0FFFFFC0
1FFFFFE0
3FF07FE0
3FE03FE0
7FC01FF0
7FC00FF0
7F800FF0
7F800FF8
FF8007F8
FF8007F8
FF0007F8
FF0007F8
FF0007F8
FF0007F8
FF0007F8
FF0007FC
FF0007FC
FF0007FC
FF0007F8
FF0007F8
FF0007F8
FF0007F8
FF0007F8
FF8007F8
FF8007F8
7F800FF8
7F800FF0
7FC00FF0
3FC01FF0
3FE03FE0
3FF8FFE0
1FFFFFC0
0FFFFFC0
0FFFFF80
07FFFF00
01FFFE00
00FFF800
001FC000
ENDCHAR
STARTCHAR 014D
ENCODING 333
SWIDTH 495 0
DWIDTH 33 0
BBX 29 44 2 -1
BITMAP
07FFFF00
07FFFF00
07FFFF00
07FFFF00
07FFFF00
07FFFF00
00000000
00000000
00000000
00000000
00000000
003FE000
00FFFC00
03FFFE00
07FFFF00
0FFFFF80
1FFFFFC0
3FFFFFE0
3FF07FF0
7FE01FF0
7FC00FF0
7F800FF8
FF800FF8
FF8007F8
FF0007F8
FF0007F8
FF0007F8
FF0007F8
FF0007F8
FF0007F8
FF8007F8
FF8007F8
7F800FF8
7F800FF8
7FC01FF0
3FE03FF0
3FF8FFE0
1FFFFFE0
1FFFFFC0
0FFFFF80
07FFFF00
01FFFE00
00FFF800
001FC000
ENDCHAR
STARTCHAR 014E
ENCODING 334
SWIDTH 495 0
DWIDTH 33 0
BBX 30 56 2 -1
BITMAP
07E03F00
07E03F00
07E03F00
07F07F00
03FFFF00
03FFFE00
01FFFE00
00FFFC00
007FF800
001FE000
00000000
00000000
00000000
003FE000
00FFFC00
03FFFE00
07FFFF00
0FFFFF80
0FFFFFC0
1FFFFFE0
3FF07FE0
3FE03FE0
7FC01FF0
7FC00FF0
7F800FF0
7F800FF8
FF8007F8
FF8007F8
FF0007F8
FF0007F8
FF0007F8
FF0007F8
FF0007F8
FF0007FC
FF0007FC
FF0007FC
FF0007F8
FF0007F8
FF0007F8
FF0007F8
FF0007F8
FF8007F8
FF8007F8
7F800FF8
7F800FF0
7FC00FF0
3FC01FF0
3FE03FE0
3FF8FFE0
1FFFFFC0
0FFFFFC0
0FFFFF80
07FFFF00
01FFFE00
00FFF800
001FC000
ENDCHAR
STARTCHAR 014F
ENCODING 335
SWIDTH 495 0
DWIDTH 33 0
BBX 29 46 2 -1
BITMAP
07E03F00
07E03F00
07F07F00
03F8FF00
03FFFE00
01FFFE00
01FFFC00
00FFF800
003FE000
00000000
00000000
00000000
00000000
003FE000
00FFFC00
03FFFE00
07FFFF00
0FFFFF80
1FFFFFC0
3FFFFFE0
3FF07FF0
7FE01FF0
7FC00FF0
7F800FF8
FF800FF8
FF8007F8
FF0007F8
FF0007F8
FF0007F8
FF0007F8
FF0007F8
FF0007F8
FF8007F8
FF8007F8
7F800FF8
7F800FF8
7FC01FF0
3FE03FF0
3FF8FFE0
1FFFFFE0
1FFFFFC0
0FFFFF80
07FFFF00
01FFFE00
00FFF800
001FC000
ENDCHAR
STARTCHAR 0150
ENCODING 336
SWIDTH 495 0
DWIDTH 33 0
BBX 30 56 2 -1
BITMAP
000C00C0
001E01E0
003F03F0
007F83F8
007F87F8
00FF0FF0
01FE1FE0
03FC3FC0
07F07F00
03E03E00
01C01C00
00000000
00000000
003FE000
00FFFC00
03FFFE00
07FFFF00
0FFFFF80
0FFFFFC0
1FFFFFE0
3FF07FE0
3FE03FE0
7FC01FF0
7FC00FF0
7F800FF0
7F800FF8
FF8007F8
FF8007F8
FF0007F8
FF0007F8
FF0007F8
FF0007F8
FF0007F8
FF0007FC
FF0007FC
FF0007FC
FF0007F8
FF0007F8
FF0007F8
FF0007F8
FF0007F8
FF8007F8
FF8007F8
7F800FF8
7F800FF0
7FC00FF0
3FC01FF0
3FE03FE0
3FF8FFE0
1FFFFFC0
0FFFFFC0
0FFFFF80
07FFFF00
01FFFE00
00FFF800
001FC000
ENDCHAR
STARTCHAR 0151
ENCODING 337
SWIDTH 495 0
DWIDTH 33 0
BBX 30 47 2 -1
BITMAP
000C00C0
001E00E0
001F01F0
003F83F8
007FC7FC
00FF0FF0
01FE1FE0
03FC3FC0
07F87F80
03E03E00
01C01C00
00800800
00000000
00000000
003FE000
00FFFC00
03FFFE00
07FFFF00
0FFFFF80
1FFFFFC0
3FFFFFE0
3FF07FF0
7FE01FF0
7FC00FF0
7F800FF8
FF800FF8
FF8007F8
FF0007F8
FF0007F8
FF0007F8
FF0007F8
FF0007F8
FF0007F8
FF8007F8
FF8007F8
7F800FF8
7F800FF8
7FC01FF0
3FE03FF0
3FF8FFE0
1FFFFFE0
1FFFFFC0
0FFFFF80
07FFFF00
01FFFE00
00FFF800
001FC000
ENDCHAR
STARTCHAR 0152
ENCODING 338
SWIDTH 495 0
DWIDTH 33 0
BBX 32 42 1 0
BITMAP
000F0000
00FFFFFE
01FFFFFE
07FFFFFE
0FFFFFFE
0FFFFFFE
1FFFFFFE
3FFFFFFE
3FE0FE00
3FC0FE00
7F80FE00
7F80FE00
7F80FE00
7F00FE00
7F00FE00
FF00FE00
FF00FE00
FF00FFF8
FF00FFF8
FF00FFF8
FF00FFF8
FF00FFF8
FF00FFF8
FF00FFF8
FF00FE00
FF00FE00
FF00FE00
7F00FE00
7F00FE00
7F00FE00
7F80FE00
7F80FE00
7F80FE00
3FC0FE00
3FE0FE00
1FFFFFFF
1FFFFFFF
0FFFFFFF
07FFFFFF
03FFFFFF
01FFFFFF
007FFFFF
ENDCHAR
STARTCHAR 0153
ENCODING 339
SWIDTH 495 0
DWIDTH 33 0
BBX 32 33 1 -1
BITMAP
01F80FC0
07FC1FE0
0FFE3FF0
1FFF7FF8
1FFFFFFC
3FFFFFFC
3FFFFDFC
7F1FF8FE
7F0FF07E
7E0FF07E
7E07F07E
7E07F07E
7E07F07E
7E07FFFE
FE07FFFF
FE07FFFF
FE07FFFF
FE07FFFF
7E07FFFE
7E07E000
7E07F000
7E07F000
7E07F000
7F0FF800
7F0FF800
3F9FFE18
3FFFFFFC
3FFFFFFC
1FFFFFFC
1FFF7FFC
0FFE3FFC
07FC1FFC
00F003C0
ENDCHAR
STARTCHAR 0154
ENCODING 340
SWIDTH 495 0
DWIDTH 33 0
BBX 28 55 4 0
BITMAP
00010000
00078000
000FC000
003FC000
007FE000
00FFF000
03FFE000
03FF8000
03FE0000
01F80000
00C00000
00000000
00000000
07FC0000
FFFFC000
FFFFF000
FFFFFC00
FFFFFE00
FFFFFE00
FFFFFF00
FF9FFF80
FF01FF80
FF00FF80
FF007FC0
FF007FC0
FF007FC0
FF003FC0
FF007FC0
FF007FC0
FF007FC0
FF00FF80
FF01FF80
FF07FF80
FFFFFF00
FFFFFF00
FFFFFE00
FFFFFC00
FFFFF000
FFFFF000
FFFFF800
FF0FF800
FF07FC00
FF03FC00
FF03FE00
FF01FF00
FF01FF00
FF00FF80
FF007F80
FF007FC0
FF003FC0
FF003FE0
FF001FE0
FF001FF0
FF001FF0
FF000FF0
ENDCHAR
STARTCHAR 0155
ENCODING 341
SWIDTH 495 0
DWIDTH 33 0
BBX 25 46 6 0
BITMAP
00008000
00038000
0007C000
001FE000
003FE000
007FF000
01FFF000
03FFC000
01FF0000
01FC0000
00F00000
00400000
00000000
00000000
00FFF000
0FFFFF80
7FFFFF00
FFFFFF00
FFFFFF00
FFFFFF00
FFFFFF00
FFFFFE00
FF800600
FF000000
FF000000
FF000000
FF000000
FF000000
FF000000
FF000000
FF000000
FF000000
FF000000
FF000000
FF000000
FF000000
FF000000
FF000000
FF000000
FF000000
FF000000
FF000000
FF000000
FF000000
FF000000
FF000000
ENDCHAR
STARTCHAR 0156
ENCODING 342
SWIDTH 495 0
DWIDTH 33 0
BBX 28 53 4 -11
BITMAP
07FC0000
FFFFC000
FFFFF000
FFFFFC00
FFFFFE00
FFFFFE00
FFFFFF00
FF9FFF80
FF01FF80
FF00FF80
FF007FC0
FF007FC0
FF007FC0
FF003FC0
FF007FC0
FF007FC0
FF007FC0
FF00FF80
FF01FF80
FF07FF80
FFFFFF00
FFFFFF00
FFFFFE00
FFFFFC00
FFFFF000
FFFFF000
FFFFF800
FF0FF800
FF07FC00
FF03FC00
FF03FE00
FF01FF00
FF01FF00
FF00FF80
FF007F80
FF007FC0
FF003FC0
FF003FE0
FF001FE0
FF001FF0
FF001FF0
FF000FF0
00000000
00000000
00000000
001F8000
001F8000
003F8000
007F8000
03FF8000
03FF0000
03FF0000
03FC0000
ENDCHAR
STARTCHAR 0157
ENCODING 343
SWIDTH 495 0
DWIDTH 33 0
BBX 29 43 2 -11
BITMAP
000FFF00
00FFFFF8
07FFFFF0
0FFFFFF0
0FFFFFF0
0FFFFFF0
0FFFFFF0
0FFFFFE0
0FF80060
0FF00000
0FF00000
0FF00000
0FF00000
0FF00000
0FF00000
0FF00000
0FF00000
0FF00000
0FF00000
0FF00000
0FF00000
0FF00000
0FF00000
0FF00000
0FF00000
0FF00000
0FF00000
0FF00000
0FF00000
0FF00000
0FF00000
0FF00000
00000000
00000000
00000000
07F00000
07F00000
07F00000
0FF00000
FFE00000
FFE00000
FFC00000
FF800000
ENDCHAR
STARTCHAR 0158
ENCODING 344
SWIDTH 495 0
DWIDTH 33 0
BBX 28 55 4 0
BITMAP
0600C000
0F01E000
1F83F000
3FE7F800
1FFFF000
0FFFE000
03FFC000
01FF0000
00FE0000
007C0000
00380000
00100000
00000000
07FC0000
FFFFC000
FFFFF000
FFFFFC00
FFFFFE00
FFFFFE00
FFFFFF00
FF9FFF80
FF01FF80
FF00FF80
FF007FC0
FF007FC0
FF007FC0
FF003FC0
FF007FC0
FF007FC0
FF007FC0
FF00FF80
FF01FF80
FF07FF80
FFFFFF00
FFFFFF00
FFFFFE00
FFFFFC00
FFFFF000
FFFFF000
FFFFF800
FF0FF800
FF07FC00
FF03FC00
FF03FE00
FF01FF00
FF01FF00
FF00FF80
FF007F80
FF007FC0
FF003FC0
FF003FE0
FF001FE0
FF001FF0
FF001FF0
FF000FF0
ENDCHAR
STARTCHAR 0159
ENCODING 345
SWIDTH 495 0
DWIDTH 33 0
BBX 25 46 6 0
BITMAP
01003000
03807000
07C0F800
0FF3FC00
07FFFC00
03FFF800
01FFE000
00FFC000
007F8000
003F0000
001E0000
00040000
00000000
00000000
00FFF000
0FFFFF80
7FFFFF00
FFFFFF00
FFFFFF00
FFFFFF00
FFFFFF00
FFFFFE00
FF800600
FF000000
FF000000
FF000000
FF000000
FF000000
FF000000
FF000000
FF000000
FF000000
FF000000
FF000000
FF000000
FF000000
FF000000
FF000000
FF000000
FF000000
FF000000
FF000000
FF000000
FF000000
FF000000
FF000000
ENDCHAR
STARTCHAR 015A
ENCODING 346
SWIDTH 495 0
DWIDTH 33 0
BBX 28 56 3 -1
BITMAP
0000C000
0001E000
0007E000
000FF000
001FF800
007FF800
00FFF000
01FFC000
00FF0000
007C0000
00700000
00000000
00000000
007FF000
03FFFE00
07FFFFC0
0FFFFF80
1FFFFF80
3FFFFF80
7FFFFF00
7FE00F00
7F800100
FF800000
FF800000
FF000000
FF800000
FF800000
FFC00000
7FE00000
7FFC0000
3FFF0000
3FFFE000
1FFFF800
0FFFFE00
03FFFF00
00FFFF80
003FFFC0
0007FFC0
0001FFE0
00007FE0
00003FE0
00001FF0
00001FF0
00001FF0
00001FF0
00001FF0
20001FE0
38003FE0
7F00FFE0
7FFFFFC0
FFFFFFC0
FFFFFF80
FFFFFF00
7FFFFE00
1FFFF800
01FF8000
ENDCHAR
STARTCHAR 015B
ENCODING 347
SWIDTH 495 0
DWIDTH 33 0
BBX 25 47 4 -1
BITMAP
00008000
00038000
0007C000
001FE000
003FE000
007FF000
01FFF000
03FFC000
01FF0000
01FC0000
00F00000
00400000
00000000
00000000
00FFF000
03FFFF00
0FFFFF00
1FFFFF00
3FFFFF00
7FFFFE00
7FFFFE00
7FC01E00
FF800200
FF800000
FF800000
7FC00000
7FF80000
7FFF0000
3FFFC000
1FFFF000
0FFFFC00
03FFFE00
00FFFF00
001FFF80
0003FF80
0000FF80
00007F80
00007F80
70007F80
FF03FF80
FFFFFF80
FFFFFF00
FFFFFF00
FFFFFE00
FFFFFC00
1FFFF000
01FE0000
ENDCHAR
STARTCHAR 015C
ENCODING 348
SWIDTH 495 0
DWIDTH 33 0
BBX 28 56 3 -1
BITMAP
00060000
000F0000
001F8000
007FC000
00FFE000
01FFF000
03FFFC00
07FBFE00
07F0FC00
03E07C00
01803800
00001000
00000000
007FF000
03FFFE00
07FFFFC0
0FFFFF80
1FFFFF80
3FFFFF80
7FFFFF00
7FE00F00
7F800100
FF800000
FF800000
FF000000
FF800000
FF800000
FFC00000
7FE00000
7FFC0000
3FFF0000
3FFFE000
1FFFF800
0FFFFE00
03FFFF00
00FFFF80
003FFFC0
0007FFC0
0001FFE0
00007FE0
00003FE0
00001FF0
00001FF0
00001FF0
00001FF0
00001FF0
20001FE0
38003FE0
7F00FFE0
7FFFFFC0
FFFFFFC0
FFFFFF80
FFFFFF00
7FFFFE00
1FFFF800
01FF8000
ENDCHAR
STARTCHAR 015D
ENCODING 349
SWIDTH 495 0
DWIDTH 33 0
BBX 25 47 4 -1
BITMAP
00080000
001E0000
003F0000
007F8000
00FFC000
03FFE000
07FFF000
0FFFF800
0FE3FC00
07C0F800
03807000
03002000
00000000
00000000
00FFF000
03FFFF00
0FFFFF00
1FFFFF00
3FFFFF00
7FFFFE00
7FFFFE00
7FC01E00
FF800200
FF800000
FF800000
7FC00000
7FF80000
7FFF0000
3FFFC000
1FFFF000
0FFFFC00
03FFFE00
00FFFF00
001FFF80
0003FF80
0000FF80
00007F80
00007F80
70007F80
FF03FF80
FFFFFF80
FFFFFF00
FFFFFF00
FFFFFE00
FFFFFC00
1FFFF000
01FE0000
ENDCHAR
STARTCHAR 015E
ENCODING 350
SWIDTH 495 0
DWIDTH 33 0
BBX 28 53 3 -11
BITMAP
007FF000
03FFFE00
07FFFFC0
0FFFFF80
1FFFFF80
3FFFFF80
7FFFFF00
7FE00F00
7F800100
FF800000
FF800000
FF000000
FF800000
FF800000
FFC00000
7FE00000
7FFC0000
3FFF0000
3FFFE000
1FFFF800
0FFFFE00
03FFFF00
00FFFF80
003FFFC0
0007FFC0
0001FFE0
00007FE0
00003FE0
00001FF0
00001FF0
00001FF0
00001FF0
00001FF0
20001FE0
38003FE0
7F00FFE0
7FFFFFC0
FFFFFFC0
FFFFFF80
FFFFFF00
7FFFFE00
1FFFF800
00FF8000
007C0000
007F0000
003F8000
000FC000
000FC000
000FC000
03FFC000
07FFC000
07FF8000
07FE0000
ENDCHAR
STARTCHAR 015F
ENCODING 351
SWIDTH 495 0
DWIDTH 33 0
BBX 25 43 4 -11
BITMAP
00FFF000
03FFFF00
0FFFFF00
1FFFFF00
3FFFFF00
7FFFFE00
7FFFFE00
7FC01E00
FF800200
FF800000
FF800000
7FC00000
7FF80000
7FFF0000
3FFFC000
1FFFF000
0FFFFC00
03FFFE00
00FFFF00
001FFF80
0003FF80
0000FF80
00007F80
00007F80
70007F80
FF03FF80
FFFFFF80
FFFFFF00
FFFFFF00
FFFFFE00
FFFFF800
1FFFE000
00FE0000
007C0000
00FF0000
003F8000
000FC000
000FC000
041FC000
07FFC000
07FF8000
07FF0000
07FE0000
ENDCHAR
STARTCHAR 0160
ENCODING 352
SWIDTH 495 0
DWIDTH 33 0
BBX 28 56 3 -1
BITMAP
01801000
03C07800
07E0FC00
07F9FE00
07FFFC00
01FFF800
00FFF000
007FE000
003F8000
001F0000
000E0000
00040000
00000000
007FF000
03FFFE00
07FFFFC0
0FFFFF80
1FFFFF80
3FFFFF80
7FFFFF00
7FE00F00
7F800100
FF800000
FF800000
FF000000
FF800000
FF800000
FFC00000
7FE00000
7FFC0000
3FFF0000
3FFFE000
1FFFF800
0FFFFE00
03FFFF00
00FFFF80
003FFFC0
0007FFC0
0001FFE0
00007FE0
00003FE0
00001FF0
00001FF0
00001FF0
00001FF0
00001FF0
20001FE0
38003FE0
7F00FFE0
7FFFFFC0
FFFFFFC0
FFFFFF80
FFFFFF00
7FFFFE00
1FFFF800
01FF8000
ENDCHAR
STARTCHAR 0161
ENCODING 353
SWIDTH 495 0
DWIDTH 33 0
BBX 25 47 4 -1
BITMAP
02002000
07807000
07C1F800
0FE3FC00
0FFFF800
07FFF000
03FFE000
00FFC000
007F8000
003F0000
001C0000
00080000
00000000
00000000
00FFF000
03FFFF00
0FFFFF00
1FFFFF00
3FFFFF00
7FFFFE00
7FFFFE00
7FC01E00
FF800200
FF800000
FF800000
7FC00000
7FF80000
7FFF0000
3FFFC000
1FFFF000
0FFFFC00
03FFFE00
00FFFF00
001FFF80
0003FF80
0000FF80
00007F80
00007F80
70007F80
FF03FF80
FFFFFF80
FFFFFF00
FFFFFF00
FFFFFE00
FFFFFC00
1FFFF000
01FE0000
ENDCHAR
STARTCHAR 0162
ENCODING 354
SWIDTH 495 0
DWIDTH 33 0
BBX 30 52 2 -11
BITMAP
FFFFFFFC
FFFFFFFC
FFFFFFFC
FFFFFFFC
FFFFFFFC
FFFFFFFC
FFFFFFFC
001FE000
001FE000
001FE000
001FE000
001FE000
001FE000
001FE000
001FE000
001FE000
001FE000
001FE000
001FE000
001FE000
001FE000
001FE000
001FE000
001FE000
001FE000
001FE000
001FE000
001FE000
001FE000
001FE000
001FE000
001FE000
001FE000
001FE000
001FE000
001FE000
001FE000
001FE000
001FE000
001FE000
001FE000
001F8000
001F0000
003FC000
000FE000
0003F000
0003F000
0003F000
01FFF000
01FFF000
01FFE000
01FF8000
ENDCHAR
STARTCHAR 0163
ENCODING 355
SWIDTH 495 0
DWIDTH 33 0
BBX 29 51 2 -10
BITMAP
007F0000
00FF0000
00FF0000
00FF0000
00FF0000
00FF0000
00FF0000
00FF0000
00FF0000
FFFFFFF8
FFFFFFF8
FFFFFFF8
FFFFFFF8
FFFFFFF8
FFFFFFF8
00FF0000
00FF0000
00FF0000
00FF0000
00FF0000
00FF0000
00FF0000
00FF0000
00FF0000
00FF0000
00FF0000
00FF0000
00FF0000
00FF0000
00FF0000
00FF0000
00FF0000
00FF8010
00FFE1F8
00FFFFF8
007FFFF8
007FFFF8
003FFFF8
001FFFF8
000FFFF0
0001FE00
0001F800
0001FE00
00007F00
00003F00
00001F80
00083F80
000FFF80
000FFF00
000FFE00
001FFC00
ENDCHAR
STARTCHAR 0164
ENCODING 356
SWIDTH 495 0
DWIDTH 33 0
BBX 30 55 2 0
BITMAP
00C00800
01E03C00
03F07E00
03FCFF00
03FFFE00
00FFFC00
007FF800
003FF000
001FC000
000F8000
00070000
00020000
00000000
00000000
FFFFFFFC
FFFFFFFC
FFFFFFFC
FFFFFFFC
FFFFFFFC
FFFFFFFC
FFFFFFFC
001FE000
001FE000
001FE000
001FE000
001FE000
001FE000
001FE000
001FE000
001FE000
001FE000
001FE000
001FE000
001FE000
001FE000
001FE000
001FE000
001FE000
001FE000
001FE000
001FE000
001FE000
001FE000
001FE000
001FE000
001FE000
001FE000
001FE000
001FE000
001FE000
001FE000
001FE000
001FE000
001FE000
001FE000
ENDCHAR
STARTCHAR 0165
ENCODING 357
SWIDTH 495 0
DWIDTH 33 0
BBX 29 47 2 -1
BITMAP
00000FE0
00000FE0
00000FC0
00000FC0
00000FC0
00000FC0
007F0FC0
00FF0FC0
00FF0F80
00FF0F80
00FF0F80
00FF0000
00FF0000
00FF0000
00FF0000
FFFFFFF8
FFFFFFF8
FFFFFFF8
FFFFFFF8
FFFFFFF8
FFFFFFF8
00FF0000
00FF0000
00FF0000
00FF0000
00FF0000
00FF0000
00FF0000
00FF0000
00FF0000
00FF0000
00FF0000
00FF0000
00FF0000
00FF0000
00FF0000
00FF0000
00FF0000
00FF8010
00FFE1F8
00FFFFF8
007FFFF8
007FFFF8
003FFFF8
001FFFF8
000FFFF0
00007F00
ENDCHAR
STARTCHAR 0166
ENCODING 358
SWIDTH 495 0
DWIDTH 33 0
BBX 30 41 2 0
BITMAP
FFFFFFFC
FFFFFFFC
FFFFFFFC
FFFFFFFC
FFFFFFFC
FFFFFFFC
FFFFFFFC
001FE000
001FE000
001FE000
001FE000
001FE000
001FE000
001FE000
001FE000
001FE000
001FE000
001FE000
001FE000
3FFFFFE0
3FFFFFE0
3FFFFFE0
3FFFFFE0
3FFFFFE0
3FFFFFE0
001FE000
001FE000
001FE000
001FE000
001FE000
001FE000
001FE000
001FE000
001FE000
001FE000
001FE000
001FE000
001FE000
001FE000
001FE000
001FE000
ENDCHAR
STARTCHAR 0167
ENCODING 359
SWIDTH 495 0
DWIDTH 33 0
BBX 29 41 2 0
BITMAP
007F0000
00FF0000
00FF0000
00FF0000
00FF0000
00FF0000
00FF0000
00FF0000
00FF0000
FFFFFFF8
FFFFFFF8
FFFFFFF8
FFFFFFF8
FFFFFFF8
FFFFFFF8
00FF0000
00FF0000
00FF0000
00FF0000
00FF0000
00FF0000
FFFFFFF8
FFFFFFF8
FFFFFFF8
FFFFFFF8
FFFFFFF8
00FF0000
00FF0000
00FF0000
00FF0000
00FF0000
00FF0000
00FF8010
00FFE1F8
00FFFFF8
007FFFF8
007FFFF8
003FFFF8
001FFFF8
000FFFF0
00007F00
ENDCHAR
STARTCHAR 0168
ENCODING 360
SWIDTH 495 0
DWIDTH 33 0
BBX 28 55 3 -1
BITMAP
00600C00
01FC0E00
07FFFF80
07FFFF00
0FFFFF00
1FFFFE00
1FFFFC00
0703F800
02004000
00000000
00000000
00000000
00000000
FF000FF0
FF000FF0
FF000FF0
FF000FF0
FF000FF0
FF000FF0
FF000FF0
FF000FF0
FF000FF0
FF000FF0
FF000FF0
FF000FF0
FF000FF0
FF000FF0
FF000FF0
FF000FF0
FF000FF0
FF000FF0
FF000FF0
FF000FF0
FF000FF0
FF000FF0
FF000FF0
FF000FF0
FF000FF0
FF000FF0
FF001FF0
FF001FF0
FF001FF0
FF001FF0
FF001FE0
FF001FE0
FF803FE0
FFC03FE0
7FF1FFC0
7FFFFFC0
3FFFFFC0
3FFFFF80
1FFFFF00
0FFFFE00
03FFF800
007FC000
ENDCHAR
STARTCHAR 0169
ENCODING 361
SWIDTH 495 0
DWIDTH 33 0
BBX 25 46 4 -1
BITMAP
00001000
03F01C00
07FF7E00
0FFFFE00
1FFFFE00
1FFFFC00
3FFFF800
1E0FF000
0403C000
00000000
00000000
00000000
00000000
00000000
FF007F80
FF007F80
FF007F80
FF007F80
FF007F80
FF007F80
FF007F80
FF007F80
FF007F80
FF007F80
FF007F80
FF007F80
FF007F80
FF007F80
FF007F80
FF007F80
FF007F80
FF007F80
FF007F80
FF007F80
FF807F80
FF807F80
FF807F80
7FC07F80
7FF3FF80
7FFFFF80
3FFFFF80
3FFFFF80
1FFFFF80
0FFFFF80
03FFFE00
003F8000
ENDCHAR
STARTCHAR 016A
ENCODING 362
SWIDTH 495 0
DWIDTH 33 0
BBX 28 53 3 -1
BITMAP
0FFFFE00
0FFFFE00
0FFFFE00
0FFFFE00
0FFFFE00
00000000
00000000
00000000
00000000
00000000
00000000
FF000FF0
FF000FF0
FF000FF0
FF000FF0
FF000FF0
FF000FF0
FF000FF0
FF000FF0
FF000FF0
FF000FF0
FF000FF0
FF000FF0
FF000FF0
FF000FF0
FF000FF0
FF000FF0
FF000FF0
FF000FF0
FF000FF0
FF000FF0
FF000FF0
FF000FF0
FF000FF0
FF000FF0
FF000FF0
FF000FF0
FF001FF0
FF001FF0
FF001FF0
FF001FF0
FF001FE0
FF001FE0
FF803FE0
FFC03FE0
7FF1FFC0
7FFFFFC0
3FFFFFC0
3FFFFF80
1FFFFF00
0FFFFE00
03FFF800
007FC000
ENDCHAR
STARTCHAR 016B
ENCODING 363
SWIDTH 495 0
DWIDTH 33 0
BBX 25 44 4 -1
BITMAP
1FFFFC00
1FFFFC00
1FFFFC00
1FFFFC00
1FFFFC00
1FFFFC00
00000000
00000000
00000000
00000000
00000000
00000000
FF007F80
FF007F80
FF007F80
FF007F80
FF007F80
FF007F80
FF007F80
FF007F80
FF007F80
FF007F80
FF007F80
FF007F80
FF007F80
FF007F80
FF007F80
FF007F80
FF007F80
FF007F80
FF007F80
FF007F80
FF807F80
FF807F80
FF807F80
7FC07F80
7FF3FF80
7FFFFF80
3FFFFF80
3FFFFF80
1FFFFF80
0FFFFF80
03FFFE00
003F8000
ENDCHAR
STARTCHAR 016C
ENCODING 364
SWIDTH 495 0
DWIDTH 33 0
BBX 28 56 3 -1
BITMAP
0FC07E00
0FC07E00
0FC07E00
0FE0FE00
07FFFE00
07FFFC00
03FFFC00
01FFF800
00FFF000
003FC000
00000000
00000000
00000000
00000000
FF000FF0
FF000FF0
FF000FF0
FF000FF0
FF000FF0
FF000FF0
FF000FF0
FF000FF0
FF000FF0
FF000FF0
FF000FF0
FF000FF0
FF000FF0
FF000FF0
FF000FF0
FF000FF0
FF000FF0
FF000FF0
FF000FF0
FF000FF0
FF000FF0
FF000FF0
FF000FF0
FF000FF0
FF000FF0
FF000FF0
FF001FF0
FF001FF0
FF001FF0
FF001FF0
FF001FE0
FF001FE0
FF803FE0
FFC03FE0
7FF1FFC0
7FFFFFC0
3FFFFFC0
3FFFFF80
1FFFFF00
0FFFFE00
03FFF800
007FC000
ENDCHAR
STARTCHAR 016D
ENCODING 365
SWIDTH 495 0
DWIDTH 33 0
BBX 25 46 4 -1
BITMAP
1F80FC00
1F80FC00
1FC1FC00
0FE3FC00
0FFFF800
07FFF800
07FFF000
03FFE000
00FF8000
00000000
00000000
00000000
00000000
00000000
FF007F80
FF007F80
FF007F80
FF007F80
FF007F80
FF007F80
FF007F80
FF007F80
FF007F80
FF007F80
FF007F80
FF007F80
FF007F80
FF007F80
FF007F80
FF007F80
FF007F80
FF007F80
FF007F80
FF007F80
FF807F80
FF807F80
FF807F80
7FC07F80
7FF3FF80
7FFFFF80
3FFFFF80
3FFFFF80
1FFFFF80
0FFFFF80
03FFFE00
003F8000
ENDCHAR
STARTCHAR 016E
ENCODING 366
SWIDTH 495 0
DWIDTH 33 0
BBX 28 56 3 -1
BITMAP
001F8000
007FC000
00FFE000
01FFF000
01F1F000
01E0F800
01E0F800
01E0F800
01E0F800
01FBF000
00FFF000
00FFE000
003FC000
00040000
00000000
FF000FF0
FF000FF0
FF000FF0
FF000FF0
FF000FF0
FF000FF0
FF000FF0
FF000FF0
FF000FF0
FF000FF0
FF000FF0
FF000FF0
FF000FF0
FF000FF0
FF000FF0
FF000FF0
FF000FF0
FF000FF0
FF000FF0
FF000FF0
FF000FF0
FF000FF0
FF000FF0
FF000FF0
FF000FF0
FF001FF0
FF001FF0
FF001FF0
FF001FF0
FF001FE0
FF001FE0
FF803FE0
FFC03FE0
7FF1FFC0
7FFFFFC0
3FFFFFC0
3FFFFF80
1FFFFF00
0FFFFE00
03FFF800
007FC000
ENDCHAR
STARTCHAR 016F
ENCODING 367
SWIDTH 495 0
DWIDTH 33 0
BBX 25 48 4 -1
BITMAP
007F0000
00FF8000
01FFC000
03FFE000
03E3E000
03C1F000
03C1F000
03C1F000
03E1E000
03F7E000
01FFE000
01FFC000
007F8000
00080000
00000000
00000000
FF007F80
FF007F80
FF007F80
FF007F80
FF007F80
FF007F80
FF007F80
FF007F80
FF007F80
FF007F80
FF007F80
FF007F80
FF007F80
FF007F80
FF007F80
FF007F80
FF007F80
FF007F80
FF007F80
FF007F80
FF807F80
FF807F80
FF807F80
7FC07F80
7FF3FF80
7FFFFF80
3FFFFF80
3FFFFF80
1FFFFF80
0FFFFF80
03FFFE00
003F8000
ENDCHAR
STARTCHAR 0170
ENCODING 368
SWIDTH 495 0
DWIDTH 33 0
BBX 28 56 3 -1
BITMAP
00180180
003C03C0
007E07E0
00FF07F0
00FF0FF0
01FE1FE0
03FC3FC0
07F87F80
0FE0FE00
07C07C00
03803800
00000000
00000000
00000000
FF000FF0
FF000FF0
FF000FF0
FF000FF0
FF000FF0
FF000FF0
FF000FF0
FF000FF0
FF000FF0
FF000FF0
FF000FF0
FF000FF0
FF000FF0
FF000FF0
FF000FF0
FF000FF0
FF000FF0
FF000FF0
FF000FF0
FF000FF0
FF000FF0
FF000FF0
FF000FF0
FF000FF0
FF000FF0
FF000FF0
FF001FF0
FF001FF0
FF001FF0
FF001FF0
FF001FE0
FF001FE0
FF803FE0
FFC03FE0
7FF1FFC0
7FFFFFC0
3FFFFFC0
3FFFFF80
1FFFFF00
0FFFFE00
03FFF800
007FC000
ENDCHAR
STARTCHAR 0171
ENCODING 369
SWIDTH 495 0
DWIDTH 33 0
BBX 27 47 4 -1
BITMAP
00200200
00700700
00F80F80
01FC1FC0
03FE3FE0
07FC7FC0
0FF0FF00
1FE1FE00
3FC3FC00
1F81F800
0E00E000
04004000
00000000
00000000
00000000
FF007F80
FF007F80
FF007F80
FF007F80
FF007F80
FF007F80
FF007F80
FF007F80
FF007F80
FF007F80
FF007F80
FF007F80
FF007F80
FF007F80
FF007F80
FF007F80
FF007F80
FF007F80
FF007F80
FF007F80
FF807F80
FF807F80
FF807F80
7FC07F80
7FF3FF80
7FFFFF80
3FFFFF80
3FFFFF80
1FFFFF80
0FFFFF80
03FFFE00
003F8000
ENDCHAR
STARTCHAR 0172
ENCODING 370
SWIDTH 495 0
DWIDTH 33 0
BBX 28 52 3 -11
BITMAP
FF000FF0
FF000FF0
FF000FF0
FF000FF0
FF000FF0
FF000FF0
FF000FF0
FF000FF0
FF000FF0
FF000FF0
FF000FF0
FF000FF0
FF000FF0
FF000FF0
FF000FF0
FF000FF0
FF000FF0
FF000FF0
FF000FF0
FF000FF0
FF000FF0
FF000FF0
FF000FF0
FF000FF0
FF000FF0
FF000FF0
FF001FF0
FF001FF0
FF001FF0
FF001FF0
FF001FE0
FF001FE0
FF803FE0
FFC03FE0
7FF1FFE0
7FFFFFC0
3FFFFFC0
3FFFFF80
1FFFFF00
0FFFFE00
03FFFC00
007FF800
0007F000
000FE000
001FC000
001F8000
003F8000
003F8000
003FFC00
003FFC00
001FFC00
000FFC00
ENDCHAR
STARTCHAR 0173
ENCODING 371
SWIDTH 495 0
DWIDTH 33 0
BBX 25 42 4 -11
BITMAP
FF007F80
FF007F80
FF007F80
FF007F80
FF007F80
FF007F80
FF007F80
FF007F80
FF007F80
FF007F80
FF007F80
FF007F80
FF007F80
FF007F80
FF007F80
FF007F80
FF007F80
FF007F80
FF007F80
FF007F80
FF807F80
FF807F80
FF807F80
7FC07F80
7FF3FF80
7FFFFF80
3FFFFF80
3FFFFF80
1FFFFF80
0FFFFF80
03FFFF00
003FFE00
0001FC00
0003F800
0003F000
0007F000
0007F000
0007F000
0007FF80
0007FF80
0003FF80
0001FF80
ENDCHAR
STARTCHAR 0174
ENCODING 372
SWIDTH 495 0
DWIDTH 33 0
BBX 30 55 2 0
BITMAP
00030000
00078000
000FC000
003FE000
007FF000
00FFF800
01FFFE00
03FDFF00
03F87E00
01F03E00
00C01C00
00000800
00000000
00000000
FE0003FC
FE0003FC
FE0003FC
FE0003FC
FE0003FC
FE0003FC
FE0003FC
FE0003FC
FE0003F8
FE0003F8
FE0003F8
FE0003F8
FE0003F8
FE0003F8
FE0FC3F8
FE1FC3F8
FE1FC3F8
FE1FE3F8
FE1FE3F8
FE3FE3F8
FE3FE3F8
FE3FF3F8
FE7FF3F8
7E7FF3F8
7E7DF9F8
7E7CF9F8
7EFCF9F8
7EF8F9F8
7EF87DF0
7FF87DF0
7FF07DF0
7FF03FF0
7FF03FF0
7FE03FF0
7FE01FF0
7FE01FF0
3FC01FF0
3FC01FF0
3FC00FF0
3F800FF0
3F800FF0
ENDCHAR
STARTCHAR 0175
ENCODING 373
SWIDTH 495 0
DWIDTH 33 0
BBX 32 46 1 0
BITMAP
00010000
0003C000
0007E000
000FF000
001FF800
007FFC00
00FFFE00
01FFFF00
01FC7F80
00F81F00
00700E00
00600400
00000000
00000000
00000000
FE00007F
FE00007E
FE0000FE
FE0000FE
FE0000FE
FE0000FE
FE07E0FE
FE0FE0FE
7E0FE0FE
7E0FF0FE
7E0FF0FC
7E0FF0FC
7E1FF0FC
7E1FF8FC
7F1FF8FC
7F3FF8FC
3F3FF8FC
3F3EFCF8
3F3EFDF8
3F7EFDF8
3F7C7DF8
3F7C7FF8
1FFC7FF8
1FF83FF0
1FF83FF0
1FF83FF0
1FF01FF0
0FF01FF0
0FF00FE0
0FE00FE0
0FE00FE0
ENDCHAR
STARTCHAR 0176
ENCODING 374
SWIDTH 495 0
DWIDTH 33 0
BBX 31 55 1 0
BITMAP
00018000
0003C000
0007E000
001FF000
003FF800
007FFC00
00FFFF00
01FEFF80
01FC3F00
00F81F00
00600E00
00000400
00000000
00000000
FF8001FE
7F8003FE
7FC003FC
7FC003FC
3FC007FC
3FE007F8
1FE007F8
1FE00FF8
1FF00FF0
0FF00FF0
0FF01FE0
07F81FE0
07F81FC0
03FC3FC0
03FC3FC0
03FE7F80
01FE7F80
01FEFF00
00FFFF00
00FFFE00
007FFC00
007FFC00
003FF800
001FF800
001FF000
000FF000
000FF000
000FF000
000FF000
000FF000
000FF000
000FF000
000FF000
000FF000
000FF000
000FF000
000FF000
000FF000
000FF000
000FF000
000FF000
ENDCHAR
STARTCHAR 0177
ENCODING 375
SWIDTH 495 0
DWIDTH 33 0
BBX 30 57 1 -11
BITMAP
00010000
0003C000
0007E000
000FF000
001FF800
007FFC00
00FFFE00
01FFFF00
01FC7F80
00F81F00
00700E00
00600400
00000000
00000000
00000000
3FC003FC
3FC003FC
3FE007FC
1FE007F8
1FE007F8
1FF007F8
1FF007F8
0FF00FF0
0FF00FF0
0FF80FF0
07F80FE0
07F81FE0
07FC1FE0
03FC1FE0
03FC1FC0
03FE3FC0
01FE3FC0
01FE3F80
00FF3F80
00FF7F80
00FFFF00
007FFF00
007FFF00
003FFE00
003FFE00
001FFC00
001FFC00
000FFC00
000FF800
0007F800
000FF000
000FF000
001FF000
003FE000
207FE000
3FFFC000
7FFF8000
7FFF8000
7FFF0000
7FFE0000
FFFC0000
3FF00000
ENDCHAR
STARTCHAR 0178
ENCODING 376
SWIDTH 495 0
DWIDTH 33 0
BBX 31 54 1 0
BITMAP
01F00F80
07F81FC0
07F83FE0
07FC3FE0
07FC3FE0
07FC3FE0
07F83FE0
03F81FC0
01E00F00
00000000
00000000
00000000
00000000
FF8001FE
7F8003FE
7FC003FC
7FC003FC
3FC007FC
3FE007F8
1FE007F8
1FE00FF8
1FF00FF0
0FF00FF0
0FF01FE0
07F81FE0
07F81FC0
03FC3FC0
03FC3FC0
03FE7F80
01FE7F80
01FEFF00
00FFFF00
00FFFE00
007FFC00
007FFC00
003FF800
001FF800
001FF000
000FF000
000FF000
000FF000
000FF000
000FF000
000FF000
000FF000
000FF000
000FF000
000FF000
000FF000
000FF000
000FF000
000FF000
000FF000
000FF000
ENDCHAR
STARTCHAR 0179
ENCODING 377
SWIDTH 495 0
DWIDTH 33 0
BBX 27 55 3 0
BITMAP
0000C000
0001E000
0003E000
000FF000
001FF800
007FF800
00FFF800
01FFE000
00FF0000
007C0000
00700000
00000000
00000000
00000000
7FFFFFE0
7FFFFFE0
7FFFFFE0
7FFFFFE0
7FFFFFE0
7FFFFFE0
7FFFFFC0
0000FF80
0000FF80
0001FF00
0003FE00
0003FE00
0007FC00
0007FC00
000FF800
000FF000
001FF000
003FE000
003FC000
007FC000
007F8000
00FF8000
01FF0000
01FF0000
03FE0000
03FC0000
07FC0000
07F80000
0FF80000
0FF00000
1FF00000
1FE00000
3FC00000
7FC00000
7FFFFFE0
FFFFFFE0
FFFFFFE0
FFFFFFE0
FFFFFFE0
FFFFFFE0
FFFFFFE0
ENDCHAR
STARTCHAR 017A
ENCODING 378
SWIDTH 495 0
DWIDTH 33 0
BBX 25 46 4 0
BITMAP
00008000
0003C000
0007C000
000FE000
003FF000
007FF000
01FFF000
03FFC000
01FF0000
00FC0000
00F00000
00400000
00000000
00000000
00000000
7FFFFF00
7FFFFF00
7FFFFF00
7FFFFF00
7FFFFF00
7FFFFF00
0003FF00
0007FE00
0007FC00
000FF800
001FF000
003FF000
003FE000
007FC000
00FF8000
01FF0000
01FF0000
03FE0000
07FC0000
07FC0000
0FF80000
1FF00000
1FE00000
3FE00000
7FFFFF80
7FFFFF80
FFFFFF80
FFFFFF80
FFFFFF80
FFFFFF80
FFFFFF80
ENDCHAR
STARTCHAR 017B
ENCODING 379
SWIDTH 495 0
DWIDTH 33 0
BBX 27 54 3 0
BITMAP
001F0000
003F8000
007FC000
007FC000
007FC000
007FC000
007FC000
003F8000
001F0000
00000000
00000000
00000000
00000000
7FFFFFE0
7FFFFFE0
7FFFFFE0
7FFFFFE0
7FFFFFE0
7FFFFFE0
7FFFFFC0
0000FF80
0000FF80
0001FF00
0003FE00
0003FE00
0007FC00
0007FC00
000FF800
000FF000
001FF000
003FE000
003FC000
007FC000
007F8000
00FF8000
01FF0000
01FF0000
03FE0000
03FC0000
07FC0000
07F80000
0FF80000
0FF00000
1FF00000
1FE00000
3FC00000
7FC00000
7FFFFFE0
FFFFFFE0
FFFFFFE0
FFFFFFE0
FFFFFFE0
FFFFFFE0
FFFFFFE0
ENDCHAR
STARTCHAR 017C
ENCODING 380
SWIDTH 495 0
DWIDTH 33 0
BBX 25 45 4 0
BITMAP
003E0000
007F0000
00FF8000
00FF8000
00FF8000
00FF8000
00FF8000
007F0000
003E0000
00000000
00000000
00000000
00000000
00000000
7FFFFF00
7FFFFF00
7FFFFF00
7FFFFF00
7FFFFF00
7FFFFF00
0003FF00
0007FE00
0007FC00
000FF800
001FF000
003FF000
003FE000
007FC000
00FF8000
01FF0000
01FF0000
03FE0000
07FC0000
07FC0000
0FF80000
1FF00000
1FE00000
3FE00000
7FFFFF80
7FFFFF80
FFFFFF80
FFFFFF80
FFFFFF80
FFFFFF80
FFFFFF80
ENDCHAR
STARTCHAR 017D
ENCODING 381
SWIDTH 495 0
DWIDTH 33 0
BBX 27 55 3 0
BITMAP
01801000
03C07800
07E0FC00
07F9FE00
07FFFC00
01FFF800
00FFF000
007FE000
003F8000
001F0000
000E0000
00040000
00000000
00000000
7FFFFFE0
7FFFFFE0
7FFFFFE0
7FFFFFE0
7FFFFFE0
7FFFFFE0
7FFFFFC0
0000FF80
0000FF80
0001FF00
0003FE00
0003FE00
0007FC00
0007FC00
000FF800
000FF000
001FF000
003FE000
003FC000
007FC000
007F8000
00FF8000
01FF0000
01FF0000
03FE0000
03FC0000
07FC0000
07F80000
0FF80000
0FF00000
1FF00000
1FE00000
3FC00000
7FC00000
7FFFFFE0
FFFFFFE0
FFFFFFE0
FFFFFFE0
FFFFFFE0
FFFFFFE0
FFFFFFE0
ENDCHAR
STARTCHAR 017E
ENCODING 382
SWIDTH 495 0
DWIDTH 33 0
BBX 25 46 4 0
BITMAP
02002000
07807000
07C1F800
0FE3FC00
0FFFF800
07FFF000
03FFE000
00FFC000
007F8000
003F0000
001C0000
00080000
00000000
00000000
00000000
7FFFFF00
7FFFFF00
7FFFFF00
7FFFFF00
7FFFFF00
7FFFFF00
0003FF00
0007FE00
0007FC00
000FF800
001FF000
003FF000
003FE000
007FC000
00FF8000
01FF0000
01FF0000
03FE0000
07FC0000
07FC0000
0FF80000
1FF00000
1FE00000
3FE00000
7FFFFF80
7FFFFF80
FFFFFF80
FFFFFF80
FFFFFF80
FFFFFF80
FFFFFF80
ENDCHAR
STARTCHAR 017F
ENCODING 383
SWIDTH 495 0
DWIDTH 33 0
BBX 24 46 9 0
BITMAP
00FFF8
03FFFE
0FFFFF
1FFFFE
1FFFFE
3FFFFE
7FFFFE
7FE01E
7FC000
FF8000
FF8000
FF8000
FF8000
FF8000
FF8000
FF8000
FF8000
FF8000
FF8000
FF8000
FF8000
FF8000
FF8000
FF8000
FF8000
FF8000
FF8000
FF8000
FF8000
FF8000
FF8000
FF8000
FF8000
FF8000
FF8000
FF8000
FF8000
FF8000
FF8000
FF8000
FF8000
FF8000
FF8000
FF8000
FF8000
FF8000
ENDCHAR
STARTCHAR 0180
ENCODING 384
SWIDTH 495 0
DWIDTH 33 0
BBX 30 47 1 -1
BITMAP
00F00000
0FF00000
0FF00000
0FF00000
0FF00000
FFFFFC00
FFFFFC00
FFFFFC00
FFFFFC00
FFFFFC00
FFFFFC00
0FF00000
0FF00000
0FF00000
0FF3FC00
0FFFFF00
0FFFFFC0
0FFFFFE0
0FFFFFE0
0FFFFFF0
0FFFFFF0
0FFC1FF8
0FF00FF8
0FF007FC
0FF007FC
0FF007FC
0FF003FC
0FF003FC
0FF003FC
0FF003FC
0FF003FC
0FF003FC
0FF003FC
0FF003FC
0FF003FC
0FF007FC
0FF007FC
0FF00FF8
0FF01FF8
0FF87FF0
0FFFFFF0
0FFFFFE0
0FFFFFC0
0FFFFF80
0FFFFF00
07FFFC00
0007C000
ENDCHAR
STARTCHAR 0181
ENCODING 385
SWIDTH 495 0
DWIDTH 33 0
BBX 32 43 0 -1
BITMAP
000FF800
03FFFF80
0FFFFFE0
3FFFFFF0
7FFFFFF8
7FFFFFF8
FFFFFFFC
FE3F83FC
FE3F81FC
FC3F81FC
FC3F81FE
FC3F80FE
FC3F81FC
7E3F81FC
003F81FC
003F81FC
003F83F8
003FFFF0
003FFFE0
003FFFC0
003FFFE0
003FFFF8
003FFFFC
003FFFFE
003F81FE
003F80FF
003F807F
003F807F
003F807F
003F807F
003F807F
003F807F
003F807F
003F80FF
003F81FF
003FFFFF
003FFFFE
003FFFFE
003FFFFC
003FFFF8
003FFFE0
003FFF80
00002000
ENDCHAR
STARTCHAR 0182
ENCODING 386
SWIDTH 495 0
DWIDTH 33 0
BBX 27 42 4 -1
BITMAP
FFFFFE00
FFFFFE00
FFFFFE00
FFFFFE00
FFFFFE00
FFFFFE00
FFFFFE00
FF000000
FF000000
FF000000
FF000000
FF000000
FF000000
FF000000
FFF80000
FFFFE000
FFFFF800
FFFFFE00
FFFFFF00
FFFFFF80
FFFFFFC0
FFFFFFC0
FF00FFC0
FF003FE0
FF003FE0
FF001FE0
FF001FE0
FF001FE0
FF001FE0
FF001FE0
FF001FE0
FF003FE0
FF003FE0
FF00FFC0
FFFFFFC0
FFFFFF80
FFFFFF80
FFFFFF00
FFFFFE00
FFFFF800
FFFFE000
00300000
ENDCHAR
STARTCHAR 0183
ENCODING 387
SWIDTH 495 0
DWIDTH 33 0
BBX 27 47 4 -1
BITMAP
FFFFFF00
FFFFFF00
FFFFFF00
FFFFFF00
FFFFFF00
FFFFFF00
FFFFFF00
FF000000
FF000000
FF000000
FF000000
FF000000
FF000000
FF000000
FF1FE000
FFFFF800
FFFFFC00
FFFFFE00
FFFFFF00
FFFFFF80
FFFFFF80
FFC1FFC0
FF007FC0
FF003FE0
FF003FE0
FF003FE0
FF001FE0
FF001FE0
FF001FE0
FF001FE0
FF001FE0
FF001FE0
FF001FE0
FF001FE0
FF001FE0
FF003FE0
FF003FE0
FF007FC0
FF00FFC0
FFC3FF80
FFFFFF80
FFFFFF00
FFFFFE00
FFFFFC00
FFFFF800
3FFFE000
017F0000
ENDCHAR
STARTCHAR 0184
ENCODING 388
SWIDTH 495 0
DWIDTH 33 0
BBX 32 47 -1 -1
BITMAP
00180000
00F80000
03F80000
0FF80000
3FF80000
FFF80000
7FF80000
3FF80000
1FF80000
0FF80000
07F80000
07F80000
07F80000
07F80000
07F8FF00
07FFFFC0
07FFFFE0
07FFFFF0
07FFFFF8
07FFFFFC
07FFFFFC
07FE0FFE
07F803FE
07F801FE
07F801FF
07F801FF
07F800FF
07F800FF
07F800FF
07F800FF
07F800FF
07F800FF
07F800FF
07F800FF
07F800FF
07F801FF
07F801FF
07F803FE
07F807FE
07FE1FFC
07FFFFFC
07FFFFF8
07FFFFF0
07FFFFE0
07FFFFC0
01FFFF00
000BF000
ENDCHAR
STARTCHAR 0185
ENCODING 389
SWIDTH 495 0
DWIDTH 33 0
BBX 31 42 0 0
BITMAP
00080000
00780000
03F80000
0FF80000
3FF80000
FFF80000
7FF80000
7FF80000
3FF80000
1FF80000
0FF80000
07F80000
07F80000
07F80000
07F80000
07F80000
07FFF800
07FFFF80
07FFFFE0
07FFFFF0
07FFFFF8
07FFFFF8
07FFFFFC
07F81FFC
07F807FE
07F803FE
07F801FE
07F801FE
07F801FE
07F801FE
07F801FE
07F801FE
07F803FE
07F807FE
07F80FFC
07FFFFFC
07FFFFF8
07FFFFF8
07FFFFF0
07FFFFC0
07FFFF80
03FFFC00
ENDCHAR
STARTCHAR 0186
ENCODING 390
SWIDTH 495 0
DWIDTH 33 0
BBX 29 43 2 -1
BITMAP
03FF8000
3FFFF000
FFFFF800
FFFFFE00
FFFFFF00
7FFFFF80
7FFFFF80
7C03FFC0
3000FFE0
00007FE0
00003FE0
00001FF0
00001FF0
00000FF0
00000FF8
00000FF8
000007F8
000007F8
000007F8
000007F8
000007F8
000007F8
000007F8
000007F8
000007F8
000007F8
00000FF8
00000FF8
00000FF8
00000FF0
00001FF0
00001FF0
00003FE0
00007FE0
3000FFC0
7E07FFC0
7FFFFF80
7FFFFF00
FFFFFF00
FFFFFC00
7FFFF800
1FFFE000
01FE0000
ENDCHAR
STARTCHAR 0187
ENCODING 391
SWIDTH 495 0
DWIDTH 33 0
BBX 33 48 2 -1
BITMAP
0000001F00
000000FF80
000001FF80
000003FF00
000003FF00
000FFFFF00
007FFFFF00
00FFFFE000
03FFFFC000
07FFFFC000
0FFFFF8000
0FFFFF8000
1FFC078000
3FF0010000
3FE0000000
3FE0000000
7FC0000000
7FC0000000
7F80000000
FF80000000
FF80000000
FF00000000
FF00000000
FF00000000
FF00000000
FF00000000
FF00000000
FF00000000
FF00000000
FF00000000
FF00000000
FF00000000
FF80000000
FF80000000
7F80000000
7FC0000000
7FC0000000
3FE0000000
3FE0000000
1FF8018000
1FFE0F8000
0FFFFFC000
0FFFFFC000
07FFFFC000
03FFFFE000
00FFFFC000
007FFF0000
0007F00000
ENDCHAR
STARTCHAR 0188
ENCODING 392
SWIDTH 495 0
DWIDTH 33 0
BBX 32 38 3 -1
BITMAP
000001FC
000003FF
000007FE
00000FFE
00000FFE
001FFFFC
00FFFFFC
01FFFF80
07FFFF00
0FFFFF00
1FFFFE00
3FFFFE00
3FFC0600
7FF00000
7FC00000
7FC00000
FF800000
FF800000
FF000000
FF000000
FF000000
FF000000
FF000000
FF000000
FF000000
FF800000
FF800000
FFC00000
7FE00000
7FF00100
3FFF3F00
3FFFFF00
1FFFFF00
0FFFFF80
07FFFF80
03FFFF80
00FFFF00
000FF000
ENDCHAR
STARTCHAR 0189
ENCODING 393
SWIDTH 495 0
DWIDTH 33 0
BBX 31 43 1 -1
BITMAP
007F8000
0FFFF800
0FFFFE00
0FFFFF00
0FFFFF80
0FFFFFC0
0FFFFFE0
0FF9FFE0
0FF03FF0
0FF01FF0
0FF00FF8
0FF007F8
0FF007FC
0FF007FC
0FF003FC
0FF003FC
0FF003FC
FFFF83FC
FFFF83FC
FFFF83FC
FFFF83FE
FFFF83FE
FFFF83FE
FFFF83FC
0FF003FC
0FF003FC
0FF003FC
0FF003FC
0FF007FC
0FF007FC
0FF007F8
0FF00FF8
0FF01FF8
0FF01FF0
0FF07FF0
0FFFFFE0
0FFFFFC0
0FFFFFC0
0FFFFF00
0FFFFE00
0FFFFC00
0FFFE000
000C0000
ENDCHAR
STARTCHAR 018A
ENCODING 394
SWIDTH 495 0
DWIDTH 33 0
BBX 32 42 0 0
BITMAP
0007F000
03FFFF00
0FFFFF80
1FFFFFE0
3FFFFFF0
7FFFFFF8
FFFFFFF8
FE3F83FC
FE3F81FC
FC3F81FE
FC3F80FE
FC3F80FE
FC3F80FE
7E3F807F
003F807F
003F807F
003F807F
003F807F
003F807F
003F807F
003F807F
003F807F
003F807F
003F807F
003F807F
003F807F
003F807F
003F807F
003F807F
003F80FE
003F80FE
003F80FE
003F81FE
003F81FC
003F83FC
003FFFF8
003FFFF8
003FFFF0
003FFFE0
003FFFC0
003FFF80
003FFE00
ENDCHAR
STARTCHAR 018B
ENCODING 395
SWIDTH 495 0
DWIDTH 33 0
BBX 28 41 2 0
BITMAP
1FFFFFF0
1FFFFFF0
1FFFFFF0
1FFFFFF0
1FFFFFF0
1FFFFFF0
1FFFFFF0
00001FF0
00001FF0
00001FF0
00001FF0
00001FF0
00001FF0
00001FF0
00001FF0
001FFFF0
01FFFFF0
07FFFFF0
0FFFFFF0
1FFFFFF0
3FFFFFF0
7FFFFFF0
7FF01FF0
7FC01FF0
FF801FF0
FF801FF0
FF001FF0
FF001FF0
FF001FF0
FF001FF0
FF801FF0
FF801FF0
7FC01FF0
7FE01FF0
7FFFFFF0
3FFFFFF0
1FFFFFF0
0FFFFFF0
07FFFFF0
01FFFFF0
003FFFE0
ENDCHAR
STARTCHAR 018C
ENCODING 396
SWIDTH 495 0
DWIDTH 33 0
BBX 27 47 2 -1
BITMAP
1FFFFFE0
1FFFFFE0
1FFFFFE0
1FFFFFE0
1FFFFFE0
1FFFFFE0
1FFFFFE0
00003FE0
00003FE0
00003FE0
00003FE0
00003FE0
00003FE0
00003FE0
007F3FE0
03FFFFE0
07FFFFE0
0FFFFFE0
1FFFFFE0
3FFFFFE0
3FFFFFE0
7FF0FFE0
7FC03FE0
7F803FE0
FF803FE0
FF803FE0
FF003FE0
FF003FE0
FF003FE0
FF003FE0
FF003FE0
FF003FE0
FF003FE0
FF003FE0
FF803FE0
FF803FE0
7F803FE0
7FC03FE0
7FE03FE0
3FF83FE0
3FFFFFE0
1FFFFFE0
0FFFFFE0
07FFFFE0
03FFFFE0
00FFFF80
000FC000
ENDCHAR
STARTCHAR 018D
ENCODING 397
SWIDTH 495 0
DWIDTH 33 0
BBX 29 43 2 -11
BITMAP
003FF000
01FFFC00
07FFFF00
0FFFFF80
1FFFFFC0
3FFFFFE0
3FFFFFF0
7FF03FF0
7FC01FF8
7F800FF8
FF800FF8
FF8007F8
FF8007F8
FF0007F8
FF0007F8
FF8007F8
FF8007F8
FF800FF8
7FC00FF0
7FE00FF0
3FF01FE0
3FF83FE0
1FFC7FC0
1FFFFF80
0FFFFF00
07FFFE00
01FFFC00
00FFFC00
003FFE00
001FFF00
0007FF00
0001FF80
0000FF80
00007F80
00007F80
04007F80
07E1FF80
0FFFFF00
0FFFFF00
0FFFFE00
0FFFFC00
1FFFF800
03FFC000
ENDCHAR
STARTCHAR 018E
ENCODING 398
SWIDTH 495 0
DWIDTH 33 0
BBX 27 41 4 0
BITMAP
3FFFFFE0
3FFFFFE0
3FFFFFE0
3FFFFFE0
3FFFFFE0
3FFFFFE0
3FFFFFE0
00003FE0
00003FE0
00003FE0
00003FE0
00003FE0
00003FE0
00003FE0
00003FE0
00003FE0
0FFFFFE0
0FFFFFE0
0FFFFFE0
0FFFFFE0
0FFFFFE0
0FFFFFE0
0FFFFFE0
00003FE0
00003FE0
00003FE0
00003FE0
00003FE0
00003FE0
00003FE0
00003FE0
00003FE0
00003FE0
00003FE0
FFFFFFE0
FFFFFFE0
FFFFFFE0
FFFFFFE0
FFFFFFE0
FFFFFFE0
FFFFFFE0
ENDCHAR
STARTCHAR 018F
ENCODING 399
SWIDTH 495 0
DWIDTH 33 0
BBX 29 43 2 -1
BITMAP
03FF8000
3FFFE000
7FFFF800
7FFFFC00
3FFFFF00
3FFFFF00
3FFFFF80
1C03FFC0
00007FC0
00003FE0
00001FE0
00000FF0
00000FF0
000007F0
000007F8
000007F8
000003F8
000003F8
000003F8
FFFFFFF8
FFFFFFF8
FFFFFFF8
FFFFFFF8
FFFFFFF8
FFFFFFF8
FE0003F8
FE0007F8
FE0007F8
FE0007F8
FF0007F0
FF0007F0
7F000FF0
7F800FF0
7F801FE0
3FC03FE0
3FE07FC0
1FFFFFC0
1FFFFF80
0FFFFF00
07FFFE00
03FFFC00
00FFF000
001FC000
ENDCHAR
STARTCHAR 0190
ENCODING 400
SWIDTH 495 0
DWIDTH 33 0
BBX 30 43 2 -1
BITMAP
003FFC00
00FFFF80
03FFFFF0
07FFFFF8
0FFFFFF0
1FFFFFF0
1FFFFFF0
3FFC0FE0
3FF000E0
3FE00000
3FC00000
3FC00000
3FC00000
3FC00000
3FE00000
1FF00000
1FFE0000
0FFFFE00
07FFFE00
03FFFE00
03FFFE00
0FFFFE00
1FFFFE00
3FFFFE00
3FF80000
7FE00000
7FC00000
FF800000
FF800000
FF000000
FF000000
FF800000
FF800000
FFC00030
7FE001F8
7FFF7FF8
3FFFFFF8
3FFFFFFC
1FFFFFFC
0FFFFFFC
03FFFFF0
00FFFF80
001FF800
ENDCHAR
STARTCHAR 0191
ENCODING 401
SWIDTH 495 0
DWIDTH 33 0
BBX 32 52 -3 -11
BITMAP
01FFFFFF
01FFFFFF
01FFFFFF
01FFFFFF
01FFFFFF
01FFFFFF
01FFFFFF
01FE0000
01FE0000
01FE0000
01FE0000
01FE0000
01FE0000
01FE0000
01FE0000
01FE0000
01FE0000
01FFFFFC
01FFFFFC
01FFFFFC
01FFFFFC
01FFFFFC
01FFFFFC
01FE0000
01FE0000
01FE0000
01FE0000
01FE0000
01FE0000
01FE0000
01FE0000
01FE0000
01FE0000
01FE0000
01FE0000
01FE0000
01FE0000
01FE0000
01FE0000
01FE0000
01FE0000
01FE0000
01FE0000
01FE0000
03FE0000
7FFE0000
FFFC0000
FFFC0000
FFF80000
FFF80000
FFF00000
FF800000
ENDCHAR
STARTCHAR 0192
ENCODING 402
SWIDTH 495 0
DWIDTH 33 0
BBX 33 57 0 -11
BITMAP
00007FF800
0001FFFF00
0007FFFF80
000FFFFF00
000FFFFF00
001FFFFF00
003FFFFF00
003FF00F00
003FE00000
007FC00000
007FC00000
007FC00000
007FC00000
007FC00000
007FC00000
3FFFFFFC00
3FFFFFFC00
3FFFFFFC00
3FFFFFFC00
3FFFFFFC00
3FFFFFFC00
007FC00000
007FC00000
007FC00000
007FC00000
007FC00000
007FC00000
007FC00000
007FC00000
007FC00000
007FC00000
007FC00000
007FC00000
007FC00000
007FC00000
007FC00000
007FC00000
007FC00000
007FC00000
007FC00000
007FC00000
007FC00000
007FC00000
007FC00000
007FC00000
007F800000
007F800000
007F800000
00FF800000
01FF800000
3FFF800000
7FFF000000
7FFF000000
7FFE000000
FFFC000000
FFF8000000
FFE0000000
ENDCHAR
STARTCHAR 0193
ENCODING 403
SWIDTH 495 0
DWIDTH 33 0
BBX 33 48 2 -1
BITMAP
0000001F00
000000FF80
000001FF80
000003FF00
000003FF00
000FFFFF00
007FFFFF00
00FFFFE000
03FFFFC000
07FFFF8000
0FFFFF8000
0FFFFF8000
1FFC078000
3FF0010000
3FE0000000
3FE0000000
7FC0000000
7FC0000000
7F80000000
FF80000000
FF80000000
FF00000000
FF00000000
FF00000000
FF00000000
FF0007F800
FF0007F800
FF0007F800
FF0007F800
FF0007F800
FF0007F800
FF0007F800
FF8007F800
FF8007F800
7F8007F800
7FC007F800
7FC007F800
3FE007F800
3FE007F800
3FF807F800
1FFE0FF800
0FFFFFF800
0FFFFFF800
07FFFFF800
03FFFFF800
00FFFFF800
003FFFE000
0007FE0000
ENDCHAR
STARTCHAR 0194
ENCODING 404
SWIDTH 495 0
DWIDTH 33 0
BBX 31 52 1 -11
BITMAP
FF0001FE
FF8001FE
7F8001FE
7F8003FC
3FC003FC
3FC003F8
1FC007F8
1FE007F0
1FE00FF0
0FE00FF0
0FF00FE0
07F01FE0
07F01FC0
03F81FC0
03F83F80
03FC3F80
01FC3F80
01FC7F00
00FE7F00
00FEFE00
007EFE00
007FFC00
007FFC00
003FFC00
003FF800
001FF800
001FF000
001FF000
001FF800
003FF800
003FFC00
007FFC00
007FFE00
00FFFE00
00FEFF00
01FE7F00
01FC7F80
03FC3F80
03F83F80
03F83FC0
03F81FC0
07F81FC0
07F81FC0
07F81FC0
03F83FC0
03FFFFC0
03FFFFC0
03FFFF80
01FFFF00
00FFFF00
007FFC00
000FF000
ENDCHAR
STARTCHAR 0195
ENCODING 405
SWIDTH 495 0
DWIDTH 33 0
BBX 30 47 2 -1
BITMAP
1C000000
FC000000
FC000000
FC000000
FC000000
FC000000
FC000000
FC000000
FC000000
FC000000
FC000000
FC000000
FC000000
FC000000
FDF80000
FFFE00FC
FFFF00FC
FFFF80FC
FFFF80FC
FFFF80FC
FE1FC0FC
FC1FC0FC
FC1FC0FC
FC1FC0FC
FC0FC0FC
FC0FC0FC
FC0FC0FC
FC0FC0FC
FC0FC0FC
FC0FC0FC
FC0FC0FC
FC0FC0FC
FC0FC0FC
FC0FC0FC
FC0FC0FC
FC0FC0FC
FC0FC0FC
FC0FC1FC
FC0FC1FC
FC0FE1FC
FC0FF3FC
FC07FFF8
FC07FFF8
FC07FFF0
FC03FFF0
FC01FFC0
00003F00
ENDCHAR
STARTCHAR 0196
ENCODING 406
SWIDTH 495 0
DWIDTH 33 0
BBX 29 42 2 -1
BITMAP
FFFFFF80
FFFFFF80
FFFFFF80
FFFFFF80
FFFFFF80
FFFFFF80
FFFFFF80
00FF0000
00FF0000
00FF0000
00FF0000
00FF0000
00FF0000
00FF0000
00FF0000
00FF0000
00FF0000
00FF0000
00FF0000
00FF0000
00FF0000
00FF0000
00FF0000
00FF0000
00FF0000
00FF0000
00FF0000
00FF0000
00FF0000
00FF0000
00FF0000
00FF0000
00FF8000
00FFC000
007FFBE0
007FFFF0
007FFFF0
003FFFF0
001FFFF0
000FFFF8
0007FFF0
0000FF00
ENDCHAR
STARTCHAR 0197
ENCODING 407
SWIDTH 495 0
DWIDTH 33 0
BBX 26 41 4 0
BITMAP
FFFFFFC0
FFFFFFC0
FFFFFFC0
FFFFFFC0
FFFFFFC0
FFFFFFC0
FFFFFFC0
007F8000
007F8000
007F8000
007F8000
007F8000
007F8000
007F8000
007F8000
007F8000
1FFFFE00
1FFFFE00
1FFFFE00
1FFFFE00
1FFFFE00
1FFFFE00
1FFFFE00
007F8000
007F8000
007F8000
007F8000
007F8000
007F8000
007F8000
007F8000
007F8000
007F8000
007F8000
FFFFFFC0
FFFFFFC0
FFFFFFC0
FFFFFFC0
FFFFFFC0
FFFFFFC0
FFFFFFC0
ENDCHAR
STARTCHAR 0198
ENCODING 408
SWIDTH 495 0
DWIDTH 33 0
BBX 32 42 3 0
BITMAP
000003F0
FF000FFC
FF001FFE
FF003FFF
FF007FFE
FF007FFC
FF00FFFC
FF01FFF8
FF01FF18
FF03FE00
FF07FC00
FF07F800
FF0FF000
FF1FF000
FF1FE000
FF3FC000
FF7FC000
FFFF8000
FFFF0000
FFFF0000
FFFF0000
FFFF8000
FFFFC000
FF7FE000
FF3FF000
FF1FF800
FF1FF800
FF0FFC00
FF07FE00
FF03FE00
FF03FF00
FF01FF80
FF00FF80
FF00FFC0
FF007FC0
FF007FE0
FF003FE0
FF003FF0
FF001FF0
FF001FF8
FF000FF8
FF000FF8
ENDCHAR
STARTCHAR 0199
ENCODING 409
SWIDTH 495 0
DWIDTH 33 0
BBX 28 46 4 0
BITMAP
03FE0000
0FFE0000
1FFE0000
3FFE0000
7FFE0000
7FFE0000
7FFC0000
FF800000
FF800000
FF800000
FF000000
FF000000
FF000000
FF000000
FF000000
FF007FE0
FF00FFC0
FF00FF80
FF01FF00
FF03FE00
FF03FC00
FF07FC00
FF0FF800
FF1FF000
FF1FE000
FF3FC000
FF7F8000
FFFF0000
FFFE0000
FFFF0000
FFFF8000
FF7FC000
FF3FE000
FF1FF000
FF1FF800
FF0FF800
FF07FC00
FF03FE00
FF03FF00
FF01FF00
FF00FF80
FF00FFC0
FF007FC0
FF003FE0
FF003FF0
FF001FF0
ENDCHAR
STARTCHAR 019A
ENCODING 410
SWIDTH 495 0
DWIDTH 33 0
BBX 29 47 4 -1
BITMAP
FFFF8000
FFFF8000
FFFF8000
FFFF8000
FFFF8000
FFFF8000
FFFF8000
007F8000
007F8000
007F8000
007F8000
007F8000
007F8000
007F8000
007F8000
007F8000
007F8000
007F8000
007F8000
FFFFFFC0
FFFFFFC0
FFFFFFC0
FFFFFFC0
FFFFFFC0
FFFFFFC0
007F8000
007F8000
007F8000
007F8000
007F8000
007F8000
007F8000
007F8000
007F8000
007F8000
007F8000
007F8000
007F8000
007FC030
007FF9F0
003FFFF0
003FFFF0
001FFFF0
001FFFF0
000FFFF8
0003FFE0
00007E00
ENDCHAR
STARTCHAR 019B
ENCODING 411
SWIDTH 495 0
DWIDTH 33 0
BBX 31 46 1 0
BITMAP
7FE00000
FFF80000
7FFC0000
7FFE0100
7FFF0F80
7FFFBF80
7FFFFF80
00FFFFC0
007FFF80
03FFFC00
0FFFE000
1FFFF000
1FFFF000
0FEFF000
0F0FF800
080FF800
000FFC00
000FFC00
001FFC00
001FFE00
003FFE00
003FFF00
007FFF00
007FFF00
00FFFF80
00FFFF80
01FEFF80
01FE7FC0
03FE7FC0
03FC7FC0
03FC7FE0
07FC3FE0
07F83FE0
0FF83FE0
0FF83FF0
0FF01FF0
1FF01FF0
1FF01FF8
1FE00FF8
3FE00FF8
3FE00FF8
3FC00FFC
7FC007FC
7FC007FC
7FC007FC
FF8007FE
ENDCHAR
STARTCHAR 019C
ENCODING 412
SWIDTH 495 0
DWIDTH 33 0
BBX 31 42 1 -1
BITMAP
FE00007E
FE00007E
FE00007E
FE00007E
FE00007E
FE00007E
FE00007E
FE00007E
FE00007E
FE00007E
FE00007E
FE00007E
FE00007E
FE00007E
FE00007E
FE0FE07E
FE0FE07E
FE0FE07E
FE0FE07E
FE0FE07E
FE0FE07E
FE0FE07E
FE0FE07E
FE0FE07E
FE0FE07E
FE0FE07E
FE0FE07E
FE0FE07E
FE0FE07E
FE0FE07E
FE07E07E
FE07E07E
FE07E07E
7F07F07E
7F0FF87E
7FFFFFFE
7FFFFFFE
3FFFFFFE
3FFFFFFE
1FFFFFFE
0FFCFFFC
03F01F80
ENDCHAR
STARTCHAR 019D
ENCODING 413
SWIDTH 495 0
DWIDTH 33 0
BBX 34 52 -4 -11
BITMAP
01FC001FC0
01FE001FC0
01FE001FC0
01FF001FC0
01FF801FC0
01FF801FC0
01FFC01FC0
01FFC01FC0
01FFE01FC0
01FFE01FC0
01FFF01FC0
01FFF01FC0
01FFF81FC0
01FFF81FC0
01FDFC1FC0
01FDFC1FC0
01FCFE1FC0
01FC7E1FC0
01FC7F1FC0
01FC3F1FC0
01FC3F9FC0
01FC1F9FC0
01FC1FDFC0
01FC0FDFC0
01FC0FFFC0
01FC07FFC0
01FC07FFC0
01FC03FFC0
01FC03FFC0
01FC01FFC0
01FC01FFC0
01FC00FFC0
01FC00FFC0
01FC00FFC0
01FC007FC0
01FC007FC0
01FC003FC0
01FC003FC0
01FC001FC0
01FC001FC0
01FC001FC0
01FC000000
01FC000000
01FC000000
03FC000000
7FFC000000
FFFC000000
FFF8000000
FFF8000000
FFF0000000
FFE0000000
FF80000000
ENDCHAR
STARTCHAR 019E
ENCODING 414
SWIDTH 495 0
DWIDTH 33 0
BBX 25 43 4 -11
BITMAP
03FF8000
7FFFF000
FFFFF800
FFFFFC00
FFFFFE00
FFFFFF00
FFFFFF00
FF03FF80
FF00FF80
FF00FF80
FF007F80
FF007F80
FF007F80
FF007F80
FF007F80
FF007F80
FF007F80
FF007F80
FF007F80
FF007F80
FF007F80
FF007F80
FF007F80
FF007F80
FF007F80
FF007F80
FF007F80
FF007F80
FF007F80
FF007F80
FF007F80
FF007F80
00007F80
00007F80
00007F80
00007F80
00007F80
00007F80
00007F80
00007F80
00007F80
00007F80
00007F80
ENDCHAR
STARTCHAR 019F
ENCODING 415
SWIDTH 495 0
DWIDTH 33 0
BBX 30 43 2 -1
BITMAP
003FE000
00FFFC00
03FFFE00
07FFFF00
0FFFFF80
0FFFFFC0
1FFFFFE0
3FF07FE0
3FE03FE0
7FC01FF0
7FC00FF0
7F800FF0
7F800FF8
FF8007F8
FF0007F8
FF0007F8
FF0007F8
FF0007F8
FFFFFFF8
FFFFFFF8
FFFFFFFC
FFFFFFFC
FFFFFFFC
FFFFFFF8
FF0007F8
FF0007F8
FF0007F8
FF0007F8
FF8007F8
FF8007F8
7F800FF8
7F800FF0
7FC00FF0
3FC01FF0
3FE03FE0
3FF8FFE0
1FFFFFC0
0FFFFFC0
0FFFFF80
07FFFF00
01FFFE00
00FFF800
001FC000
ENDCHAR
STARTCHAR 01A0
ENCODING 416
SWIDTH 495 0
DWIDTH 33 0
BBX 31 49 2 -1
BITMAP
000000FE
000000FE
000000FE
000000FE
000000FE
000000FE
003FE0FE
00FFFDFE
03FFFFFC
07FFFFFC
0FFFFFF8
0FFFFFF8
1FFFFFF0
3FF07FE0
3FE03FE0
7FC01FF0
7FC00FF0
7F800FF0
7F800FF8
FF8007F8
FF8007F8
FF0007F8
FF0007F8
FF0007F8
FF0007F8
FF0007F8
FF0007FC
FF0007FC
FF0007FC
FF0007F8
FF0007F8
FF0007F8
FF0007F8
FF0007F8
FF8007F8
FF8007F8
7F800FF8
7F800FF0
7FC00FF0
3FC01FF0
3FE03FE0
3FF8FFE0
1FFFFFC0
0FFFFFC0
0FFFFF80
07FFFF00
01FFFE00
00FFF800
001FC000
ENDCHAR
STARTCHAR 01A1
ENCODING 417
SWIDTH 495 0
DWIDTH 33 0
BBX 31 39 2 -1
BITMAP
000000FE
000000FE
000000FE
000000FE
000000FE
000000FE
003FE1FE
00FFFDFC
03FFFFFC
07FFFFF8
0FFFFFF8
1FFFFFF0
3FFFFFE0
3FF07FE0
7FE01FF0
7FC00FF0
7F800FF8
FF800FF8
FF8007F8
FF0007F8
FF0007F8
FF0007F8
FF0007F8
FF0007F8
FF0007F8
FF8007F8
FF8007F8
7F800FF8
7F800FF8
7FC01FF0
3FE03FF0
3FF8FFE0
1FFFFFE0
1FFFFFC0
0FFFFF80
07FFFF00
01FFFE00
00FFF800
001FC000
ENDCHAR
STARTCHAR 01A2
ENCODING 418
SWIDTH 495 0
DWIDTH 33 0
BBX 30 43 2 -1
BITMAP
03F83F80
0FFEFFE0
1FFFFFF0
3FFFFFF0
3FFFFFF8
3FFFFFF8
7FFFFFF8
7F1FE3F8
7E0FC1F8
7E0FC1FC
7E0FC1FC
FE0FE1FC
FE0FE1FC
FE0FE1FC
FE0FE1FC
FE0FE1FC
FE0FE1FC
FE07E1FC
FE07E1FC
FE07E1FC
FE07E1FC
FE07E1FC
FE07E1FC
FE07E1FC
FE07E1FC
FE0FE1FC
FE0FE1FC
FE0FE1FC
FE0FE1FC
FE0FE1FC
FE0FE1FC
7E0FE1FC
7E0FC1FC
7E0FC1FC
7F0FC1FC
7F1FC1FC
3FFFC1FC
3FFF81FC
3FFF81FC
1FFF01FC
0FFE01FC
07FC01FC
01F00000
ENDCHAR
STARTCHAR 01A3
ENCODING 419
SWIDTH 495 0
DWIDTH 33 0
BBX 30 43 2 -11
BITMAP
03F83F00
0FFFFFC0
1FFFFFE0
3FFFFFF0
3FFFFFF8
7FFFFFF8
7FFFFFF8
7F0FE3FC
FE0FE1FC
FE07E1FC
FE07E0FC
FC07F0FC
FC07F0FC
FC07F0FC
FC07F0FC
FC07F0FC
FC07F0FC
FC07F0FC
FC07F0FC
FC07F0FC
FC07F0FC
FC07F0FC
FE07E0FC
FE0FE0FC
FE0FE0FC
7F1FE0FC
7FFFC0FC
7FFFC0FC
3FFF80FC
1FFF80FC
1FFF00FC
07FE00FC
01F000FC
000000FC
000000FC
000000FC
000000FC
000000FC
000000FC
000000FC
000000FC
000000FC
000000FC
ENDCHAR
STARTCHAR 01A4
ENCODING 420
SWIDTH 495 0
DWIDTH 33 0
BBX 31 42 0 0
BITMAP
0007F800
03FFFF80
0FFFFFE0
1FFFFFF0
3FFFFFF8
7FFFFFFC
FFFFFFFC
FE3F83FE
FE3F81FE
FC3F81FE
FC3F80FE
FC3F80FE
FC3F80FE
7E3F80FE
003F80FE
003F80FE
003F80FE
003F80FE
003F81FE
003F81FE
003F87FE
003FFFFC
003FFFFC
003FFFF8
003FFFF8
003FFFF0
003FFFC0
003FFF00
003F8000
003F8000
003F8000
003F8000
003F8000
003F8000
003F8000
003F8000
003F8000
003F8000
003F8000
003F8000
003F8000
003F8000
ENDCHAR
STARTCHAR 01A5
ENCODING 421
SWIDTH 495 0
DWIDTH 33 0
BBX 27 57 4 -11
BITMAP
03FE0000
0FFE0000
1FFE0000
3FFE0000
7FFE0000
7FFE0000
7FFC0000
FF800000
FF800000
FF000000
FF000000
FF000000
FF000000
FF000000
FFFF8000
FFFFF000
FFFFF800
FFFFFE00
FFFFFE00
FFFFFF00
FFFFFF80
FF01FF80
FF00FFC0
FF007FC0
FF003FE0
FF003FE0
FF003FE0
FF001FE0
FF001FE0
FF001FE0
FF001FE0
FF001FE0
FF001FE0
FF001FE0
FF001FE0
FF003FE0
FF003FE0
FF007FC0
FF007FC0
FFF1FFC0
FFFFFF80
FFFFFF80
FFFFFF00
FFFFFE00
FFFFFC00
FF7FF000
FF07C000
FF000000
FF000000
FF000000
FF000000
FF000000
FF000000
FF000000
FF000000
FF000000
FF000000
ENDCHAR
STARTCHAR 01A6
ENCODING 422
SWIDTH 495 0
DWIDTH 33 0
BBX 30 52 4 -6
BITMAP
FF000000
FF000000
FF000000
FF000000
FFFC0000
FFFFC000
FFFFF000
FFFFFC00
FFFFFE00
FFFFFE00
FFFFFF00
FF9FFF80
FF01FF80
FF00FF80
FF007FC0
FF007FC0
FF007FC0
FF003FC0
FF007FC0
FF007FC0
FF007FC0
FF00FF80
FF01FF80
FF07FF80
FFFFFF00
FFFFFF00
FFFFFE00
FFFFFC00
FFFFF000
FFFFE000
FFFFF000
FF0FF800
FF07F800
FF07FC00
FF03FC00
FF03FE00
FF01FE00
FF01FF00
FF00FF80
FF00FF80
FF007FC0
FF007FC0
FF003FC0
FF003FE0
FF001FE0
FF001FF0
00000FF0
00000FF8
000007F8
000007FC
000007FC
000003FC
ENDCHAR
STARTCHAR 01A7
ENCODING 423
SWIDTH 495 0
DWIDTH 33 0
BBX 28 43 3 -1
BITMAP
01FFC000
0FFFF800
3FFFFE00
3FFFFF00
3FFFFF80
1FFFFF80
1FFFFFC0
1E007FC0
08003FE0
00003FE0
00001FE0
00001FE0
00001FE0
00003FE0
00007FE0
0000FFE0
0003FFC0
001FFFC0
007FFF80
03FFFF00
07FFFE00
1FFFFC00
1FFFF000
3FFF8000
7FFE0000
7FF00000
FFE00000
FF800000
FF800000
FF000000
FF000000
FF000000
FF000000
FF800080
FF8003C0
FFE00FC0
7FFFFFE0
7FFFFFE0
3FFFFFE0
1FFFFFF0
0FFFFFC0
03FFFF00
003FF000
ENDCHAR
STARTCHAR 01A8
ENCODING 424
SWIDTH 495 0
DWIDTH 33 0
BBX 25 33 4 -1
BITMAP
07FF8000
7FFFF000
7FFFF800
7FFFFC00
7FFFFE00
3FFFFF00
3FFFFF00
3C01FF00
2000FF80
0000FF80
0000FF80
0001FF80
000FFF00
007FFF00
01FFFE00
07FFFC00
1FFFF800
3FFFE000
7FFF8000
FFFC0000
FFE00000
FF800000
FF000000
FF000000
FF000700
FFE07F80
FFFFFF80
7FFFFF80
7FFFFF80
3FFFFF80
1FFFFF80
03FFFC00
003FC000
ENDCHAR
STARTCHAR 01A9
ENCODING 425
SWIDTH 495 0
DWIDTH 33 0
BBX 29 41 2 0
BITMAP
7FFFFFF8
7FFFFFF8
7FFFFFF8
7FFFFFF8
7FFFFFF8
7FFFFFF8
3FFFFFF8
1FF00000
0FF80000
07FC0000
03FE0000
01FF0000
01FF0000
00FF8000
007FC000
003FE000
001FF000
001FF000
000FF800
0007FC00
0007FC00
000FF800
001FF000
003FE000
003FE000
007FC000
00FF8000
01FF0000
03FE0000
07FC0000
0FF80000
1FF00000
3FE00000
3FE00000
7FFFFFF8
FFFFFFF8
FFFFFFF8
FFFFFFF8
FFFFFFF8
FFFFFFF8
FFFFFFF8
ENDCHAR
STARTCHAR 01AA
ENCODING 426
SWIDTH 495 0
DWIDTH 33 0
BBX 30 57 1 -11
BITMAP
07FF0000
1FFF8000
3FFFC000
7FFFE000
7FFFF000
FFFFF000
FF0FF800
FE07F800
FE07F800
FE07F800
FE07F800
FE07F800
FF0FF800
FFFFF800
7FFFF800
7FFFF800
3FFFF800
1FFFF800
07F7F800
0007F800
0007F800
0007F800
0007F800
0007F800
0007F800
0007F800
0007F800
0007F800
0007F800
0007F800
0007F800
0007F800
0007F800
0007F800
0007F800
0007F800
0007F800
0007F800
0007F800
0007F800
0007F800
0007F800
0007F800
0007F800
0007F800
0007F800
0007FC00
0007FC00
0007FC00
0003FF00
0003FFFC
0003FFFC
0001FFFC
0001FFFC
0000FFFC
00003FFC
00000FFC
ENDCHAR
STARTCHAR 01AB
ENCODING 427
SWIDTH 495 0
DWIDTH 33 0
BBX 30 52 2 -11
BITMAP
00010000
007F0000
01FF0000
01FF0000
01FF0000
01FF0000
01FF0000
01FF0000
01FF0000
01FF0000
FFFFFFF0
FFFFFFF0
FFFFFFF0
FFFFFFF0
FFFFFFF0
FFFFFFF0
01FF0000
01FF0000
01FF0000
01FF0000
01FF0000
01FF0000
01FF0000
01FF0000
01FF0000
01FF0000
01FF0000
01FF0000
01FF0000
01FF0000
01FF0000
01FF0000
00FF0000
00FF8000
00FFE3F8
00FFFFF8
007FFFF8
007FFFF8
003FFFFC
001FFFFC
0007FFFC
0000FFFC
000001FC
000001FC
000001FC
000003F8
0001FFF8
0001FFF8
0003FFF0
0003FFE0
0003FFC0
0001FF00
ENDCHAR
STARTCHAR 01AC
ENCODING 428
SWIDTH 495 0
DWIDTH 33 0
BBX 31 41 1 0
BITMAP
03FFFFFE
1FFFFFFE
3FFFFFFE
7FFFFFFE
FFFFFFFE
FFFFFFFE
FFFFFFFE
FE07F800
FE07F800
FC07F800
FC07F800
FC07F800
FE07F800
F807F800
0007F800
0007F800
0007F800
0007F800
0007F800
0007F800
0007F800
0007F800
0007F800
0007F800
0007F800
0007F800
0007F800
0007F800
0007F800
0007F800
0007F800
0007F800
0007F800
0007F800
0007F800
0007F800
0007F800
0007F800
0007F800
0007F800
0007F800
ENDCHAR
STARTCHAR 01AD
ENCODING 429
SWIDTH 495 0
DWIDTH 33 0
BBX 30 47 2 -1
BITMAP
0000FFE0
0007FFF8
000FFFF8
003FFFF8
003FFFF8
007FFFF0
00FFFFF0
00FFF8F0
00FF8000
00FF0000
01FF0000
01FF0000
01FF0000
01FF0000
01FF0000
FFFFFFF0
FFFFFFF0
FFFFFFF0
FFFFFFF0
FFFFFFF0
FFFFFFF0
01FF0000
01FF0000
01FF0000
01FF0000
01FF0000
01FF0000
01FF0000
01FF0000
01FF0000
01FF0000
01FF0000
01FF0000
01FF0000
01FF0000
01FF0000
01FF0000
00FF0000
00FF8018
00FFF1F8
00FFFFF8
007FFFF8
007FFFFC
003FFFFC
001FFFFC
0007FFF0
0000FE00
ENDCHAR
STARTCHAR 01AE
ENCODING 430
SWIDTH 495 0
DWIDTH 33 0
BBX 30 52 2 -11
BITMAP
FFFFFFFC
FFFFFFFC
FFFFFFFC
FFFFFFFC
FFFFFFFC
FFFFFFFC
FFFFFFFC
001FE000
001FE000
001FE000
001FE000
001FE000
001FE000
001FE000
001FE000
001FE000
001FE000
001FE000
001FE000
001FE000
001FE000
001FE000
001FE000
001FE000
001FE000
001FE000
001FE000
001FE000
001FE000
001FE000
001FE000
001FE000
001FE000
001FE000
001FE000
001FE000
001FE000
001FE000
001FE000
001FE000
001FE000
001FE000
001FE000
001FE000
001FF000
001FFF80
000FFFC0
000FFFC0
0007FFC0
0007FFC0
0001FFC0
00007FC0
ENDCHAR
STARTCHAR 01AF
ENCODING 431
SWIDTH 495 0
DWIDTH 33 0
BBX 31 49 3 -1
BITMAP
000000FE
000000FE
000000FE
000000FE
000000FE
000000FE
000003FE
FE007FFC
FE007FFC
FE007FF8
FE007FE0
FE007F00
FE007F00
FE007F00
FE007F00
FE007F00
FE007F00
FE007F00
FE007F00
FE007F00
FE007F00
FE007F00
FE007F00
FE007F00
FE007F00
FE007F00
FE007F00
FE007F00
FE007F00
FE007F00
FE007F00
FE007F00
FE007F00
FE007F00
FE00FF00
FE00FF00
FE00FF00
FF00FF00
FF00FF00
FF00FF00
FF01FE00
7F83FE00
7FFFFE00
7FFFFC00
3FFFFC00
1FFFF800
0FFFF000
07FFC000
00FF0000
ENDCHAR
STARTCHAR 01B0
ENCODING 432
SWIDTH 495 0
DWIDTH 33 0
BBX 30 39 3 -1
BITMAP
000001F8
000001F8
000001FC
000001FC
000003F8
000003F8
00000FF8
FE01FFF8
FE01FFF0
FE01FFE0
FE01FF80
FE01FE00
FE01FE00
FE01FE00
FE01FE00
FE01FE00
FE01FE00
FE01FE00
FE01FE00
FE01FE00
FE01FE00
FE01FE00
FE01FE00
FE01FE00
FE01FE00
FE01FE00
FE01FE00
FF01FE00
FF01FE00
FF01FE00
FF01FE00
7F81FE00
7FFFFE00
7FFFFE00
3FFFFE00
1FFFFE00
0FFFFE00
07FFF000
00FE0000
ENDCHAR
STARTCHAR 01B1
ENCODING 433
SWIDTH 495 0
DWIDTH 33 0
BBX 32 42 1 -1
BITMAP
FFFC7FFF
FFFC7FFF
FFFC7FFF
FFFC7FFF
FFFC7FFF
FFFC7FFF
07F83FC0
0FF01FE0
0FF00FE0
1FE00FF0
1FE007F0
3FC007F8
3FC003F8
7F8003FC
7F8003FC
7F8003FC
7F8001FE
FF0001FE
FF0001FE
FF0001FE
FF0001FE
FF0001FE
FF0001FE
FF0001FE
FF0001FE
FF0001FE
FF8001FE
FF8003FE
FF8003FE
FF8003FE
7FC007FC
7FC007FC
7FE00FFC
3FF01FF8
3FFC7FF8
1FFFFFF0
0FFFFFE0
07FFFFE0
03FFFF80
01FFFF00
007FFC00
000FE000
ENDCHAR
STARTCHAR 01B2
ENCODING 434
SWIDTH 495 0
DWIDTH 33 0
BBX 29 43 3 -1
BITMAP
0007E000
FF0FFC00
FF0FFE00
FF0FFF00
FF0FFF80
FF0FFFC0
FF0FFFC0
FF09FFE0
FF003FE0
FF001FE0
FF001FF0
FF001FF0
FF000FF0
FF000FF0
FF000FF0
FF000FF0
FF000FF0
FF000FF0
FF000FF0
FF000FF0
FF000FF8
FF000FF8
FF000FF8
FF000FF8
FF000FF0
FF000FF0
FF000FF0
FF000FF0
FF000FF0
FF000FF0
FF001FF0
FF001FF0
FF801FE0
FF803FE0
7FC07FE0
7FE1FFC0
7FFFFFC0
3FFFFF80
3FFFFF00
1FFFFE00
07FFFC00
03FFF800
003FC000
ENDCHAR
STARTCHAR 01B3
ENCODING 435
SWIDTH 495 0
DWIDTH 33 0
BBX 33 42 1 0
BITMAP
0000007C00
FF8001FF80
FF8003FF80
7F8007FF80
7FC00FFF00
3FC00FFF00
3FC00FFE00
3FE01FE400
1FE01FC000
1FE03F8000
1FF03F8000
0FF03F8000
0FF07F0000
07F87F0000
07F87E0000
07F8FE0000
03FCFE0000
03FCFC0000
01FDFC0000
01FFF80000
00FFF80000
00FFF80000
007FF00000
007FF00000
003FE00000
003FE00000
001FE00000
001FE00000
001FE00000
001FE00000
001FE00000
001FE00000
001FE00000
001FE00000
001FE00000
001FE00000
001FE00000
001FE00000
001FE00000
001FE00000
001FE00000
001FE00000
ENDCHAR
STARTCHAR 01B4
ENCODING 436
SWIDTH 495 0
DWIDTH 33 0
BBX 33 43 1 -11
BITMAP
0000007C00
7F8003FF80
7FC007FF00
7FC00FFF00
3FC00FFF00
3FC01FFF00
3FE01FFF00
1FE01FE200
1FE01FC000
1FE03FC000
0FF03FC000
0FF03F8000
0FF03F8000
07F83F8000
07F87F8000
07F87F0000
03FC7F0000
03FC7F0000
03FCFF0000
01FEFE0000
01FEFE0000
01FFFE0000
00FFFE0000
00FFFC0000
007FFC0000
007FFC0000
003FF80000
003FF80000
001FF80000
001FF00000
000FF00000
001FF00000
001FE00000
003FE00000
007FC00000
20FFC00000
3FFF800000
7FFF800000
7FFF000000
7FFE000000
7FFC000000
FFF8000000
3FE0000000
ENDCHAR
STARTCHAR 01B5
ENCODING 437
SWIDTH 495 0
DWIDTH 33 0
BBX 27 41 3 0
BITMAP
7FFFFFE0
7FFFFFE0
7FFFFFE0
7FFFFFE0
7FFFFFE0
7FFFFFE0
7FFFFFC0
0000FF80
0000FF80
0001FF00
0003FE00
0003FE00
0007FC00
0007F800
000FF800
001FF000
001FF000
7FFFFFE0
7FFFFFE0
7FFFFFE0
7FFFFFE0
7FFFFFE0
7FFFFFE0
01FF0000
03FE0000
03FC0000
07FC0000
07F80000
0FF80000
0FF00000
1FF00000
3FE00000
3FC00000
7FC00000
7FFFFFE0
FFFFFFE0
FFFFFFE0
FFFFFFE0
FFFFFFE0
FFFFFFE0
FFFFFFE0
ENDCHAR
STARTCHAR 01B6
ENCODING 438
SWIDTH 495 0
DWIDTH 33 0
BBX 25 31 4 0
BITMAP
7FFFFF00
7FFFFF00
7FFFFF00
7FFFFF00
7FFFFF00
7FFFFF00
0003FF00
0007FE00
000FFC00
000FF800
001FF000
003FE000
003FE000
3FFFFF00
3FFFFF00
3FFFFF00
3FFFFF00
3FFFFF00
07FC0000
07FC0000
0FF80000
1FF00000
1FE00000
3FE00000
7FFFFF80
7FFFFF80
FFFFFF80
FFFFFF80
FFFFFF80
FFFFFF80
FFFFFF80
ENDCHAR
STARTCHAR 01B7
ENCODING 439
SWIDTH 495 0
DWIDTH 33 0
BBX 30 42 2 -1
BITMAP
7FFFFFF8
7FFFFFF8
7FFFFFF8
7FFFFFF8
7FFFFFF8
7FFFFFF0
7FFFFFF0
00001FE0
00003FC0
00007F80
0000FF00
0001FE00
0003FE00
0007FC00
000FF800
001FF000
003FE000
007FE000
007FFE00
007FFF80
007FFFC0
007FFFF0
007FFFF0
00003FF8
00000FF8
000007FC
000007FC
000003FC
000003FC
000003FC
000007FC
000007FC
20000FFC
3C001FF8
7F81FFF8
7FFFFFF8
7FFFFFF0
FFFFFFE0
FFFFFFC0
7FFFFF00
0FFFFC00
00FFC000
ENDCHAR
STARTCHAR 01B8
ENCODING 440
SWIDTH 495 0
DWIDTH 33 0
BBX 30 42 3 -1
BITMAP
7FFFFFF0
7FFFFFF0
7FFFFFF0
7FFFFFF0
7FFFFFF0
7FFFFFF0
3FFFFFF0
1FE00000
1FF00000
0FF80000
07FC0000
03FE0000
01FF0000
00FF8000
007F8000
003FC000
001FE000
007FF000
03FFF800
0FFFF800
1FFFF800
3FFFF800
7FF80000
7FE00000
FF800000
FF800000
FF000000
FF000000
FF000000
FF000000
FF000000
FF800000
FFC00010
FFE000F0
7FFC0FF0
7FFFFFF8
3FFFFFF8
1FFFFFFC
0FFFFFFC
07FFFFF0
01FFFFC0
001FFC00
ENDCHAR
STARTCHAR 01B9
ENCODING 441
SWIDTH 495 0
DWIDTH 33 0
BBX 28 42 4 -11
BITMAP
7FFFFF80
7FFFFF80
7FFFFF80
7FFFFF80
7FFFFF80
7FFFFF80
3FE00000
3FF00000
1FF80000
0FF80000
07FC0000
03FE0000
03FF0000
01FF0000
00FF8000
007FC000
003FE000
007FF000
03FFF000
0FFFF000
1FFFF000
3FFFF000
7FF80000
7FC00000
FF800000
FF800000
FF000000
FF000000
FF000000
FF000000
FF000000
FF800000
FF800000
FFC000C0
7FF80FC0
7FFFFFC0
3FFFFFE0
3FFFFFE0
1FFFFFE0
07FFFFF0
01FFFF80
003FF800
ENDCHAR
STARTCHAR 01BA
ENCODING 442
SWIDTH 495 0
DWIDTH 33 0
BBX 27 42 3 -11
BITMAP
7FFFFFC0
7FFFFFC0
7FFFFFC0
7FFFFFC0
7FFFFFC0
7FFFFFC0
0000FF80
0001FF00
0003FE00
0007FC00
000FF800
003FF000
007FE000
00FFC000
00FFE000
00FFFC00
00FFFF00
00FFFF80
00FFFFC0
0000FFC0
00003FE0
00001FE0
00001FE0
00001FE0
00001FE0
00003FE0
0000FFE0
0007FFC0
007FFFC0
03FFFF80
0FFFFE00
3FFFFC00
7FFFE000
7FFF0000
FFF00000
FF800000
FF000000
FF000000
FF000000
FF000000
7F000000
7C000000
ENDCHAR
STARTCHAR 01BB
ENCODING 443
SWIDTH 495 0
DWIDTH 33 0
BBX 28 42 2 0
BITMAP
00FFE000
07FFFC00
1FFFFF00
3FFFFF80
FFFFFF80
FFFFFFC0
7FFFFFC0
3F80FFE0
3E007FE0
18003FE0
00003FE0
00001FE0
00001FE0
00003FE0
00003FE0
00007FC0
00007FC0
0000FF80
0001FF80
3FFFFFF0
3FFFFFF0
3FFFFFF0
3FFFFFF0
3FFFFFF0
3FFFFFF0
3FFFFFF0
01FF8000
03FF0000
07FE0000
0FFC0000
0FF80000
1FF00000
3FE00000
3FE00000
7FC00000
7FFFFFF0
7FFFFFF0
7FFFFFF0
7FFFFFF0
7FFFFFF0
7FFFFFF0
7FFFFFF0
ENDCHAR
STARTCHAR 01BC
ENCODING 444
SWIDTH 495 0
DWIDTH 33 0
BBX 29 42 2 -1
BITMAP
FFFFFFF0
FFFFFFF0
FFFFFFF0
FFFFFFF0
FFFFFFF0
FFFFFFF0
FFFFFFF0
07F00000
07F00000
07F00000
07F00000
07F00000
07F00000
07F00000
07F00000
07FF0000
07FFF000
0FFFFC00
0FFFFF00
0FFFFF80
0FFFFFC0
01FFFFE0
0000FFE0
00003FF0
00001FF0
00000FF0
000007F8
000007F8
000007F8
000007F8
000007F8
000007F8
00000FF0
1C001FF0
1FC1FFF0
1FFFFFE0
3FFFFFC0
3FFFFFC0
3FFFFF80
3FFFFE00
0FFFF800
00FFC000
ENDCHAR
STARTCHAR 01BD
ENCODING 445
SWIDTH 495 0
DWIDTH 33 0
BBX 28 32 2 -1
BITMAP
FFFFFFF0
FFFFFFF0
FFFFFFF0
FFFFFFF0
FFFFFFF0
FFFFFFF0
07F00000
07E00000
07E00000
07E00000
0FE00000
0FFFC000
0FFFFC00
0FFFFF00
0FFFFFC0
0FFFFFE0
0FFFFFE0
0000FFF0
00001FF0
00000FF0
00000FF0
00000FF0
00000FF0
18001FF0
1FC0FFF0
1FFFFFE0
1FFFFFE0
3FFFFFC0
3FFFFF80
3FFFFF00
1FFFFC00
00FFC000
ENDCHAR
STARTCHAR 01BE
ENCODING 446
SWIDTH 495 0
DWIDTH 33 0
BBX 27 41 4 0
BITMAP
01F80000
07F80000
07F80000
07F80000
07F80000
07F80000
07F80000
07F80000
07F80000
FFFFFF80
FFFFFF80
FFFFFF80
FFFFFF80
FFFFFF80
FFFFFF80
07F80000
07F80000
07F80000
07F80000
07FC0000
07FE0000
07FF8000
03FFF000
01FFFC00
00FFFF00
007FFF80
003FFFC0
0007FFE0
0000FFE0
00003FE0
00001FE0
10001FE0
1C001FE0
3FC0FFE0
3FFFFFE0
3FFFFFC0
3FFFFFC0
3FFFFF80
3FFFFE00
07FFF800
007F8000
ENDCHAR
STARTCHAR 01BF
ENCODING 447
SWIDTH 495 0
DWIDTH 33 0
BBX 27 43 4 -11
BITMAP
01FF8000
1FFFF000
FFFFFC00
FFFFFE00
FFFFFF00
FFFFFF80
FFFFFF80
FF01FFC0
FF007FC0
FF007FE0
FF003FE0
FF003FE0
FF001FE0
FF001FE0
FF001FE0
FF001FE0
FF003FE0
FF003FE0
FF003FE0
FF003FC0
FF007FC0
FF007FC0
FF00FF80
FF01FF80
FF03FF00
FF0FFE00
FF3FFE00
FFFFFC00
FFFFF800
FFFFE000
FFFFC000
FFFF0000
FFFC0000
FFF00000
FF800000
FF000000
FF000000
FF000000
FF000000
FF000000
FF000000
FF000000
FF000000
ENDCHAR
STARTCHAR 01C0
ENCODING 448
SWIDTH 495 0
DWIDTH 33 0
BBX 8 58 13 -11
BITMAP
FF
FF
FF
FF
FF
FF
FF
FF
FF
FF
FF
FF
FF
FF
FF
FF
FF
FF
FF
FF
FF
FF
FF
FF
FF
FF
FF
FF
FF
FF
FF
FF
FF
FF
FF
FF
FF
FF
FF
FF
FF
FF
FF
FF
FF
FF
FF
FF
FF
FF
FF
FF
FF
FF
FF
FF
FF
FF
ENDCHAR
STARTCHAR 01C1
ENCODING 449
SWIDTH 495 0
DWIDTH 33 0
BBX 21 58 6 -11
BITMAP
FF07F8
FF07F8
FF07F8
FF07F8
FF07F8
FF07F8
FF07F8
FF07F8
FF07F8
FF07F8
FF07F8
FF07F8
FF07F8
FF07F8
FF07F8
FF07F8
FF07F8
FF07F8
FF07F8
FF07F8
FF07F8
FF07F8
FF07F8
FF07F8
FF07F8
FF07F8
FF07F8
FF07F8
FF07F8
FF07F8
FF07F8
FF07F8
FF07F8
FF07F8
FF07F8
FF07F8
FF07F8
FF07F8
FF07F8
FF07F8
FF07F8
FF07F8
FF07F8
FF07F8
FF07F8
FF07F8
FF07F8
FF07F8
FF07F8
FF07F8
FF07F8
FF07F8
FF07F8
FF07F8
FF07F8
FF07F8
FF07F8
FF07F8
ENDCHAR
STARTCHAR 01C2
ENCODING 450
SWIDTH 495 0
DWIDTH 33 0
BBX 31 58 1 -11
BITMAP
000FF000
000FF000
000FF000
000FF000
000FF000
000FF000
000FF000
000FF000
000FF000
000FF000
000FF000
000FF000
000FF000
000FF000
000FF000
000FF000
000FF000
000FF000
000FF000
000FF000
FFFFFFFE
FFFFFFFE
FFFFFFFE
FFFFFFFE
FFFFFFFE
FFFFFFFE
000FF000
000FF000
000FF000
000FF000
000FF000
000FF000
FFFFFFFE
FFFFFFFE
FFFFFFFE
FFFFFFFE
FFFFFFFE
FFFFFFFE
000FF000
000FF000
000FF000
000FF000
000FF000
000FF000
000FF000
000FF000
000FF000
000FF000
000FF000
000FF000
000FF000
000FF000
000FF000
000FF000
000FF000
000FF000
000FF000
000FF000
ENDCHAR
STARTCHAR 01C3
ENCODING 451
SWIDTH 495 0
DWIDTH 33 0
BBX 11 42 11 -1
BITMAP
7FC0
7FC0
7FC0
7FC0
7FC0
7FC0
7FC0
7FC0
7FC0
7FC0
7FC0
7FC0
7FC0
7FC0
7FC0
7FC0
7FC0
7FC0
7FC0
7FC0
3FC0
3FC0
3FC0
3F80
3F80
3F80
0000
0000
0000
0000
0000
1F00
3FC0
7FE0
FFE0
FFE0
FFE0
FFE0
7FE0
7FC0
3F80
0F00
ENDCHAR
STARTCHAR 01C4
ENCODING 452
SWIDTH 495 0
DWIDTH 33 0
BBX 34 54 1 0
BITMAP
0000080100
00001C0780
00003E0FC0
00001F9F80
00000FFF00
000007FE00
000003FC00
000001F000
000000E000
0000004000
0000000000
0000000000
1F80000000
FFF01FFF00
FFF81FFF00
FFFC1FFF00
FFFE1FFF00
FFFE1FFF00
FC7F1FFF00
FC3F003E00
FC1F007E00
FC1F807E00
FC1F807C00
FC1F80FC00
FC0F80FC00
FC0F80FC00
FC0FC0F800
FC0FC1F800
FC0FC1F800
FC0FC1F800
FC0FC1F000
FC0FC3F000
FC0FC3F000
FC0FC3F000
FC0FC3E000
FC0FC3E000
FC0FC7E000
FC0FC7E000
FC0FC7C000
FC0FC7C000
FC0FCFC000
FC1F8FC000
FC1F8F8000
FC1F8F8000
FC1F9F8000
FC3F9F8000
FC3F1F0000
FC7F1F0000
FFFE3FFF00
FFFE3FFF00
FFFC3FFF00
FFFC3FFF00
FFF83FFF00
FFE03FFF00
ENDCHAR
STARTCHAR 01C5
ENCODING 453
SWIDTH 495 0
DWIDTH 33 0
BBX 33 45 1 0
BITMAP
0000000100
00001C0300
00003E0F80
1F803F1F80
FFF01FFF00
FFF80FFE00
FFFC03FC00
FFFE01F800
FFFE00E000
FC7F004000
FC3F000000
FC1F000000
FC1F800000
FC1F800000
FC1F9FFF00
FC0F9FFF00
FC0F9FFF00
FC0FDFFF00
FC0FDFFF00
FC0FDFFF00
FC0FC07E00
FC0FC07E00
FC0FC0FC00
FC0FC0FC00
FC0FC0FC00
FC0FC1F800
FC0FC1F800
FC0FC1F800
FC0FC3F000
FC0FC3F000
FC0FC3F000
FC0FC3E000
FC1F87E000
FC1F87E000
FC1F87C000
FC1F8FC000
FC3F8FC000
FC3F0F8000
FC7F1F8000
FFFE1FFF00
FFFE1FFF00
FFFC1FFF00
FFFC1FFF00
FFF81FFF00
FFE01FFF00
ENDCHAR
STARTCHAR 01C6
ENCODING 454
SWIDTH 495 0
DWIDTH 33 0
BBX 33 47 1 -1
BITMAP
0007800000
001F800100
001F9C0300
001FBE0F80
001FBF1F80
001F9FFF00
001F8FFE00
001F83FC00
001F81F800
001F80E000
001F804000
001F800000
001F800000
001F800000
07DF800000
0FFF9FFF00
1FFF9FFF00
3FFF9FFF00
3FFF9FFF00
7FFF9FFF00
7F7F9FFF00
FE1F807E00
FC1F807E00
FC1F80FC00
FC1F80FC00
FC1F80FC00
FC1F81F800
FC1F81F800
FC1F81F800
FC1F83F000
F81F83F000
F81F83F000
F81F83E000
F81F87E000
FC1F87E000
FC1F87C000
FC1F8FC000
FC1F8FC000
7C1F8F8000
7E1F9F8000
7F3F9FFF00
3FFF9FFF00
3FFF9FFF00
1FFF9FFF00
0FFF9FFF00
07FF1FFF00
01F0000000
ENDCHAR
STARTCHAR 01C7
ENCODING 455
SWIDTH 495 0
DWIDTH 33 0
BBX 31 42 1 -1
BITMAP
FC00007E
FC00007E
FC00007E
FC00007E
FC00007E
FC00007E
FC00007E
FC00007E
FC00007E
FC00007E
FC00007E
FC00007E
FC00007E
FC00007E
FC00007E
FC00007E
FC00007E
FC00007E
FC00007E
FC00007E
FC00007E
FC00007E
FC00007E
FC00007E
FC00007E
FC00007E
FC00007E
FC00007E
FC00007E
FC00007E
FC00007E
FC00007E
FC00007E
FC00007E
FC0000FE
FFFF01FC
FFFF1FFC
FFFF1FFC
FFFF1FF8
FFFF1FF0
FFFF1FE0
00001F00
ENDCHAR
STARTCHAR 01C8
ENCODING 456
SWIDTH 495 0
DWIDTH 33 0
BBX 29 55 3 -11
BITMAP
000003E0
000007F0
000007F8
FC000FF8
FC000FF8
FC000FF8
FC0007F8
FC0007F0
FC0001E0
FC000000
FC000000
FC000000
FC000000
FC0003F0
FC0003F0
FC0003F0
FC0003F0
FC0003F0
FC0003F0
FC0003F0
FC0003F0
FC0003F0
FC0003F0
FC0003F0
FC0003F0
FC0003F0
FC0003F0
FC0003F0
FC0003F0
FC0003F0
FC0003F0
FC0003F0
FC0003F0
FC0003F0
FC0003F0
FC0003F0
FC0003F0
FC0003F0
FFFF83F0
FFFF83F0
FFFF83F0
FFFF83F0
FFFF83F0
FFFF83F0
000003F0
000003F0
000003F0
000007E0
00000FE0
0007FFE0
0007FFC0
0007FFC0
0007FF80
0007FF00
0007FC00
ENDCHAR
STARTCHAR 01C9
ENCODING 457
SWIDTH 495 0
DWIDTH 33 0
BBX 27 57 4 -11
BITMAP
7C000000
FC000000
FC000F80
FC001FC0
FC003FE0
FC003FE0
FC003FE0
FC003FE0
FC003FE0
FC001FC0
FC000F80
FC000000
FC000000
FC000000
FC000000
FC000FC0
FC000FC0
FC000FC0
FC000FC0
FC000FC0
FC000FC0
FC000FC0
FC000FC0
FC000FC0
FC000FC0
FC000FC0
FC000FC0
FC000FC0
FC000FC0
FC000FC0
FC000FC0
FC000FC0
FC000FC0
FC000FC0
FC000FC0
FC000FC0
FC000FC0
FC000FC0
FC000FC0
FE000FC0
FF800FC0
7FF80FC0
7FF80FC0
3FF80FC0
1FF80FC0
07F00FC0
00100FC0
00000FC0
00001F80
00001F80
00003F80
001FFF80
001FFF00
001FFF00
001FFE00
003FFC00
003FF000
ENDCHAR
STARTCHAR 01CA
ENCODING 458
SWIDTH 495 0
DWIDTH 33 0
BBX 31 42 1 -1
BITMAP
F81F807E
FC1F807E
FC1F807E
FC1F807E
FC1F807E
FE1F807E
FE1F807E
FE1F807E
FE1F807E
FF1F807E
FF1F807E
FF1F807E
FF9F807E
FF9F807E
FF9F807E
FF9F807E
FFDF807E
FDDF807E
FDDF807E
FDDF807E
FDFF807E
FDFF807E
FCFF807E
FCFF807E
FCFF807E
FCFF807E
FC7F807E
FC7F807E
FC7F807E
FC7F807E
FC3F807E
FC3F807E
FC3F807E
FC3F807E
FC1F80FE
FC1F81FC
FC1F8FFC
FC1F8FFC
FC0F8FF8
FC0F8FF0
FC0F8FE0
00000E00
ENDCHAR
STARTCHAR 01CB
ENCODING 459
SWIDTH 495 0
DWIDTH 33 0
BBX 30 55 1 -11
BITMAP
000001F0
000003F8
000007FC
F81F87FC
FC1F87FC
FC1F87FC
FC1F87FC
FC1F83F8
FE1F81F0
FE1F8000
FE1F8000
FE1F8000
FF1F8000
FF1F81F8
FF1F81F8
FF9F81F8
FF9F81F8
FF9F81F8
FF9F81F8
FFDF81F8
FDDF81F8
FDDF81F8
FDDF81F8
FDFF81F8
FDFF81F8
FCFF81F8
FCFF81F8
FCFF81F8
FCFF81F8
FC7F81F8
FC7F81F8
FC7F81F8
FC7F81F8
FC3F81F8
FC3F81F8
FC3F81F8
FC3F81F8
FC1F81F8
FC1F81F8
FC1F81F8
FC1F81F8
FC0F81F8
FC0F81F8
FC0F81F8
000001F8
000001F8
000003F0
000003F0
000007F0
0003FFF0
0003FFE0
0003FFE0
0003FFC0
0007FF80
0007FE00
ENDCHAR
STARTCHAR 01CC
ENCODING 460
SWIDTH 495 0
DWIDTH 33 0
BBX 31 55 1 -11
BITMAP
000000F8
000001FC
000001FE
000003FE
000003FE
000003FE
000001FE
000001FC
00000078
00000000
00000000
00000000
07FC0000
7FFF00FC
FFFF80FC
FFFFC0FC
FFFFC0FC
FFFFE0FC
FC0FE0FC
FC07E0FC
FC07E0FC
FC07E0FC
FC03E0FC
FC03E0FC
FC03E0FC
FC03E0FC
FC03E0FC
FC03E0FC
FC03E0FC
FC03E0FC
FC03E0FC
FC03E0FC
FC03E0FC
FC03E0FC
FC03E0FC
FC03E0FC
FC03E0FC
FC03E0FC
FC03E0FC
FC03E0FC
FC03E0FC
FC03E0FC
FC03E0FC
FC03E0FC
000000FC
000000FC
000000FC
000001F8
000003F8
0001FFF8
0001FFF0
0001FFF0
0001FFE0
0001FFC0
0001FF00
ENDCHAR
STARTCHAR 01CD
ENCODING 461
SWIDTH 495 0
DWIDTH 33 0
BBX 32 55 1 0
BITMAP
00600400
00F01E00
01F83F00
01FE7F80
01FFFF00
007FFE00
003FFC00
001FF800
000FE000
0007C000
00038000
00010000
00000000
00000000
001FF800
001FF800
003FF800
003FF800
003FFC00
003FFC00
007FFC00
007FFE00
007EFE00
00FEFE00
00FEFF00
00FE7F00
01FC7F00
01FC7F80
01FC7F80
03FC3F80
03F83F80
03F83FC0
03F83FC0
07F81FC0
07F01FE0
07F01FE0
0FF01FE0
0FF01FE0
0FF00FF0
0FFFFFF0
1FFFFFF0
1FFFFFF0
1FFFFFF8
3FFFFFF8
3FFFFFF8
3FC007F8
3FC007FC
7FC007FC
7F8003FC
7F8003FC
7F8003FE
FF8003FE
FF8003FE
FF0001FE
FF0001FF
ENDCHAR
STARTCHAR 01CE
ENCODING 462
SWIDTH 495 0
DWIDTH 33 0
BBX 26 47 3 -1
BITMAP
01001000
03C03800
03E0FC00
07F1FE00
07FFFC00
03FFF800
01FFF000
007FE000
003FC000
001F8000
000E0000
00040000
00000000
00000000
03FFE000
1FFFF800
1FFFFE00
1FFFFF00
1FFFFF00
0FFFFF80
0FFFFF80
0800FFC0
00007FC0
00003FC0
00003FC0
00003FC0
00001FC0
01FFFFC0
0FFFFFC0
1FFFFFC0
3FFFFFC0
7FFFFFC0
7FF8FFC0
FF801FC0
FF001FC0
FF001FC0
FF001FC0
FF001FC0
FF801FC0
FFC01FC0
7FFFFFC0
7FFFFFC0
3FFFFFC0
3FFFFFC0
0FFFFFC0
07FFFF80
003FC000
ENDCHAR
STARTCHAR 01CF
ENCODING 463
SWIDTH 495 0
DWIDTH 33 0
BBX 26 55 4 0
BITMAP
03002000
0780F000
0FC1F800
0FF3FC00
0FFFF800
03FFF000
01FFE000
00FFC000
007F0000
003E0000
001C0000
00080000
00000000
00000000
FFFFFFC0
FFFFFFC0
FFFFFFC0
FFFFFFC0
FFFFFFC0
FFFFFFC0
FFFFFFC0
007F8000
007F8000
007F8000
007F8000
007F8000
007F8000
007F8000
007F8000
007F8000
007F8000
007F8000
007F8000
007F8000
007F8000
007F8000
007F8000
007F8000
007F8000
007F8000
007F8000
007F8000
007F8000
007F8000
007F8000
007F8000
007F8000
007F8000
FFFFFFC0
FFFFFFC0
FFFFFFC0
FFFFFFC0
FFFFFFC0
FFFFFFC0
FFFFFFC0
ENDCHAR
STARTCHAR 01D0
ENCODING 464
SWIDTH 495 0
DWIDTH 33 0
BBX 29 47 2 -1
BITMAP
01001000
03C07800
07E0FC00
07F1FE00
07FFFC00
03FFF800
01FFF000
00FFE000
003FC000
001F0000
000E0000
00040000
00000000
00000000
00000000
FFFF8000
FFFF8000
FFFF8000
FFFF8000
FFFF8000
FFFF8000
007F8000
007F8000
007F8000
007F8000
007F8000
007F8000
007F8000
007F8000
007F8000
007F8000
007F8000
007F8000
007F8000
007F8000
007F8000
007FC000
007FC000
003FE010
003FF9F0
003FFFF0
003FFFF8
001FFFF8
000FFFF8
0007FFF8
0003FFE0
00007C00
ENDCHAR
STARTCHAR 01D1
ENCODING 465
SWIDTH 495 0
DWIDTH 33 0
BBX 30 56 2 -1
BITMAP
00C00800
01E03C00
03F07E00
03FCFF00
03FFFE00
00FFFC00
007FF800
003FF000
001FC000
000F8000
00070000
00020000
00000000
003FE000
00FFFC00
03FFFE00
07FFFF00
0FFFFF80
0FFFFFC0
1FFFFFE0
3FF07FE0
3FE03FE0
7FC01FF0
7FC00FF0
7F800FF0
7F800FF8
FF8007F8
FF8007F8
FF0007F8
FF0007F8
FF0007F8
FF0007F8
FF0007F8
FF0007FC
FF0007FC
FF0007FC
FF0007F8
FF0007F8
FF0007F8
FF0007F8
FF0007F8
FF8007F8
FF8007F8
7F800FF8
7F800FF0
7FC00FF0
3FC01FF0
3FE03FE0
3FF8FFE0
1FFFFFC0
0FFFFFC0
0FFFFF80
07FFFF00
01FFFE00
00FFF800
001FC000
ENDCHAR
STARTCHAR 01D2
ENCODING 466
SWIDTH 495 0
DWIDTH 33 0
BBX 29 47 2 -1
BITMAP
00800800
01E01C00
01F07E00
03F8FF00
03FFFE00
01FFFC00
00FFF800
003FF000
001FE000
000FC000
00070000
00020000
00000000
00000000
003FE000
00FFFC00
03FFFE00
07FFFF00
0FFFFF80
1FFFFFC0
3FFFFFE0
3FF07FF0
7FE01FF0
7FC00FF0
7F800FF8
FF800FF8
FF8007F8
FF0007F8
FF0007F8
FF0007F8
FF0007F8
FF0007F8
FF0007F8
FF8007F8
FF8007F8
7F800FF8
7F800FF8
7FC01FF0
3FE03FF0
3FF8FFE0
1FFFFFE0
1FFFFFC0
0FFFFF80
07FFFF00
01FFFE00
00FFF800
001FC000
ENDCHAR
STARTCHAR 01D3
ENCODING 467
SWIDTH 495 0
DWIDTH 33 0
BBX 28 56 3 -1
BITMAP
01801000
03C07800
07E0FC00
07F9FE00
07FFFC00
01FFF800
00FFF000
007FE000
003F8000
001F0000
000E0000
00040000
00000000
00000000
FF000FF0
FF000FF0
FF000FF0
FF000FF0
FF000FF0
FF000FF0
FF000FF0
FF000FF0
FF000FF0
FF000FF0
FF000FF0
FF000FF0
FF000FF0
FF000FF0
FF000FF0
FF000FF0
FF000FF0
FF000FF0
FF000FF0
FF000FF0
FF000FF0
FF000FF0
FF000FF0
FF000FF0
FF000FF0
FF000FF0
FF001FF0
FF001FF0
FF001FF0
FF001FF0
FF001FE0
FF001FE0
FF803FE0
FFC03FE0
7FF1FFC0
7FFFFFC0
3FFFFFC0
3FFFFF80
1FFFFF00
0FFFFE00
03FFF800
007FC000
ENDCHAR
STARTCHAR 01D4
ENCODING 468
SWIDTH 495 0
DWIDTH 33 0
BBX 25 47 4 -1
BITMAP
02002000
07807000
07C1F800
0FE3FC00
0FFFF800
07FFF000
03FFE000
00FFC000
007F8000
003F0000
001C0000
00080000
00000000
00000000
00000000
FF007F80
FF007F80
FF007F80
FF007F80
FF007F80
FF007F80
FF007F80
FF007F80
FF007F80
FF007F80
FF007F80
FF007F80
FF007F80
FF007F80
FF007F80
FF007F80
FF007F80
FF007F80
FF007F80
FF007F80
FF807F80
FF807F80
FF807F80
7FC07F80
7FF3FF80
7FFFFF80
3FFFFF80
3FFFFF80
1FFFFF80
0FFFFF80
03FFFE00
003F8000
ENDCHAR
STARTCHAR 01D5
ENCODING 469
SWIDTH 495 0
DWIDTH 33 0
BBX 28 56 3 -1
BITMAP
03FFF800
03FFF800
03FFF800
03FFF800
00000000
00000000
03C07800
07E0FC00
0FF0FE00
0FF1FE00
0FF0FE00
07F0FE00
07E07C00
00801000
00000000
00000000
FF000FF0
FF000FF0
FF000FF0
FF000FF0
FF000FF0
FF000FF0
FF000FF0
FF000FF0
FF000FF0
FF000FF0
FF000FF0
FF000FF0
FF000FF0
FF000FF0
FF000FF0
FF000FF0
FF000FF0
FF000FF0
FF000FF0
FF000FF0
FF000FF0
FF000FF0
FF000FF0
FF000FF0
FF001FF0
FF001FF0
FF001FF0
FF001FF0
FF001FE0
FF001FE0
FF803FE0
FFC03FE0
7FF1FFC0
7FFFFFC0
3FFFFFC0
3FFFFF80
1FFFFF00
0FFFFE00
03FFF800
007FC000
ENDCHAR
STARTCHAR 01D6
ENCODING 470
SWIDTH 495 0
DWIDTH 33 0
BBX 25 50 4 -1
BITMAP
07FFF000
07FFF000
07FFF000
07FFF000
07FFF000
00000000
00000000
0FC0F800
0FC1FC00
1FE1FC00
1FE3FC00
1FE1FC00
0FC1F800
0780F000
00000000
00000000
00000000
00000000
FF007F80
FF007F80
FF007F80
FF007F80
FF007F80
FF007F80
FF007F80
FF007F80
FF007F80
FF007F80
FF007F80
FF007F80
FF007F80
FF007F80
FF007F80
FF007F80
FF007F80
FF007F80
FF007F80
FF007F80
FF807F80
FF807F80
FF807F80
7FC07F80
7FF3FF80
7FFFFF80
3FFFFF80
3FFFFF80
1FFFFF80
0FFFFF80
03FFFE00
003F8000
ENDCHAR
STARTCHAR 01D7
ENCODING 471
SWIDTH 495 0
DWIDTH 33 0
BBX 28 56 3 -1
BITMAP
00030000
00078000
000FC000
001FE000
003FC000
1F3F9F00
1F9E3F80
3FCC3F80
3FC03F80
3FC03F80
1F803F80
0F001E00
00000000
00000000
00000000
FF000FF0
FF000FF0
FF000FF0
FF000FF0
FF000FF0
FF000FF0
FF000FF0
FF000FF0
FF000FF0
FF000FF0
FF000FF0
FF000FF0
FF000FF0
FF000FF0
FF000FF0
FF000FF0
FF000FF0
FF000FF0
FF000FF0
FF000FF0
FF000FF0
FF000FF0
FF000FF0
FF000FF0
FF000FF0
FF001FF0
FF001FF0
FF001FF0
FF001FF0
FF001FE0
FF001FE0
FF803FE0
FFC03FE0
7FF1FFC0
7FFFFFC0
3FFFFFC0
3FFFFF80
1FFFFF00
0FFFFE00
03FFF800
007FC000
ENDCHAR
STARTCHAR 01D8
ENCODING 472
SWIDTH 495 0
DWIDTH 33 0
BBX 25 53 4 -1
BITMAP
00018000
0001C000
0003F000
0007F800
0007F000
000FE000
001FC000
001F8000
003F0000
087E0C00
3F3E3E00
7F1C7F00
7F007F00
7F807F00
7F007F00
3F003F00
1C001C00
00000000
00000000
00000000
00000000
FF007F80
FF007F80
FF007F80
FF007F80
FF007F80
FF007F80
FF007F80
FF007F80
FF007F80
FF007F80
FF007F80
FF007F80
FF007F80
FF007F80
FF007F80
FF007F80
FF007F80
FF007F80
FF007F80
FF007F80
FF807F80
FF807F80
FF807F80
7FC07F80
7FF3FF80
7FFFFF80
3FFFFF80
3FFFFF80
1FFFFF80
0FFFFF80
03FFFE00
003F8000
ENDCHAR
STARTCHAR 01D9
ENCODING 473
SWIDTH 495 0
DWIDTH 33 0
BBX 28 56 3 -1
BITMAP
0030C000
007BC000
00FFE000
007FE000
003F8000
1F1F1F00
1F8E3F80
3FC43F80
3FC03F80
3FC03F80
1F803F80
0F001E00
00000000
00000000
00000000
FF000FF0
FF000FF0
FF000FF0
FF000FF0
FF000FF0
FF000FF0
FF000FF0
FF000FF0
FF000FF0
FF000FF0
FF000FF0
FF000FF0
FF000FF0
FF000FF0
FF000FF0
FF000FF0
FF000FF0
FF000FF0
FF000FF0
FF000FF0
FF000FF0
FF000FF0
FF000FF0
FF000FF0
FF000FF0
FF001FF0
FF001FF0
FF001FF0
FF001FF0
FF001FE0
FF001FE0
FF803FE0
FFC03FE0
7FF1FFC0
7FFFFFC0
3FFFFFC0
3FFFFF80
1FFFFF00
0FFFFE00
03FFF800
007FC000
ENDCHAR
STARTCHAR 01DA
ENCODING 474
SWIDTH 495 0
DWIDTH 33 0
BBX 25 52 4 -1
BITMAP
03006000
0780F000
07C1F800
0FF7F800
07FFF000
03FFE000
00FFC000
007F0000
083E0C00
3F1C3E00
7F087F00
7F007F00
7F807F00
7F007F00
3F003F00
1C001C00
00000000
00000000
00000000
00000000
FF007F80
FF007F80
FF007F80
FF007F80
FF007F80
FF007F80
FF007F80
FF007F80
FF007F80
FF007F80
FF007F80
FF007F80
FF007F80
FF007F80
FF007F80
FF007F80
FF007F80
FF007F80
FF007F80
FF007F80
FF807F80
FF807F80
FF807F80
7FC07F80
7FF3FF80
7FFFFF80
3FFFFF80
3FFFFF80
1FFFFF80
0FFFFF80
03FFFE00
003F8000
ENDCHAR
STARTCHAR 01DB
ENCODING 475
SWIDTH 495 0
DWIDTH 33 0
BBX 28 56 3 -1
BITMAP
00180000
003C0000
003E0000
007F0000
007F8000
1F1F9F00
1F8F3F80
3FC73F80
3FC03F80
3FC03F80
1F803F80
0F001F00
00000000
00000000
00000000
FF000FF0
FF000FF0
FF000FF0
FF000FF0
FF000FF0
FF000FF0
FF000FF0
FF000FF0
FF000FF0
FF000FF0
FF000FF0
FF000FF0
FF000FF0
FF000FF0
FF000FF0
FF000FF0
FF000FF0
FF000FF0
FF000FF0
FF000FF0
FF000FF0
FF000FF0
FF000FF0
FF000FF0
FF000FF0
FF001FF0
FF001FF0
FF001FF0
FF001FF0
FF001FE0
FF001FE0
FF803FE0
FFC03FE0
7FF1FFC0
7FFFFFC0
3FFFFFC0
3FFFFF80
1FFFFF00
0FFFFE00
03FFF800
007FC000
ENDCHAR
STARTCHAR 01DC
ENCODING 476
SWIDTH 495 0
DWIDTH 33 0
BBX 25 53 4 -1
BITMAP
00C00000
01C00000
03E00000
07F00000
07F80000
03F80000
01FC0000
00FE0000
007E0000
083F0800
3F1E3E00
7F0C7F00
7F087F00
7F807F00
7F007F00
3F003F00
1C001C00
00000000
00000000
00000000
00000000
FF007F80
FF007F80
FF007F80
FF007F80
FF007F80
FF007F80
FF007F80
FF007F80
FF007F80
FF007F80
FF007F80
FF007F80
FF007F80
FF007F80
FF007F80
FF007F80
FF007F80
FF007F80
FF007F80
FF007F80
FF807F80
FF807F80
FF807F80
7FC07F80
7FF3FF80
7FFFFF80
3FFFFF80
3FFFFF80
1FFFFF80
0FFFFF80
03FFFE00
003F8000
ENDCHAR
ENDFONT
